<?xml version="1.0" encoding="UTF-8" standalone="no"?>
<!-- Created with Inkscape (http://www.inkscape.org/) -->

<svg
   width="182.36015mm"
   height="200.18739mm"
   viewBox="0 0 182.36015 200.18739"
   version="1.1"
   id="svg5"
   xmlns="http://www.w3.org/2000/svg"
   xmlns:svg="http://www.w3.org/2000/svg">
  <defs
     id="defs2" />
  <g
     id="layer1"
     transform="translate(-14.251432,-58.797857)">
    <path
       style="fill:#77b6b7;fill-opacity:1;fill-rule:evenodd;stroke:#f4f0e8;stroke-width:0.462056"
       d="m 32.639362,179.98067 c -6.019967,-3.90034 -8.665939,-5.00181 -12.021333,-5.00428 -2.787073,-0.002 -3.090345,-0.0965 -3.343695,-1.04186 -0.487575,-1.81925 -0.296787,-7.81206 0.406128,-12.7571 0.374236,-2.63278 0.560455,-4.98097 0.413822,-5.21822 -0.146633,-0.23724 -0.03938,-0.70512 0.238318,-1.03972 0.277708,-0.33459 0.575428,-1.41706 0.66159,-2.40549 0.08616,-0.98841 0.260654,-2.109 0.387761,-2.49019 0.127099,-0.38117 0.650827,-2.35642 1.163839,-4.3894 0.513002,-2.03298 1.012897,-4.00823 1.110883,-4.3894 0.09799,-0.38119 0.34452,-0.81575 0.547852,-0.96567 0.203342,-0.14993 0.403534,-0.72171 0.444889,-1.27062 0.04132,-0.5489 0.21287,-0.99802 0.381158,-0.99802 0.168289,0 0.422232,-0.57178 0.564305,-1.27062 0.142083,-0.69884 0.81223,-2.51813 1.489233,-4.04288 0.676993,-1.52473 1.192776,-2.85297 1.14618,-2.95162 -0.04658,-0.0987 0.09394,-0.30656 0.312295,-0.46205 0.218356,-0.15547 1.103203,-1.63414 1.966316,-3.28595 0.863114,-1.65181 1.741873,-3.07258 1.952799,-3.1573 0.210917,-0.0847 0.383494,-0.44856 0.383494,-0.80856 0,-0.36002 0.20793,-0.65458 0.462069,-0.65458 0.254138,0 0.46207,-0.22178 0.46207,-0.49286 0,-0.52698 2.227124,-3.67081 3.000819,-4.236 0.255588,-0.1867 0.295658,-0.34264 0.08907,-0.34653 -0.206609,-0.004 0.363403,-0.78677 1.266686,-1.73973 0.903283,-0.95297 1.64414,-1.88999 1.646338,-2.08228 0.0058,-0.51996 9.632981,-10.02741 12.026779,-11.87741 1.138702,-0.880022 2.139678,-1.763683 2.224391,-1.963688 0.0847,-0.200005 0.353321,-0.363635 0.596909,-0.363635 0.243578,0 0.889105,-0.415702 1.434497,-0.923785 0.545393,-0.508072 1.576347,-1.182585 2.291029,-1.498916 0.714671,-0.316323 1.299415,-0.732308 1.299415,-0.924398 0,-0.19209 0.301561,-0.349255 0.670138,-0.349255 0.368586,0 0.836432,-0.259889 1.039657,-0.577543 0.364055,-0.569018 4.19979,-2.66053 4.874701,-2.658031 0.436496,0.002 0.456236,1.585754 0.02508,2.016839 -0.176787,0.176776 -0.387596,0.679238 -0.468479,1.116604 -0.0809,0.437356 -0.271757,1.418954 -0.424176,2.181335 -0.481819,2.409896 -0.509307,12.406803 -0.0388,14.092313 0.248304,0.88943 0.490532,1.92902 0.538265,2.31021 0.04774,0.38119 0.211918,1.00493 0.364823,1.38613 0.152916,0.38117 0.633033,1.83661 1.066942,3.2343 2.140847,6.89605 7.779139,14.58476 14.300071,19.50042 2.287246,1.72419 5.042338,3.4761 6.122427,3.89313 1.080087,0.41703 1.963796,0.90325 1.963796,1.08049 0,0.17725 0.259914,0.33989 0.577587,0.36146 0.317674,0.0216 2.137074,0.61784 4.043111,1.32507 3.163944,1.17396 4.134671,1.30185 11.154909,1.46953 6.62838,0.15834 8.20637,0.053 11.43614,-0.76374 4.62908,-1.17054 10.62015,-3.93752 14.20663,-6.56136 3.34611,-2.448 8.47101,-7.68609 10.31498,-10.5428 0.75921,-1.17617 1.54469,-2.34642 1.74551,-2.60053 0.67982,-0.86025 3.35574,-6.99962 3.35574,-7.69907 0,-0.3821 0.14463,-0.83935 0.32141,-1.01612 0.17679,-0.17677 0.39234,-0.67924 0.47902,-1.1166 0.2002,-1.01006 0.48432,-2.11416 0.6208,-2.41236 0.14419,-0.31502 0.19628,-0.6721 0.64034,-4.38941 0.51052,-4.27371 0.51207,-4.97562 0.0192,-8.778805 -0.23051,-1.778876 -0.4411,-3.54619 -0.468,-3.927365 -0.0791,-1.121593 -0.70997,-3.401617 -1.18257,-4.273899 -0.24094,-0.444716 -0.29388,-0.808575 -0.11764,-0.808575 0.59327,0 6.84791,3.358271 7.0035,3.760362 0.0847,0.218916 0.35684,0.398015 0.60471,0.398015 0.24786,0 1.21821,0.588862 2.15632,1.308568 0.93812,0.719706 3.27198,2.481255 5.18635,3.914555 4.89761,3.666834 12.84262,11.881484 16.84528,17.416994 1.01065,1.39767 1.99706,2.61055 2.19202,2.69525 0.19496,0.0847 0.35447,0.40132 0.35447,0.7036 0,0.30227 0.70185,1.61521 1.55965,2.91764 1.60696,2.43989 5.79205,10.47288 6.09721,11.70319 0.0945,0.38117 0.80164,2.42346 1.57133,4.5384 0.76968,2.11493 1.39942,4.12861 1.39942,4.47484 0,0.34621 0.24037,1.21481 0.53412,1.93019 0.29378,0.7154 0.574,1.50862 0.62273,1.76273 0.0487,0.25413 0.13619,0.56601 0.19434,0.69307 0.61351,1.34049 1.8752,10.37864 2.18437,15.64787 l 0.30815,5.25187 -2.9615,-0.3272 c -2.20049,-0.24311 -3.37711,-0.65259 -4.57877,-1.59343 -7.24067,-5.6691 -6.51116,-5.324 -15.01727,-7.10385 -7.49504,-1.56828 -10.17041,-1.81958 -20.10004,-1.888 -2.48272,-0.0171 -3.13115,0.13257 -8.65752,1.99851 -3.00741,1.01543 -5.15776,2.11454 -7.28111,3.72161 -1.65731,1.25432 -3.28941,2.17464 -3.62692,2.04513 -0.33751,-0.1295 -1.53153,0.0758 -2.65338,0.45637 -5.10349,1.73099 -13.67552,2.0917 -14.77254,0.62162 -0.1413,-0.18936 -0.81708,-0.39065 -1.50172,-0.4473 -0.68465,-0.0567 -1.24481,-0.25266 -1.24481,-0.43558 0,-0.1829 -0.36388,-0.31404 -0.80863,-0.29141 -0.44474,0.0227 -2.27454,-0.41376 -4.06624,-0.96975 l -3.2576,-1.01087 -3.785971,0.88151 c -2.190612,0.51005 -5.783001,0.91551 -8.52516,0.9622 -6.045026,0.10292 -6.826422,0.32737 -14.268693,4.09865 -9.417785,4.77234 -8.836911,4.58031 -17.610308,5.82169 -2.98034,0.42169 -4.317853,0.83561 -5.112542,1.58213 -0.922623,0.86671 -1.605858,1.01103 -4.786215,1.01103 -2.575486,0 -4.544543,0.29399 -6.439195,0.96141 -1.501085,0.52876 -2.937177,1.00244 -3.191316,1.05259 -0.254138,0.0502 -0.670001,0.21253 -0.924139,0.36084 -1.744781,1.01824 -2.956781,0.7969 -5.829977,-1.06465 z"
       id="path3328" />
    <path
       style="fill:#f5db72;fill-opacity:1;fill-rule:evenodd;stroke:#f4f0e8;stroke-width:0.462056"
       d="m 99.892508,144.71377 c -0.126285,-0.12628 -1.049209,-0.35285 -2.050945,-0.5035 -12.177099,-1.83131 -24.424544,-11.09962 -29.695217,-22.47199 -1.133701,-2.44616 -1.841726,-4.22182 -2.177852,-5.46185 -0.03444,-0.12706 -0.198192,-0.5429 -0.363889,-0.92409 -0.165696,-0.38118 -0.392202,-1.21285 -0.503344,-1.84817 -0.111142,-0.6353 -0.25001,-1.25907 -0.308598,-1.38613 -0.555977,-1.20577 -0.753056,-12.175848 -0.273921,-15.247415 0.268404,-1.72064 0.657496,-3.465321 0.772824,-3.465321 0.03833,0 0.157291,-0.470391 0.264361,-1.04531 0.842467,-4.523726 6.119431,-13.495636 10.555383,-17.946292 5.317338,-5.334967 14.457936,-10.167862 21.358059,-11.292619 6.070511,-0.989524 14.479531,-0.637411 18.881941,0.790646 3.60695,1.170031 9.88284,4.174001 12.16009,5.820458 5.78114,4.179797 10.99317,10.438415 13.84653,16.626961 0.79089,1.715333 1.31947,3.11879 1.17464,3.11879 -0.14483,0 -0.0341,0.276217 0.24611,0.613817 0.2802,0.337599 0.60211,1.117295 0.71536,1.732661 0.11324,0.615363 0.24787,1.118842 0.29919,1.118842 0.0514,0 0.16755,0.41584 0.25828,0.924088 0.0907,0.508246 0.3637,1.963682 0.6066,3.234301 0.83771,4.382323 0.40207,14.574033 -0.74063,17.326613 -0.15824,0.38118 -0.36159,1.07305 -0.45191,1.53749 -0.0903,0.46443 -0.92403,2.43966 -1.85272,4.3894 -0.92869,1.94974 -1.70727,3.65367 -1.73019,3.78649 -0.13845,0.80259 -4.77369,6.70125 -7.04763,8.96858 -2.6122,2.60463 -8.35173,6.7304 -9.3629,6.7304 -0.27317,0 -0.49667,0.22019 -0.49667,0.48932 0,0.26911 -0.17064,0.38386 -0.3792,0.25496 -0.20856,-0.12889 -1.02176,0.1564 -1.80712,0.63398 -1.4214,0.86435 -6.28453,2.43724 -9.36543,3.02908 -2.05074,0.39394 -12.22486,0.77213 -12.531202,0.46581 z"
       id="path6251" />
    <path
       style="fill:#bad344;fill-opacity:1;fill-rule:evenodd;stroke:#f4f0e8;stroke-width:0.462056"
       d="m 67.19797,247.89372 c -0.501286,-0.34021 -2.055053,-1.22214 -3.452815,-1.95985 -3.167872,-1.67191 -7.403202,-4.35582 -9.561978,-6.05936 -1.362436,-1.07513 -12.424341,-14.10621 -16.834941,-19.83179 -0.667764,-0.86685 -1.786076,-2.14498 -2.485132,-2.84028 -0.699056,-0.69529 -1.816153,-1.99174 -2.48244,-2.88096 -0.666286,-0.88923 -1.596513,-2.03278 -2.067159,-2.54124 -0.470656,-0.50845 -1.405161,-1.65218 -2.07669,-2.54161 -0.671527,-0.88944 -1.326107,-1.72111 -1.454625,-1.84817 -0.381237,-0.37692 -2.401936,-5.26404 -2.435804,-5.89105 -0.01722,-0.31765 -0.239125,-0.57755 -0.493263,-0.57755 -0.254139,0 -0.322721,-0.13935 -0.15241,-0.30965 0.17032,-0.17031 -0.0078,-0.79407 -0.395706,-1.38613 -0.387956,-0.59207 -0.61796,-1.07648 -0.511116,-1.07648 0.106834,0 -0.281092,-1.40345 -0.862073,-3.1188 -1.18313,-3.49315 -1.028038,-4.53774 0.416699,-2.80658 0.53104,0.6363 4.220783,5.08871 8.199425,9.89424 3.978654,4.80553 7.617454,9.17918 8.086233,9.71921 0.46877,0.54004 4.075249,4.88176 8.014394,9.64826 3.939146,4.76652 8.9295,10.77937 11.089678,13.36192 2.160176,2.58254 4.759319,5.70942 5.775873,6.94861 1.016554,1.23918 2.628023,3.16588 3.581042,4.28153 0.953018,1.11565 1.732762,2.11977 1.732762,2.23137 0,0.38501 -0.721226,0.20108 -1.629954,-0.41564 z"
       id="path8238" />
    <path
       style="fill:#bad344;fill-opacity:1;fill-rule:evenodd;stroke:#f4f0e8;stroke-width:0.462056"
       d="m 103.62603,255.67395 c -0.44267,-0.50825 -2.15548,-2.58744 -3.806248,-4.62043 -1.650772,-2.03299 -3.217258,-3.92093 -3.481082,-4.19542 -0.263833,-0.2745 -2.14314,-2.54293 -4.176248,-5.04096 -2.033107,-2.49802 -4.528284,-5.51792 -5.544838,-6.71086 -1.016554,-1.19295 -3.095869,-3.68652 -4.620699,-5.54128 -1.524831,-1.85476 -3.084316,-3.70677 -3.465524,-4.11558 -0.381208,-0.40882 -1.524831,-1.78044 -2.541384,-3.04804 -1.016554,-1.2676 -1.955105,-2.4087 -2.085674,-2.53577 -0.13056,-0.12705 -1.156302,-1.37457 -2.279419,-2.77225 -1.123115,-1.39769 -2.268605,-2.74916 -2.545536,-3.00328 -0.276931,-0.25413 -1.330503,-1.50165 -2.341281,-2.77226 -1.010777,-1.27061 -1.941733,-2.41417 -2.068803,-2.54123 -0.248168,-0.24816 -3.935265,-4.74145 -5.081495,-6.19259 -0.381907,-0.4835 -1.63007,-1.95456 -2.773692,-3.26902 -1.143623,-1.31447 -3.222938,-3.81202 -4.6207,-5.55014 -2.61472,-3.25139 -4.586382,-5.60962 -8.475987,-10.13781 -1.230922,-1.43301 -2.132337,-2.88091 -2.003148,-3.21755 0.23331,-0.60796 3.605058,-1.66569 5.309777,-1.66569 0.543118,0 1.950116,1.28978 3.607462,3.3069 1.494385,1.81879 3.548798,4.28415 4.565352,5.47855 1.016553,1.19441 3.554067,4.22857 5.638924,6.74255 2.084857,2.51398 7.595041,9.12643 12.244852,14.69433 4.649812,5.56789 9.078,10.90406 9.840416,11.85814 1.81484,2.27108 3.331735,4.0968 14.329397,17.24675 5.079898,6.07407 9.743788,11.68788 10.364188,12.47516 0.62042,0.78729 1.91999,2.31046 2.88794,3.3848 0.96796,1.07435 1.75991,2.16789 1.75991,2.43009 0,0.29954 -1.45544,0.43216 -3.91579,0.35685 -3.24687,-0.0994 -4.05329,-0.27773 -4.72067,-1.04396 z"
       id="path8277" />
    <path
       style="fill:#bad344;fill-opacity:1;fill-rule:evenodd;stroke:#f4f0e8;stroke-width:0.462056"
       d="m 134.61179,249.58897 c -0.72592,-0.97336 -1.43598,-1.87372 -1.5779,-2.00077 -0.44325,-0.39682 -11.68801,-13.81699 -13.14724,-15.6907 -2.61208,-3.35396 -6.91561,-8.56645 -7.84753,-9.50498 -0.51249,-0.51613 -1.45163,-1.64064 -2.08698,-2.4989 -0.63534,-0.85825 -1.37549,-1.78745 -1.64476,-2.06485 -0.63381,-0.65297 -5.01768,-5.89636 -7.27163,-8.69735 -0.96486,-1.19904 -2.00452,-2.44541 -2.31035,-2.76972 -0.30582,-0.3243 -1.383244,-1.62895 -2.394265,-2.89922 -1.01102,-1.27028 -2.674472,-3.20921 -3.696559,-4.30875 -1.022086,-1.09953 -1.938963,-2.22505 -2.037502,-2.50115 -0.171292,-0.47995 -1.78423,-2.42851 -3.311793,-4.00092 -0.3952,-0.4068 -1.434857,-1.67161 -2.310349,-2.8107 -0.875502,-1.13908 -1.911085,-2.39398 -2.301316,-2.78866 -0.390231,-0.39468 -1.325933,-1.5419 -2.079324,-2.54937 -0.753382,-1.00748 -1.611391,-2.03969 -1.906661,-2.29381 -1.53014,-1.31689 -7.080472,-8.64707 -6.840919,-9.03465 0.365562,-0.59146 3.700099,-2.28542 4.498822,-2.28542 0.577519,0 3.961315,3.59987 6.113451,6.50383 0.890184,1.20116 6.202325,7.58247 17.992405,21.61373 3.06525,3.6479 6.19696,7.41811 6.95937,8.37824 2.12667,2.6782 4.7209,5.82004 8.77933,10.63259 3.93942,4.67145 6.39431,7.61985 9.01035,10.82172 4.76504,5.83208 7.30157,8.89158 11.69224,14.10286 2.66441,3.16238 4.74273,6.01469 4.61846,6.33848 -0.12424,0.32378 -0.36213,0.56169 -0.52863,0.52869 -0.1665,-0.033 -0.88371,0.17984 -1.59379,0.47298 -2.99396,1.23592 -3.37998,1.1799 -4.77693,-0.6932 z"
       id="path8316" />
    <path
       style="fill:#bad344;fill-opacity:1;fill-rule:evenodd;stroke:#f4f0e8;stroke-width:0.462056"
       d="m 159.73224,236.36229 c -0.44911,-0.56003 -1.28083,-1.61487 -1.84828,-2.34408 -0.56745,-0.72921 -1.92372,-2.28861 -3.01392,-3.46532 -1.09021,-1.17671 -2.33064,-2.71126 -2.75653,-3.4101 -0.42589,-0.69883 -0.91245,-1.27062 -1.08126,-1.27062 -0.16882,0 -1.14053,-1.09157 -2.15939,-2.42572 -1.01886,-1.33415 -2.23945,-2.84173 -2.71242,-3.35018 -0.47298,-0.50846 -1.43658,-1.69643 -2.14134,-2.63994 -0.70477,-0.94351 -1.92001,-2.39878 -2.70054,-3.23393 -0.78053,-0.83514 -2.21857,-2.55805 -3.19562,-3.82867 -0.97706,-1.27062 -2.36097,-2.98637 -3.07533,-3.81279 -0.71439,-0.82641 -1.92267,-2.26078 -2.68508,-3.18748 -0.76241,-0.92671 -1.70849,-2.01786 -2.1024,-2.42479 -0.3939,-0.40694 -2.1511,-2.5072 -3.90489,-4.66724 -1.75379,-2.16005 -4.03065,-4.88311 -5.05969,-6.05124 -1.02904,-1.16813 -3.22253,-3.86219 -4.87443,-5.9868 -2.57859,-3.3165 -4.42517,-5.52596 -8.66554,-10.36844 -2.02668,-2.31445 -7.04484,-8.50466 -7.04484,-8.69023 0,-0.66462 3.20753,-0.66718 5.59134,-0.005 l 2.76246,0.76799 8.41451,10.14063 c 4.62797,5.57736 12.26123,14.75373 16.9628,20.39195 4.70155,5.63821 9.38002,11.26441 10.39657,12.50267 1.01655,1.23825 2.68,3.21889 3.69656,4.40141 1.01654,1.18252 2.9919,3.57056 4.38965,5.30676 1.39778,1.73619 3.79046,4.62935 5.3171,6.42923 1.52664,1.79988 3.76246,4.44989 4.96849,5.8889 l 2.19279,2.61639 -2.14562,1.88852 c -1.18008,1.0387 -2.27227,1.87892 -2.4271,1.86717 -0.15483,-0.0118 -0.64895,-0.47956 -1.09805,-1.03959 z"
       id="path8355" />
    <path
       style="fill:#bad344;fill-opacity:1;fill-rule:evenodd;stroke:#f4f0e8;stroke-width:0.462056"
       d="m 176.48611,213.19881 c -1.38549,-1.69193 -3.7271,-4.55417 -5.20355,-6.36051 -1.47644,-1.80635 -3.3915,-4.11596 -4.25569,-5.13245 -0.8642,-1.0165 -2.09026,-2.55192 -2.7246,-3.41208 -0.63433,-0.86015 -1.52633,-1.91326 -1.98223,-2.34025 -0.4559,-0.42698 -1.34874,-1.45005 -1.98408,-2.27348 -0.63535,-0.82344 -1.63196,-2.05743 -2.2147,-2.74223 -0.58272,-0.68479 -1.51841,-1.83215 -2.07931,-2.54969 -0.56089,-0.71754 -1.53963,-1.89101 -2.17497,-2.60771 -0.63535,-0.7167 -1.81035,-2.10485 -2.61112,-3.08478 -0.80077,-0.97994 -1.9173,-2.30151 -2.48117,-2.93682 -1.36983,-1.54335 -8.21388,-9.86136 -9.80669,-11.91871 -0.69735,-0.90073 -1.68572,-2.02691 -2.19639,-2.50265 l -0.92847,-0.86495 1.05508,-1.05503 c 0.90665,-0.9066 3.49103,-2.14038 4.48337,-2.14038 0.17308,0 2.48128,2.62952 5.12934,5.8434 2.64806,3.21387 6.999,8.46383 9.66876,11.66659 2.66975,3.20275 5.37286,6.46887 6.0069,7.25804 0.63405,0.78919 3.75196,4.5292 6.92869,8.31113 5.70609,6.79319 7.41017,8.85085 11.63027,14.04349 l 2.15785,2.65512 -1.47188,2.45104 c -0.80954,1.34808 -1.68663,2.52261 -1.94909,2.6101 -0.26246,0.0875 -1.6108,-1.22525 -2.99632,-2.91719 z"
       id="path8394" />
    <path
       style="fill:#bad344;fill-opacity:1;fill-rule:evenodd;stroke:#f4f0e8;stroke-width:0.462056"
       d="m 190.74909,186.62484 c -0.39519,-0.59977 -1.69189,-2.13008 -2.88157,-3.40071 -1.18967,-1.27062 -2.47008,-2.882 -2.84536,-3.58083 -0.37526,-0.69883 -0.84965,-1.27062 -1.05419,-1.27062 -0.20452,0 -1.02294,-0.88366 -1.81868,-1.96369 -0.79574,-1.08002 -2.20287,-2.79536 -3.12694,-3.81185 -0.92409,-1.01648 -2.29184,-2.67041 -3.03947,-3.67538 -0.74763,-1.00496 -2.29229,-2.83998 -3.4326,-4.07781 -1.14031,-1.23785 -2.40358,-2.75469 -2.80729,-3.37078 -0.91021,-1.38909 -0.63889,-1.41863 3.84879,-0.41908 1.73122,0.3856 3.56758,0.79337 4.08084,0.90616 0.51325,0.1128 3.11238,2.8409 5.77587,6.06244 2.66347,3.22154 5.84363,7.02413 7.06703,8.45021 l 2.22435,2.59285 -0.28124,3.36549 c -0.15467,1.85101 -0.44095,3.79717 -0.63612,4.32479 -0.35084,0.94834 -0.36311,0.94685 -1.07342,-0.13119 z"
       id="path8433" />
    <path
       style="fill:#08080b;fill-opacity:1;fill-rule:evenodd;stroke:#f4f0e8;stroke-width:0.462056"
       d="m 98.705204,256.30827 c -0.4677,-0.27275 -1.455374,-0.40714 -2.194831,-0.29861 -0.739459,0.10852 -1.344467,0.0497 -1.344467,-0.13081 0,-0.18048 -0.413364,-0.43624 -0.918577,-0.56834 -0.505224,-0.13211 -1.123865,-0.78011 -1.374775,-1.44001 -0.25091,-0.6599 -0.644992,-1.19983 -0.875736,-1.19983 -0.230742,0 -1.119605,-0.95298 -1.975231,-2.11776 -0.855637,-1.16477 -2.137044,-2.66306 -2.847574,-3.32955 -0.71053,-0.66649 -1.742291,-1.94863 -2.292788,-2.84921 -0.550498,-0.90056 -1.773572,-2.46908 -2.717938,-3.48558 -0.944365,-1.01649 -2.329981,-2.67984 -3.079162,-3.69634 -0.749172,-1.0165 -2.11572,-2.5647 -3.036759,-3.44045 -0.921027,-0.87576 -1.674604,-1.7612 -1.674604,-1.96768 0,-0.35374 -1.545124,-2.26584 -3.350006,-4.14565 -0.444743,-0.4632 -0.808623,-0.95316 -0.808623,-1.08878 0,-0.13562 -0.571811,-0.85379 -1.270692,-1.59593 -0.698881,-0.74214 -1.755156,-1.93067 -2.34727,-2.64117 -0.592115,-0.71051 -1.913535,-2.22749 -2.936487,-3.37104 -1.022952,-1.14356 -3.006887,-3.5866 -4.408732,-5.42901 -1.401856,-1.84239 -2.686725,-3.34981 -2.855275,-3.34981 -0.168551,0 -0.65282,-0.58629 -1.076141,-1.30288 -0.42333,-0.7166 -1.465108,-2.06208 -2.315065,-2.98997 -2.706599,-2.95473 -3.58324,-4.022 -3.592768,-4.37396 -0.0048,-0.18866 -0.940797,-1.26807 -2.079315,-2.3987 -1.138518,-1.13062 -2.070028,-2.27985 -2.070028,-2.55385 0,-0.274 -0.571812,-1.04823 -1.270693,-1.72052 -1.964778,-1.88998 -2.887936,-2.95593 -2.887936,-3.33462 0,-0.19046 -0.677742,-1.00469 -1.506093,-1.80941 -0.828342,-0.80472 -2.127913,-2.28783 -2.887937,-3.2958 -0.760013,-1.00798 -2.365453,-2.87925 -3.567643,-4.15839 -2.499095,-2.65906 -2.976996,-4.09423 -0.861849,-2.58819 0.738116,0.52555 1.569842,0.95555 1.848289,0.95555 0.278438,0 0.506255,0.20791 0.506255,0.46204 0,0.25411 0.294569,0.46204 0.654599,0.46204 0.360029,0 0.760061,0.2599 0.888959,0.57755 0.151835,0.37418 0.368791,0.41485 0.616093,0.11552 0.209954,-0.25413 0.797596,-0.53481 1.305872,-0.62374 0.508277,-0.089 1.05788,-0.37715 1.221336,-0.64048 0.178128,-0.28696 0.640936,-0.0636 1.155174,0.55747 0.471891,0.56994 1.689608,1.98004 2.706045,3.13356 1.016438,1.15352 2.187754,2.63877 2.602916,3.30056 0.415172,0.66181 1.714831,2.13022 2.888151,3.26315 1.173319,1.13294 2.133301,2.29098 2.133301,2.57343 0,0.28245 0.467845,0.94602 1.039657,1.47461 1.42702,1.31914 3.118971,3.37074 3.118971,3.78193 0,0.18671 0.467846,0.77195 1.039658,1.30054 1.381124,1.27673 3.311656,3.52368 3.33297,3.87926 0.0098,0.15635 0.64083,0.91842 1.403246,1.6935 0.762415,0.77508 1.921829,1.99864 2.576477,2.71901 1.524724,1.67781 10.027549,12.21053 11.426068,14.15381 0.585521,0.81362 1.989059,2.42207 3.118972,3.57437 1.129902,1.15227 2.054383,2.33272 2.054383,2.62321 0,0.29048 0.468895,0.90709 1.04199,1.37024 0.573096,0.46317 1.442501,1.46588 1.93202,2.22825 0.48952,0.76237 1.689638,2.21781 2.666918,3.2343 2.877551,2.99302 3.1384,3.29553 3.1384,3.63965 0,0.18032 1.142445,1.51436 2.538787,2.96453 1.396322,1.45017 2.539946,2.88479 2.541384,3.18804 9.73e-4,0.30325 0.37585,0.82305 0.832057,1.15511 0.456206,0.33206 1.43548,1.43542 2.176143,2.45192 1.394066,1.91321 2.579414,3.31935 4.84366,5.74592 l 1.32105,1.41575 h -1.08184 c -0.59502,0 -1.35876,0.0984 -1.69723,0.21859 -0.338458,0.12023 -0.998036,-0.005 -1.465736,-0.27734 z"
       id="path10966" />
    <path
       style="fill:#d6623a;fill-opacity:1;fill-rule:evenodd;stroke:#f4f0e8;stroke-width:0.350179"
       d="m 80.769483,253.09872 c -0.129091,-0.20886 -0.444966,-0.29907 -0.701953,-0.20047 -0.256978,0.0986 -0.516814,0.069 -0.577403,-0.0658 -0.06058,-0.13479 -0.898099,-0.51138 -1.861115,-0.83686 -6.509243,-2.2 -6.604818,-2.25565 -8.991964,-5.23649 -0.845097,-1.0553 -3.599964,-4.38492 -6.76316,-8.17418 -0.643076,-0.77038 -5.293053,-6.36431 -10.333261,-12.43097 -5.040207,-6.06667 -9.89939,-11.88234 -10.798171,-12.92372 -0.898789,-1.04138 -1.870536,-2.2283 -2.159437,-2.6376 -0.28891,-0.40929 -0.862677,-1.133 -1.275029,-1.60825 -1.170412,-1.34889 -6.930076,-8.2458 -10.981559,-13.14987 -2.022344,-2.44791 -3.84504,-4.62441 -4.050434,-4.83669 -1.472293,-1.52147 -2.603148,-3.58808 -2.603148,-4.7572 0,-0.70937 -0.106193,-1.39596 -0.235995,-1.52574 -0.282036,-0.28202 -0.494401,-1.70508 -0.500886,-3.35641 -0.003,-0.65976 -0.152284,-1.4753 -0.332658,-1.8123 -0.180365,-0.337 -0.204003,-0.94775 -0.0525,-1.35722 0.25725,-0.69536 0.354468,-0.64511 1.473694,0.76179 0.659053,0.82847 1.322306,1.55882 1.473888,1.62303 0.151583,0.0641 0.275608,0.25654 0.275608,0.42743 0,0.1709 0.706456,1.06383 1.56991,1.98428 0.863454,0.92047 1.572584,1.80192 1.575851,1.9588 0.003,0.15688 0.485339,0.68861 1.071288,1.18162 0.58594,0.49301 0.996163,0.96558 0.911596,1.05014 -0.0846,0.0846 0.464637,0.81342 1.22045,1.61972 0.755813,0.80628 1.685068,1.79771 2.065001,2.20316 0.379934,0.40547 0.690801,0.90444 0.690801,1.10888 0,0.20441 0.118182,0.42419 0.262637,0.48838 0.476403,0.21174 4.289811,4.73919 4.289811,5.09309 0,0.19057 0.472747,0.70878 1.050557,1.15159 0.577811,0.44278 1.050568,0.94439 1.050568,1.11467 0,0.17029 0.478181,0.77702 1.062634,1.34829 0.584452,0.57129 0.987305,1.03871 0.895212,1.03871 -0.09208,0 0.310623,0.51211 0.89491,1.13804 0.584277,0.62593 1.323122,1.53199 1.641885,2.01346 0.318752,0.48149 0.934913,1.16262 1.369242,1.51364 0.434337,0.35101 0.789699,0.78434 0.789699,0.96295 0,0.17862 0.275764,0.61519 0.612827,0.97017 0.337051,0.35498 1.164372,1.3327 1.838487,2.17272 0.674114,0.84002 1.540826,1.8728 1.92603,2.29506 1.049371,1.15031 1.908343,2.16394 4.1241,4.8666 1.105263,1.34814 2.362926,2.85984 2.794804,3.35933 0.431887,0.49948 1.336793,1.58751 2.010898,2.41784 0.674115,0.83034 1.750255,2.0762 2.391426,2.76861 0.64116,0.69241 1.568208,1.84984 2.060109,2.57204 0.491903,0.72223 1.031004,1.31314 1.198018,1.31314 0.167004,0 0.303651,0.2195 0.303651,0.48778 0,0.2683 0.236384,0.5785 0.525284,0.68936 0.2889,0.11085 0.525284,0.44286 0.525284,0.73779 0,0.29494 0.143949,0.53624 0.31988,0.53624 0.175931,0 1.128123,0.98485 2.115963,2.18856 2.295618,2.79723 3.800106,4.60523 4.984287,5.98986 0.517913,0.60557 1.508028,1.81013 2.200267,2.6768 1.566371,1.96104 2.537271,3.12567 6.471945,7.76331 0.599708,0.70684 0.938403,1.37912 0.752643,1.49391 -0.185752,0.11481 -0.443362,0.0378 -0.572454,-0.17102 z"
       id="path15556" />
    <path
       style="fill:#d6623a;fill-opacity:1;fill-rule:evenodd;stroke:#f4f0e8;stroke-width:0.425275"
       d="M 93.511119,232.42013 C 68.1309,201.92941 55.238266,186.41307 51.597113,181.97641 l -2.879351,-3.50843 h 2.5007 c 1.704009,0 2.669368,-0.20322 3.030126,-0.63789 0.800153,-0.96406 1.438222,-0.77823 2.555415,0.74421 1.7047,2.32307 14.655191,17.98537 17.317888,20.94422 0.631446,0.70169 1.346303,1.59496 1.588569,1.98506 0.498154,0.80213 16.760535,20.227 17.825211,21.2916 0.379506,0.37949 0.690023,0.88113 0.690023,1.11476 0,0.23363 0.478444,0.8011 1.063217,1.26105 0.584774,0.45996 1.063218,0.96061 1.063218,1.11255 0,0.15195 0.645945,0.98557 1.435421,1.85249 0.789486,0.86691 3.30977,3.87263 5.60065,6.67937 2.29087,2.80675 5.85529,7.0585 7.92092,9.44837 2.06563,2.38986 3.7557,4.52886 3.7557,4.75335 0,0.22448 0.47844,0.78447 1.06322,1.24442 0.58477,0.45997 1.06322,0.95967 1.06322,1.11046 0,0.15079 0.76657,1.0719 1.70349,2.0469 2.01112,2.09286 1.86703,2.25326 -2.402,2.6739 l -3.02831,0.29838 z"
       id="path15595" />
    <path
       style="fill:#d6623a;fill-opacity:1;fill-rule:evenodd;stroke:#f4f0e8;stroke-width:0.425275"
       d="m 138.45567,243.66021 c -2.22213,-2.7342 -7.58273,-9.19177 -11.91245,-14.35015 -4.32971,-5.15839 -9.58033,-11.48394 -11.66802,-14.05678 -2.0877,-2.57284 -5.82316,-7.07001 -8.30104,-9.9937 -2.47787,-2.92368 -7.657456,-9.14155 -11.510187,-13.81749 -3.852731,-4.67593 -9.34937,-11.27532 -12.214747,-14.6653 -2.865378,-3.38997 -5.20978,-6.26888 -5.20978,-6.39755 0,-0.12869 1.22114,-0.83612 2.71364,-1.57206 l 2.713639,-1.33808 2.142363,2.62891 c 1.178308,1.44591 2.492951,3.01341 2.921435,3.48337 1.451728,1.59218 3.326339,3.86386 4.39401,5.32472 0.584774,0.80011 1.493832,1.89872 2.020127,2.44134 0.526295,0.54262 0.956899,1.09895 0.956899,1.23631 0,0.13735 0.351978,0.55924 0.782174,0.93752 0.430205,0.37827 2.092665,2.3144 3.694381,4.30252 1.601706,1.9881 4.606786,5.6241 6.677976,8.08 2.07118,2.4559 4.28414,5.09559 4.91771,5.86601 1.9997,2.43161 3.43587,4.09832 4.32818,5.02296 0.4752,0.49241 0.86399,1.11436 0.86399,1.38211 0,0.26776 0.16042,0.48683 0.35648,0.48683 0.19607,0 1.51053,1.48311 2.92101,3.29579 2.7696,3.55936 10.9889,13.36344 12.42664,14.82266 0.48517,0.49241 0.8821,1.02512 0.8821,1.18381 0,0.25924 0.727,1.09631 3.40395,3.91936 0.46692,0.4924 0.84895,1.0984 0.84895,1.34667 0,0.24826 0.18207,0.51517 0.4046,0.59314 0.22252,0.078 2.59858,2.82091 5.2801,6.09543 l 4.87552,5.9537 -2.62207,1.36147 c -1.44212,0.74881 -2.71774,1.36964 -2.83469,1.37963 -0.11695,0.01 -2.03075,-2.21893 -4.25289,-4.95315 z"
       id="path15634" />
    <path
       style="fill:#d6623a;fill-opacity:1;fill-rule:evenodd;stroke:#f4f0e8;stroke-width:0.425275"
       d="m 162.15569,228.75539 c -1.96089,-2.28046 -5.26268,-6.25136 -7.33733,-8.82421 -2.07465,-2.57284 -6.75811,-8.21822 -10.40771,-12.54528 -3.64959,-4.32705 -8.56941,-10.25948 -10.93294,-13.18317 -3.36833,-4.16662 -11.18345,-13.52265 -15.96948,-19.11814 -1.81429,-2.12113 -6.64219,-8.29458 -6.55495,-8.38182 0.0578,-0.0577 1.62848,0.36503 3.49047,0.93951 1.86198,0.57448 3.99026,1.04455 4.72947,1.04459 1.16001,5e-5 1.74226,0.47377 4.25287,3.4602 1.59987,1.9031 3.28464,3.9603 3.74392,4.57159 0.45929,0.61129 1.08126,1.26446 1.38219,1.4515 0.30092,0.18706 0.54713,0.57221 0.54713,0.85591 0,0.28372 0.47845,0.87512 1.06322,1.31423 0.58477,0.43913 1.06323,1.05424 1.06323,1.36692 0,0.31269 0.47844,0.882 1.06322,1.26514 0.58476,0.38312 1.0632,0.91623 1.0632,1.18466 0,0.26842 0.47846,0.84733 1.06323,1.28644 0.58478,0.43913 1.06322,0.97867 1.06322,1.19901 0,0.22033 0.74831,1.19821 1.66289,2.17307 2.0878,2.22539 12.79691,15.08712 12.79691,15.36922 0,0.11485 0.68284,0.91193 1.51743,1.77126 0.83459,0.85935 2.03071,2.25025 2.65805,3.09091 0.62734,0.84065 1.35518,1.71982 1.6174,1.95371 0.26222,0.2339 2.81261,3.2958 5.66751,6.80421 2.8549,3.50843 5.60546,6.85739 6.11234,7.44212 0.50688,0.58473 1.3814,1.60237 1.94336,2.26139 l 1.02176,1.19824 -2.06613,2.09757 c -1.13638,1.15365 -2.20633,2.09755 -2.37768,2.09755 -0.17135,0 -1.91591,-1.86584 -3.8768,-4.14633 z"
       id="path15673" />
    <path
       style="fill:#d6623a;fill-opacity:1;fill-rule:evenodd;stroke:#f4f0e8;stroke-width:0.425275"
       d="m 180.9356,207.3883 c -1.28656,-1.47163 -3.57136,-4.20662 -5.07733,-6.07779 -1.50598,-1.87115 -6.09224,-7.40852 -10.1917,-12.30522 -4.09947,-4.89672 -9.96996,-11.97736 -13.04553,-15.73475 -3.07557,-3.7574 -6.67843,-8.12338 -8.00637,-9.70216 -2.18856,-2.60202 -2.32173,-3.05214 -0.83906,-2.83632 0.12929,0.0189 0.70882,-0.27618 1.28787,-0.65556 0.57905,-0.3794 1.22556,-0.58304 1.4367,-0.45255 0.21115,0.13048 0.50411,0.0428 0.65103,-0.19496 0.55047,-0.89062 1.47157,-0.36678 3.16577,1.80043 1.94402,2.48682 3.18517,3.97118 5.42262,6.48527 0.83263,0.93558 2.20822,2.5611 3.05685,3.61228 2.76811,3.42873 14.51817,17.59887 16.3462,19.7129 0.98066,1.1341 1.96152,2.37563 2.17968,2.75895 0.21816,0.38332 0.7302,0.98638 1.13788,1.3401 1.01495,0.88069 7.61417,8.9735 7.58853,9.30605 -0.0113,0.14721 -0.64013,1.4717 -1.39728,2.94333 l -1.37665,2.67566 z"
       id="path15712" />
    <path
       style="fill:#d6623a;fill-opacity:1;fill-rule:evenodd;stroke:#f4f0e8;stroke-width:0.425275"
       d="m 187.84879,171.45351 c -2.86545,-3.44502 -5.14814,-6.32545 -5.07264,-6.40095 0.0755,-0.0755 1.35252,0.80704 2.83782,1.96118 1.4853,1.15415 3.01293,2.12052 3.39474,2.1475 0.38181,0.0269 0.88557,0.0935 1.11949,0.14786 0.23392,0.0543 1.11995,0.12794 1.96899,0.16357 l 1.54372,0.0647 0.19815,2.65791 c 0.10898,1.46184 -0.022,3.30228 -0.29111,4.08987 l -0.48924,1.43197 z"
       id="path15751" />
    <path
       style="fill:#08080c;fill-opacity:1;fill-rule:evenodd;stroke:#f4f0e8;stroke-width:0.425275"
       d="m 187.81367,194.40404 c -0.48155,-0.64545 -1.23155,-1.55627 -1.66667,-2.02406 -0.67147,-0.72189 -3.09378,-3.5975 -6.66341,-7.91035 -0.4644,-0.5611 -3.18949,-3.89072 -6.05574,-7.39915 -2.86625,-3.5084 -5.5612,-6.76168 -5.98878,-7.22947 -2.72721,-2.98368 -7.73757,-9.12902 -7.73757,-9.49036 0,-0.23785 -0.23923,-0.52898 -0.53161,-0.64695 -0.58012,-0.23406 3.02838,-0.46992 3.72128,-0.24323 0.23389,0.0765 1.20688,0.16956 2.16217,0.20673 1.7582,0.0684 3.57921,1.17677 3.57921,2.17852 0,0.29346 0.47846,0.84705 1.06322,1.23018 0.58477,0.38314 1.06322,0.91623 1.06322,1.18466 0,0.26842 0.47844,0.84733 1.06322,1.28645 0.58477,0.43912 1.06323,0.96941 1.06323,1.17843 0,0.20901 0.52629,0.91891 1.16954,1.57753 0.64325,0.65863 1.74367,1.87257 2.4454,2.69762 0.70174,0.82507 2.11217,2.47396 3.13431,3.66422 1.02215,1.19024 2.45749,2.97917 3.18967,3.97537 0.73217,0.99621 2.0465,2.58151 2.92074,3.52291 0.87425,0.94138 1.59192,1.84546 1.59483,2.00903 0.003,0.16359 0.84282,1.18398 1.86644,2.26754 1.66564,1.76316 1.82735,2.11164 1.53945,3.31732 -0.88418,3.70286 -1.41017,5.42109 -1.71769,5.61113 -0.18641,0.1152 -0.73292,-0.31863 -1.21446,-0.96407 z"
       id="path19142" />
    <path
       style="fill:#08080c;fill-opacity:1;fill-rule:evenodd;stroke:#f4f0e8;stroke-width:0.425275"
       d="m 172.63561,218.7617 c -1.36987,-1.69573 -4.74247,-5.76231 -7.49468,-9.03685 -2.75219,-3.27452 -5.52839,-6.5971 -6.16932,-7.38351 -0.64092,-0.78641 -1.46462,-1.74325 -1.83043,-2.12632 -0.3658,-0.38307 -1.88855,-2.22744 -3.38387,-4.0986 -2.71143,-3.3929 -7.77045,-9.49449 -10.61296,-12.80005 -1.63627,-1.90283 -3.69779,-4.38096 -5.21072,-6.26375 -0.53157,-0.6615 -1.26576,-1.52266 -1.63156,-1.91369 -0.36581,-0.39103 -1.86683,-2.20082 -3.33559,-4.02177 -2.13828,-2.651 -2.57163,-3.42992 -2.1745,-3.90841 0.27279,-0.32867 0.73272,-0.50675 1.02208,-0.39572 0.28935,0.11103 1.19849,-0.25439 2.02031,-0.81207 l 1.49421,-1.01395 1.13827,0.97904 c 0.62604,0.53847 1.13825,1.16362 1.13825,1.38925 0,0.22562 0.15355,0.474 0.34122,0.55198 0.18768,0.078 2.00098,2.15112 4.02954,4.60702 3.5731,4.3258 5.08634,6.12599 6.74398,8.02275 0.43632,0.49928 0.79491,1.0513 0.79683,1.22673 0.002,0.17542 0.95882,1.33857 2.12644,2.58479 1.16762,1.24623 2.12294,2.43655 2.12294,2.64517 0,0.20863 0.56662,0.79821 1.25916,1.31021 0.69254,0.51198 1.16567,1.08215 1.05139,1.26704 -0.11427,0.18489 0.3717,0.76455 1.07992,1.28814 0.70824,0.52359 1.28769,1.18709 1.28769,1.47446 0,0.28735 0.16259,0.58627 0.3613,0.66423 0.5124,0.20104 7.7192,8.77589 7.7192,9.1845 0,0.18586 0.38275,0.61378 0.85057,0.95095 0.46781,0.33716 0.85058,0.78927 0.85058,1.00468 0,0.21542 0.52629,0.93412 1.16953,1.59713 0.64325,0.66303 1.648,1.78521 2.23276,2.49375 0.58478,0.70855 1.54168,1.8062 2.12645,2.4392 0.58478,0.63301 1.0169,1.29711 0.9603,1.47577 -0.0566,0.17867 0.46969,0.74816 1.16955,1.26555 0.69985,0.5174 1.27245,1.14636 1.27245,1.3977 0,0.25135 0.47303,0.8122 1.05116,1.24632 0.84228,0.6325 0.96606,0.94832 0.62297,1.58936 -0.2355,0.44002 -0.34467,0.80002 -0.24259,0.80002 0.10207,0 -0.36963,0.59435 -1.04826,1.32077 -0.67862,0.72642 -1.23385,1.49189 -1.23385,1.70105 0,1.11051 -1.45659,0.038 -3.67072,-2.70287 z"
       id="path19181" />
    <path
       style="fill:#08080c;fill-opacity:1;fill-rule:evenodd;stroke:#f4f0e8;stroke-width:0.425275"
       d="m 149.70861,235.19489 c -2.79744,-3.41466 -5.61255,-6.73566 -6.2558,-7.38001 -0.64325,-0.64436 -1.16954,-1.37617 -1.16954,-1.62624 0,-0.25006 -0.47196,-0.8259 -1.04881,-1.27961 -0.57683,-0.45372 -0.9515,-0.92222 -0.8326,-1.0411 0.11889,-0.1189 -0.41389,-0.74631 -1.18397,-1.39426 -0.77008,-0.64794 -1.40015,-1.3073 -1.40015,-1.46525 0,-0.15795 -0.60062,-0.94336 -1.33469,-1.74537 -0.73409,-0.80201 -3.92248,-4.61576 -7.08534,-8.47503 -3.16286,-3.85928 -6.29414,-7.58347 -6.95843,-8.276 -0.66428,-0.69252 -1.1636,-1.39916 -1.10961,-1.57028 0.0539,-0.17113 -0.37662,-0.68459 -0.9569,-1.14101 -0.58029,-0.45643 -1.05506,-1.02765 -1.05506,-1.26938 0,-0.24173 -0.5263,-0.85347 -1.16955,-1.35942 -0.64326,-0.50594 -1.16955,-1.05971 -1.16955,-1.23057 0,-0.17087 -0.60456,-0.96686 -1.34344,-1.76886 -2.70967,-2.94109 -12.2824,-14.54153 -12.82437,-15.54083 -0.30723,-0.56649 -1.02325,-1.3344 -1.59118,-1.70649 -0.56793,-0.37211 -0.93672,-0.83166 -0.81955,-1.02124 0.11717,-0.18959 -0.26073,-0.71736 -0.839803,-1.17281 -0.579065,-0.45548 -0.955567,-0.92541 -0.836666,-1.04431 0.118902,-0.11889 -0.366038,-0.70605 -1.077638,-1.30479 -0.711609,-0.59873 -1.297675,-1.2445 -1.302371,-1.43503 -0.0048,-0.1905 -0.865915,-1.19781 -1.913798,-2.23843 -1.047894,-1.04062 -1.905261,-2.07208 -1.905261,-2.29213 0,-0.23072 0.990271,-0.29789 2.339093,-0.15869 1.418045,0.14635 2.339083,0.0761 2.339083,-0.17824 0,-0.2308 0.199763,-0.29617 0.443916,-0.14529 0.244162,0.1509 0.727235,0.0393 1.073505,-0.24813 0.346261,-0.28736 0.684305,-0.44736 0.751204,-0.35555 0.0669,0.0917 2.167446,2.60443 4.667886,5.58362 2.50045,2.9792 4.54627,5.5935 4.54627,5.80957 0,0.21607 0.56353,0.867 1.25228,1.44652 0.68876,0.57952 1.17497,1.13098 1.08048,1.22547 -0.0946,0.0945 0.82517,1.25156 2.04371,2.57128 1.21852,1.31972 2.24327,2.52588 2.27721,2.68035 0.0339,0.15448 1.11883,1.45864 2.41087,2.89813 1.29203,1.43949 4.06789,4.72231 6.16856,7.29515 2.10067,2.57285 4.31709,5.21619 4.92536,5.8741 0.60827,0.65792 1.10595,1.37114 1.10595,1.58494 0,0.2138 0.4768,0.70112 1.05957,1.08294 0.58276,0.38183 0.97779,0.82652 0.87784,0.98823 -0.0999,0.1617 0.79891,1.33682 1.99745,2.61138 1.19855,1.27456 2.19101,2.44084 2.2055,2.59174 0.0145,0.15091 1.10816,1.49049 2.43041,2.97685 1.32225,1.48636 4.12587,4.80753 6.23027,7.38037 2.10439,2.57285 4.32386,5.21619 4.93213,5.8741 0.60828,0.65792 1.10595,1.36165 1.10595,1.56388 0,0.20221 0.47197,0.73888 1.0488,1.1926 0.57684,0.45372 0.95152,0.92222 0.83262,1.04111 -0.11891,0.1189 0.36603,0.70604 1.07764,1.3048 0.7116,0.59874 1.29383,1.27844 1.29383,1.51046 0,0.23203 0.47844,0.79817 1.06322,1.25814 0.58477,0.45995 1.06322,0.97484 1.06322,1.1442 0,0.16935 0.57414,0.96179 1.27585,1.76096 1.39341,1.58691 1.59975,2.27398 0.68293,2.27398 -0.32613,0 -1.16347,0.52626 -1.86075,1.16947 -0.69728,0.64321 -1.53862,1.2165 -1.86965,1.27397 -0.33107,0.0574 -2.89049,-2.68905 -5.68813,-6.10396 z"
       id="path19220" />
    <path
       style="fill:#08080c;fill-opacity:1;fill-rule:evenodd;stroke:#f4f0e8;stroke-width:0.425275"
       d="m 128.13976,252.46589 c -0.52483,-0.64762 -1.43268,-1.79694 -2.01745,-2.55402 -0.58477,-0.75709 -1.54167,-1.87133 -2.12644,-2.4761 -0.58477,-0.60478 -1.06322,-1.24805 -1.06322,-1.42948 0,-0.18143 -0.42223,-0.76424 -0.9383,-1.29511 -0.51605,-0.53089 -1.5208,-1.56007 -2.23276,-2.28707 -0.71196,-0.72701 -1.29446,-1.52947 -1.29446,-1.78326 0,-0.25379 -0.33833,-0.71148 -0.75183,-1.01712 -0.4135,-0.30562 -2.7989,-3.05546 -5.30089,-6.11075 -2.50198,-3.05528 -4.93415,-5.90355 -5.40482,-6.32948 -0.47068,-0.42593 -0.75927,-0.93054 -0.64132,-1.12136 0.11793,-0.19082 -0.36503,-0.77535 -1.07326,-1.29893 -0.70822,-0.52359 -1.28769,-1.19863 -1.28769,-1.5001 0,-0.30145 -0.47845,-0.86158 -1.06322,-1.24472 -0.58478,-0.38313 -1.06322,-0.95724 -1.06322,-1.27579 0,-0.31855 -0.47845,-0.89265 -1.06322,-1.27579 -0.58478,-0.38313 -1.06322,-0.95724 -1.06322,-1.27578 0,-0.31856 -0.478455,-0.89267 -1.063229,-1.2758 -0.584762,-0.38314 -1.063217,-0.8857 -1.063217,-1.11681 0,-0.23111 -0.66369,-1.1181 -1.47488,-1.97109 -1.782634,-1.8745 -10.048609,-11.77518 -10.645829,-12.75118 -0.233913,-0.38226 -0.855899,-1.08657 -1.382194,-1.56512 -0.526295,-0.47856 -0.956899,-1.09882 -0.956899,-1.37834 0,-0.27953 -0.478445,-0.82171 -1.063217,-1.20484 -0.584774,-0.38315 -1.063219,-0.91623 -1.063219,-1.18467 0,-0.26842 -0.478454,-0.84732 -1.063227,-1.28645 -0.584763,-0.43911 -1.063218,-1.05423 -1.063218,-1.36691 0,-0.3127 -0.478445,-0.88201 -1.063217,-1.26513 -0.584774,-0.38315 -1.063218,-0.85153 -1.063218,-1.04088 0,-0.18933 -0.748414,-1.17201 -1.663141,-2.18372 -0.914717,-1.01171 -3.302409,-3.84883 -5.305956,-6.30473 -2.003557,-2.4559 -4.03015,-4.85475 -4.503548,-5.33076 -1.183276,-1.18982 -1.110611,-1.3248 0.88508,-1.6439 0.960186,-0.15354 2.34061,-0.58673 3.067611,-0.96265 1.242251,-0.64235 1.348365,-0.63584 1.762828,0.10827 0.242558,0.43546 1.091708,1.46614 1.886999,2.29039 0.795291,0.82425 1.43054,1.59432 1.411656,1.71127 -0.01886,0.11695 0.98257,1.36085 2.225433,2.76422 1.242863,1.40336 4.854408,5.70916 8.025644,9.56843 3.171237,3.85927 6.255748,7.51626 6.854474,8.12665 0.598717,0.61039 1.088577,1.31101 1.088577,1.55694 0,0.24591 0.580232,0.93533 1.289391,1.53201 0.709169,0.59669 1.306981,1.23565 1.32848,1.41991 0.02148,0.18427 1.047572,1.48324 2.280187,2.88661 1.232604,1.40337 4.821919,5.70916 7.976219,9.56842 3.15432,3.85928 6.28466,7.56896 6.95631,8.24376 0.67166,0.67479 1.17778,1.37913 1.12471,1.56521 -0.0531,0.18608 0.46261,0.80873 1.14595,1.3837 0.68335,0.57496 1.1473,1.14054 1.03099,1.25684 -0.11631,0.11629 0.27707,0.59569 0.87416,1.06534 0.5971,0.46964 1.08561,0.93918 1.08561,1.04343 0,0.10425 0.64965,0.93786 1.44366,1.85249 1.59025,1.8318 10.27789,12.30805 12.08725,14.57578 0.62785,0.78689 1.68807,1.98294 2.35606,2.65789 0.66799,0.67495 1.07516,1.22718 0.90482,1.22718 -0.17033,0 -0.096,0.25736 0.165,0.57192 0.38202,0.46028 -0.10649,0.74145 -2.50235,1.4403 l -2.97701,0.8684 z"
       id="path19259" />
    <path
       style="fill:#3f67d1;fill-opacity:1;fill-rule:evenodd;stroke:#f4f0e8;stroke-width:0.425275"
       d="m 91.577893,255.62813 c -0.130803,-0.13079 -0.840205,-0.31405 -1.576443,-0.40722 -0.73624,-0.0931 -2.481681,-0.39427 -3.878763,-0.66911 -2.80865,-0.55254 -2.275169,-0.0688 -8.483241,-7.69244 -0.584773,-0.71812 -1.473295,-1.74841 -1.974493,-2.28956 -0.501198,-0.54114 -2.414995,-2.85573 -4.252881,-5.14352 -1.837885,-2.2878 -5.201232,-6.36621 -7.474097,-9.06316 -2.272873,-2.69693 -4.569425,-5.43974 -5.10346,-6.09514 -0.534035,-0.6554 -1.401573,-1.66879 -1.927868,-2.25196 -0.526294,-0.58319 -0.956899,-1.23216 -0.956899,-1.44216 0,-0.21 -0.356275,-0.63189 -0.791722,-0.93751 -0.435447,-0.30563 -2.568543,-2.75643 -4.740213,-5.44623 -2.17167,-2.68979 -5.116695,-6.25381 -6.544502,-7.92006 -1.427808,-1.66624 -3.074457,-3.65207 -3.65923,-4.41294 -0.584774,-0.76086 -1.541672,-1.93095 -2.126445,-2.60017 -0.584773,-0.66922 -1.541672,-1.79867 -2.126436,-2.50989 -0.584773,-0.71122 -1.423246,-1.69543 -1.863263,-2.18715 -0.440026,-0.49171 -2.054656,-2.44769 -3.588062,-4.34666 -2.858591,-3.54004 -9.679022,-11.66575 -11.1582,-13.29362 -0.45501,-0.50077 -0.827302,-1.10677 -0.827302,-1.34668 0,-0.2399 -0.239222,-0.53995 -0.531603,-0.66674 -0.292393,-0.1268 1.190802,-0.11714 3.295981,0.0215 4.227725,0.27837 5.591697,0.77944 6.826946,2.50798 0.902641,1.26309 1.346692,1.80468 5.379167,6.56077 7.633866,9.00374 13.413386,16.00023 14.274273,17.27995 0.529699,0.78741 1.138791,1.43164 1.353529,1.43164 0.214738,0 0.500731,0.3349 0.63554,0.74422 0.13481,0.40931 1.152442,1.73889 2.26142,2.95464 1.108978,1.21572 2.623452,2.93804 3.365507,3.82737 1.820702,2.18203 12.610413,15.28903 14.070125,17.09194 0.641812,0.7927 1.454003,1.75738 1.804862,2.14372 0.35087,0.38635 1.387192,1.65145 2.30295,2.81134 0.915758,1.1599 1.881408,2.30028 2.145893,2.53417 0.264484,0.2339 1.808626,2.0519 3.431432,4.04 2.53735,3.10852 4.413915,5.37803 8.757236,10.59095 0.468565,0.56237 1.650937,2.04547 2.627498,3.29578 0.97656,1.25031 1.921615,2.27329 2.100132,2.27329 0.178507,0 0.324567,0.19137 0.324567,0.42526 0,0.45269 -0.973643,0.58572 -1.371935,0.18745 z"
       id="path22728" />
    <path
       style="fill:#3f67d1;fill-opacity:1;fill-rule:evenodd;stroke:#f4f0e8;stroke-width:0.425275"
       d="m 120.10865,253.65464 c -0.78589,-0.99755 -1.7638,-2.19983 -2.17314,-2.67173 -0.40934,-0.47191 -1.05642,-1.21802 -1.43797,-1.65802 -0.38155,-0.44 -1.94768,-2.35369 -3.48029,-4.25263 -1.5326,-1.89896 -5.09587,-6.18538 -7.91837,-9.52539 -2.82249,-3.34002 -5.680569,-6.84712 -6.35128,-7.79358 -0.670731,-0.94645 -1.484089,-1.82234 -1.807479,-1.94644 -0.323391,-0.12408 -0.587992,-0.48268 -0.587992,-0.79687 0,-0.31421 -0.26394,-0.7243 -0.586523,-0.91135 -0.322594,-0.18704 -2.364628,-2.54082 -4.537863,-5.23061 -2.173226,-2.68979 -6.119344,-7.47401 -8.769147,-10.63158 -2.649804,-3.15759 -5.344414,-6.37725 -5.988025,-7.15483 -0.643621,-0.77757 -1.471273,-1.7344 -1.839237,-2.12631 -0.367964,-0.39191 -2.281625,-2.72193 -4.252579,-5.17783 -3.158741,-3.93593 -9.550047,-11.61986 -12.474205,-14.99707 -2.097127,-2.42206 -1.969066,-2.56481 2.759614,-3.0761 l 2.375333,-0.25686 2.014963,2.46712 c 1.108229,1.35691 2.527265,3.10372 3.153413,3.88181 0.626147,0.77809 2.042383,2.40472 3.14718,3.61475 1.104796,1.21 2.013844,2.33581 2.020116,2.50177 0.0058,0.16596 0.460097,0.74006 1.008513,1.2758 0.548407,0.53572 2.54082,2.88772 4.427576,5.22668 3.336121,4.13568 10.995902,13.38752 12.146896,14.67159 0.634374,0.70772 2.215174,2.60744 17.516726,21.05055 5.82161,7.01685 12.55662,15.11698 14.96667,18.00031 2.41006,2.88332 4.38191,5.40538 4.38191,5.60459 0,0.1992 -1.10043,0.58029 -2.4454,0.84689 -1.34498,0.26659 -2.75931,0.57343 -3.14297,0.68188 -0.45155,0.12764 -1.20148,-0.44246 -2.12644,-1.61654 z"
       id="path22767" />
    <path
       style="fill:#3f67d1;fill-opacity:1;fill-rule:evenodd;stroke:#f4f0e8;stroke-width:0.425275"
       d="M 131.40305,224.29539 C 98.876205,185.14745 93.154843,178.25996 88.79754,173.00613 c -2.394412,-2.88707 -4.353482,-5.49791 -4.353482,-5.80188 0,-0.80305 1.00187,-1.0689 4.028059,-1.0689 h 2.68263 l 4.831459,5.84219 c 7.341684,8.87756 22.577924,27.19754 32.065484,38.55536 4.6696,5.59011 10.77381,12.9578 13.56491,16.37264 2.79109,3.41483 6.74364,8.20312 8.78342,10.6406 2.03979,2.43748 3.61155,4.68497 3.49281,4.9944 -0.11876,0.30944 -0.38859,0.4559 -0.59965,0.32547 -0.21104,-0.13043 -0.49811,0.061 -0.63792,0.42526 -0.13981,0.36433 -0.39654,0.57445 -0.57052,0.46693 -0.17398,-0.10751 -0.68021,0.1328 -1.12498,0.53402 -0.44477,0.40123 -1.11165,0.77841 -1.48197,0.83818 -0.43327,0.0699 -6.87645,-7.35721 -18.07474,-20.83501 z"
       id="path22806" />
    <path
       style="fill:#3f67d1;fill-opacity:1;fill-rule:evenodd;stroke:#f4f0e8;stroke-width:0.425275"
       d="m 169.6521,226.3837 c -0.66749,-0.77818 -1.78775,-2.14333 -2.48946,-3.03367 -0.70174,-0.89036 -1.61079,-1.92284 -2.02013,-2.2944 -0.40934,-0.37157 -0.74425,-0.83087 -0.74425,-1.02066 0,-0.1898 -0.5263,-0.87544 -1.16955,-1.52364 -0.64324,-0.6482 -1.74368,-1.90499 -2.4454,-2.79288 -0.70173,-0.88789 -1.49158,-1.84488 -1.75525,-2.12662 -0.26365,-0.28176 -2.52308,-2.98941 -5.02097,-6.017 -2.49788,-3.0276 -5.34424,-6.43713 -6.32524,-7.57673 -0.981,-1.13961 -1.86146,-2.28782 -1.95657,-2.55158 -0.095,-0.26376 -0.62141,-0.86839 -1.16955,-1.34365 -0.54812,-0.47523 -0.9966,-1.00794 -0.9966,-1.18379 0,-0.17586 -0.5263,-0.85547 -1.16953,-1.51024 -0.64326,-0.65477 -1.54899,-1.65301 -2.01275,-2.2183 -0.46375,-0.56529 -3.38252,-4.0897 -6.48616,-7.83203 -3.10365,-3.74231 -5.97767,-7.23153 -6.38672,-7.75381 -0.40904,-0.52229 -1.31787,-1.59454 -2.01959,-2.38278 -0.70173,-0.78824 -1.65863,-1.94451 -2.12645,-2.56948 -0.46781,-0.62496 -1.07325,-1.38835 -1.34543,-1.69642 -0.40089,-0.45375 0.17012,-0.67608 3.00674,-1.17072 l 3.5016,-0.61059 4.43581,5.25902 c 2.43969,2.89245 4.73765,5.57696 5.10658,5.96558 0.36892,0.38861 2.10805,2.52882 3.86472,4.75601 3.32494,4.2155 12.67615,15.37196 14.8432,17.70869 0.68628,0.74001 1.24779,1.54382 1.24779,1.78624 0,0.24241 0.26306,0.5938 0.58458,0.78084 0.32153,0.18704 1.79198,1.87102 3.26769,3.74218 1.4757,1.87117 5.05393,6.22091 7.95163,9.66609 5.32956,6.33656 5.50891,6.70444 3.85147,7.90015 -0.42366,0.30562 -0.77029,0.80223 -0.77029,1.10357 0,0.53116 -1.30881,1.95547 -1.7969,1.95547 -0.13279,0 -0.78754,-0.63668 -1.45502,-1.41485 z"
       id="path22845" />
    <path
       style="fill:#3f67d1;fill-opacity:1;fill-rule:evenodd;stroke:#f4f0e8;stroke-width:1.65306"
       d=""
       id="path22884"
       transform="scale(0.26458333)" />
    <path
       style="fill:#3f67d1;fill-opacity:1;fill-rule:evenodd;stroke:#f4f0e8;stroke-width:0.425275"
       d="m 185.30385,202.28862 c -0.28068,-0.28067 -0.51034,-0.71648 -0.51034,-0.96846 0,-0.25198 -0.5263,-0.96407 -1.16955,-1.58243 -1.90612,-1.83236 -3.04208,-3.21724 -2.82064,-3.43868 0.11406,-0.11406 -0.26868,-0.58181 -0.85053,-1.03948 -0.58186,-0.45766 -2.73157,-2.91943 -4.77716,-5.47059 -2.04558,-2.55116 -4.8809,-5.99953 -6.3007,-7.66304 -1.41981,-1.6635 -3.05991,-3.66058 -3.64469,-4.43796 -0.58477,-0.77736 -1.58951,-1.89887 -2.23275,-2.49225 -0.64326,-0.59337 -1.16955,-1.31888 -1.16955,-1.61224 0,-0.29337 -0.47845,-0.84686 -1.06322,-1.23 -0.58478,-0.38314 -1.06322,-0.95081 -1.06322,-1.26148 0,-0.31068 -0.37598,-0.8282 -0.83553,-1.15006 -0.45953,-0.32185 -2.02469,-2.10287 -3.47814,-3.9578 -1.45344,-1.85494 -3.374,-4.21287 -4.26794,-5.23986 -1.97477,-2.26872 -2.03743,-2.75612 -0.30544,-2.37574 0.72595,0.15944 2.39258,0.27708 3.70363,0.26142 2.71045,-0.0324 2.25267,-0.39318 6.96699,5.49106 1.78951,2.2336 5.18235,6.3024 7.53965,9.04181 2.3573,2.7394 4.28601,5.08102 4.28601,5.20359 0,0.24793 1.30347,1.76484 3.08333,3.58822 0.64325,0.65897 1.16954,1.30626 1.16954,1.4384 0,0.13216 0.65049,0.96437 1.44554,1.84939 0.79505,0.88501 3.2853,3.86299 5.5339,6.61773 3.61376,4.42721 4.05262,5.14302 3.7805,6.16633 -0.16932,0.63673 -0.3391,1.30123 -0.37728,1.47664 -0.0383,0.17543 -0.11726,0.41464 -0.17573,0.53159 -0.0585,0.11695 -0.13966,0.35615 -0.1804,0.53158 -0.50617,2.17972 -1.26053,2.74799 -2.28628,1.72231 z"
       id="path22923" />
    <path
       style="fill:#08080b;fill-opacity:1;fill-rule:evenodd;stroke:#f4f0e8;stroke-width:0.104805"
       d="m 47.055671,234.23657 c 0.294113,-0.0762 0.14747,-0.28641 -0.249957,-0.35825 -0.197167,-0.0357 -0.275958,-0.071 -0.175075,-0.0786 0.422621,-0.0318 0.100027,-0.32015 -0.375403,-0.33556 -0.219493,-0.007 -0.220095,-0.0103 -0.0176,-0.0939 0.189164,-0.0781 0.17383,-0.10253 -0.157213,-0.25054 -0.201757,-0.0903 -0.325686,-0.16586 -0.275395,-0.16812 0.192092,-0.009 -0.180608,-0.31891 -0.392486,-0.32677 -0.122645,-0.005 -0.164458,-0.0319 -0.09296,-0.0609 0.171049,-0.0692 -0.09558,-0.3501 -0.332201,-0.3501 -0.0948,0 -0.1647,-0.089 -0.1647,-0.20961 0,-0.13973 -0.06992,-0.2096 -0.209614,-0.2096 -0.139738,0 -0.209612,-0.0699 -0.209612,-0.2096 0,-0.13974 -0.06992,-0.20962 -0.209614,-0.20962 -0.139749,0 -0.209624,-0.0699 -0.209624,-0.2096 0,-0.13973 -0.06992,-0.2096 -0.209613,-0.2096 -0.139739,0 -0.209614,-0.0699 -0.209614,-0.2096 0,-0.13973 -0.06992,-0.2096 -0.209614,-0.2096 -0.12069,0 -0.209614,-0.0699 -0.209614,-0.16469 0,-0.23659 -0.281033,-0.50321 -0.35014,-0.33218 -0.02888,0.0716 -0.0563,0.0239 -0.06078,-0.10574 -0.0058,-0.16318 -0.07283,-0.23581 -0.21789,-0.23581 -0.12069,0 -0.209613,-0.0699 -0.209613,-0.16468 0,-0.2366 -0.281034,-0.50322 -0.350131,-0.33219 -0.02994,0.0741 -0.0561,0.0482 -0.06088,-0.0602 -0.0048,-0.10466 -0.06282,-0.29226 -0.129539,-0.41687 -0.118512,-0.22145 -0.123102,-0.22188 -0.202253,-0.0193 -0.07565,0.19368 -0.08148,0.1917 -0.08838,-0.0302 -0.0038,-0.13262 -0.215507,-0.45151 -0.479009,-0.72262 -0.259399,-0.26688 -0.471628,-0.52555 -0.471628,-0.57483 0,-0.0493 -0.0596,-0.0897 -0.132359,-0.0897 -0.07283,0 -0.180647,-0.10611 -0.23966,-0.23581 -0.05902,-0.12969 -0.164525,-0.22401 -0.234467,-0.2096 -0.06992,0.0144 -0.127176,-0.0246 -0.127176,-0.0868 0,-0.0622 -0.18865,-0.29426 -0.419227,-0.51579 -0.230578,-0.22152 -0.419228,-0.44963 -0.419228,-0.50689 0,-0.11669 -0.350033,-0.55454 -0.707457,-0.88494 -0.129704,-0.1199 -0.235819,-0.2511 -0.235819,-0.29157 0,-0.0405 -0.190691,-0.27956 -0.423768,-0.53131 -0.86572,-0.9351 -0.944531,-1.03414 -0.822887,-1.03414 0.06836,0 0.01138,-0.11386 -0.126738,-0.253 -0.138126,-0.13916 -0.388802,-0.42212 -0.557081,-0.62882 -0.168268,-0.20669 -0.356918,-0.37652 -0.419227,-0.37741 -0.06233,-7.7e-4 -0.180997,-0.0444 -0.263755,-0.0968 -0.121683,-0.077 -0.125358,-0.12547 -0.01916,-0.25339 0.107709,-0.12978 0.0915,-0.20178 -0.09024,-0.40099 -0.427356,-0.46851 -0.498184,-0.55918 -0.621743,-0.79596 -0.06855,-0.13131 -0.159935,-0.21689 -0.203146,-0.19019 -0.04318,0.0267 -0.135578,-0.0427 -0.205248,-0.15426 -0.08752,-0.14013 -0.09111,-0.20283 -0.01166,-0.20283 0.0632,0 -0.0068,-0.14509 -0.156329,-0.32244 -0.14923,-0.17734 -0.271339,-0.36599 -0.271339,-0.41921 0,-0.0531 -0.14149,-0.0968 -0.314416,-0.0968 -0.332706,0 -0.392555,-0.0896 -0.193103,-0.28901 0.09189,-0.0918 0.08654,-0.16323 -0.02208,-0.29414 -0.07886,-0.0951 -0.19354,-0.2739 -0.25477,-0.39744 -0.06428,-0.12962 -0.232202,-0.23866 -0.397126,-0.25779 -0.30966,-0.0359 -0.353893,-0.11883 -0.164456,-0.30824 0.09188,-0.0918 0.08654,-0.16325 -0.02208,-0.29414 -0.07886,-0.0951 -0.193542,-0.27391 -0.254771,-0.39745 -0.06428,-0.12963 -0.232202,-0.23865 -0.397116,-0.25779 -0.330091,-0.0383 -0.348409,-0.0907 -0.119893,-0.34325 0.152214,-0.16819 0.148889,-0.19243 -0.04036,-0.29369 -0.113436,-0.0607 -0.233417,-0.21774 -0.266603,-0.34896 -0.03442,-0.13606 -0.206852,-0.30289 -0.401336,-0.38828 -0.225065,-0.0989 -0.288803,-0.16695 -0.187522,-0.20042 0.0844,-0.0279 0.201864,-0.11633 0.261033,-0.19657 0.145797,-0.19775 0.461234,-0.0633 0.579114,0.2466 0.05182,0.13625 0.1661,0.24771 0.253992,0.24771 0.0879,0 0.1598,0.0723 0.1598,0.16049 0,0.0883 0.07078,0.18764 0.157212,0.22083 0.08644,0.0332 0.157213,0.11779 0.157213,0.18803 0,0.0702 0.117909,0.23849 0.262024,0.37386 0.144106,0.13538 0.262015,0.28871 0.262015,0.34074 0,0.052 0.140585,0.23517 0.312413,0.40698 0.171817,0.17181 0.307725,0.34504 0.302007,0.38495 -0.02917,0.20354 0.02908,0.26453 0.119233,0.12495 0.09024,-0.13955 0.101777,-0.13948 0.103207,7.8e-4 7.68e-4,0.0868 0.166674,0.30941 0.36843,0.49457 0.201758,0.18515 0.366826,0.3803 0.366826,0.43368 0,0.0534 0.117093,0.2081 0.260207,0.34385 0.143123,0.13573 0.261022,0.30408 0.262024,0.37411 9.72e-4,0.07 0.09616,0.1778 0.211422,0.23949 0.115294,0.0618 0.209614,0.18126 0.209614,0.2657 0,0.0844 0.07516,0.15351 0.167024,0.15351 0.09189,0 0.191692,0.0943 0.221846,0.20961 0.03014,0.11529 0.11858,0.2096 0.196516,0.2096 0.07788,0 0.117948,0.0619 0.08888,0.13753 -0.02918,0.0759 0.06632,0.20125 0.21291,0.27971 0.146127,0.0782 0.265679,0.19765 0.265679,0.26543 0,0.0678 0.09656,0.21061 0.214506,0.31737 0.117977,0.10676 0.288229,0.34946 0.378328,0.53933 0.09014,0.18986 0.201223,0.3221 0.246924,0.29386 0.0457,-0.0282 0.133633,0.0936 0.195398,0.27078 0.06174,0.17719 0.160694,0.29225 0.219833,0.25571 0.05912,-0.0365 0.107515,-0.0165 0.107515,0.0445 0,0.0611 0.07078,0.11099 0.157213,0.11099 0.08644,0 0.151621,0.0354 0.144795,0.0786 -0.03422,0.21711 0.0282,0.34061 0.172216,0.34061 0.0879,0 0.200396,0.10611 0.249997,0.23581 0.0496,0.12968 0.189923,0.32564 0.311829,0.43544 0.121905,0.1098 0.221642,0.26308 0.221642,0.34061 0,0.0775 0.04716,0.14096 0.104811,0.14096 0.05766,0 0.09306,0.0589 0.07856,0.131 -0.01438,0.072 0.03278,0.11922 0.104803,0.1048 0.07206,-0.0144 0.131017,0.0291 0.131017,0.0965 0,0.0676 0.259399,0.37202 0.57644,0.67663 0.317041,0.30461 0.57644,0.59484 0.57644,0.64496 0,0.0501 0.117909,0.20188 0.262024,0.33725 0.144106,0.13538 0.262015,0.30866 0.262015,0.38507 0,0.0764 0.04716,0.13893 0.104811,0.13893 0.05766,0 0.09306,0.0589 0.07856,0.13101 -0.01438,0.0721 0.0319,0.11949 0.102965,0.10542 0.07108,-0.0141 0.159109,0.0937 0.19569,0.23946 0.03656,0.14578 0.202496,0.33536 0.368673,0.42128 0.166178,0.0859 0.302144,0.22577 0.302144,0.31075 0,0.085 0.09432,0.15451 0.209614,0.15451 0.133069,0 0.209614,0.0699 0.209614,0.19133 0,0.10523 0.117909,0.30211 0.262024,0.43748 0.144106,0.13538 0.262015,0.30867 0.262015,0.38508 0,0.0764 0.08256,0.14265 0.183418,0.1472 0.109567,0.005 0.130667,0.0296 0.05241,0.0612 -0.172109,0.0694 -0.168764,0.245 0.0048,0.245 0.07458,0 0.315515,0.2358 0.535319,0.524 0.231415,0.30344 0.483122,0.52401 0.597978,0.52401 0.126534,0 0.198334,0.0737 0.198334,0.20366 0,0.11202 0.09944,0.2733 0.220981,0.35843 0.121537,0.0851 0.191489,0.20248 0.155463,0.26077 -0.03608,0.0583 0.02926,0.17243 0.145174,0.25359 0.115887,0.0812 0.181327,0.17695 0.145427,0.21284 -0.03588,0.0358 0.0601,0.12239 0.21326,0.19219 0.18127,0.0825 0.235674,0.1534 0.155794,0.20276 -0.07954,0.0491 0.01128,0.1627 0.257746,0.32243 0.209263,0.13562 0.381071,0.30552 0.38179,0.37757 7.68e-4,0.0721 0.07322,0.13101 0.161103,0.13101 0.0879,0 0.200881,0.10804 0.251095,0.24011 0.05018,0.13205 0.169192,0.30475 0.264387,0.38375 0.122227,0.10143 0.137726,0.1655 0.0527,0.21802 -0.07478,0.0462 0.002,0.1287 0.203712,0.21782 0.268947,0.11903 0.293023,0.15573 0.141596,0.2157 -0.100359,0.0398 -0.323955,0.0701 -0.496891,0.0675 -0.178322,-0.003 -0.232522,-0.026 -0.125211,-0.0538 z M 31.512106,214.71201 c 0,-0.0577 -0.04998,-0.10481 -0.110987,-0.10481 -0.06106,0 -0.08188,0.0472 -0.04618,0.10481 0.03558,0.0577 0.08557,0.1048 0.110995,0.1048 0.02538,0 0.04618,-0.0471 0.04618,-0.1048 z"
       id="path29746" />
  </g>
</svg>
