<?xml version="1.0" encoding="UTF-8" standalone="no"?>
<!-- Created with Inkscape (http://www.inkscape.org/) -->

<svg
   version="1.1"
   id="svg2"
   width="666.02667"
   height="174.8"
   viewBox="0 0 666.02667 174.8"
   sodipodi:docname="European_Commission_Logo.svg"
   inkscape:version="1.1.1 (c3084ef, 2021-09-22)"
   xmlns:inkscape="http://www.inkscape.org/namespaces/inkscape"
   xmlns:sodipodi="http://sodipodi.sourceforge.net/DTD/sodipodi-0.dtd"
   xmlns="http://www.w3.org/2000/svg"
   xmlns:svg="http://www.w3.org/2000/svg">
  <defs
     id="defs6" />
  <sodipodi:namedview
     id="namedview4"
     pagecolor="#ffffff"
     bordercolor="#000000"
     borderopacity="0.25"
     inkscape:showpageshadow="2"
     inkscape:pageopacity="0.0"
     inkscape:pagecheckerboard="0"
     inkscape:deskcolor="#d1d1d1"
     inkscape:pageshadow="2"
     showgrid="false"
     inkscape:zoom="0.80338967"
     inkscape:cx="237.1203"
     inkscape:cy="0.62236299"
     inkscape:window-width="1312"
     inkscape:window-height="847"
     inkscape:window-x="0"
     inkscape:window-y="25"
     inkscape:window-maximized="0"
     inkscape:current-layer="g8" />
  <g
     id="g8"
     inkscape:groupmode="layer"
     inkscape:label="ink_ext_XXXXXX"
     transform="matrix(1.3333333,0,0,-1.3333333,0,174.8)">
    <g
       id="g10"
       transform="scale(0.1)">
      <path
         d="m 2824.39,648.105 c 0,4.93 2.28,7.598 7.6,7.598 h 139.82 c 4.56,0 7.22,-2.668 7.22,-7.219 v -23.562 c 0,-4.563 -1.91,-6.836 -7.6,-6.836 h -103.72 v -65.352 h 91.94 c 4.94,0 7.6,-2.273 7.6,-6.836 v -23.554 c 0,-4.563 -1.9,-6.844 -7.6,-6.844 h -91.94 v -74.848 h 106.39 c 4.55,0 6.83,-2.285 6.83,-7.214 v -23.184 c 0,-4.934 -1.9,-6.836 -7.22,-6.836 h -141.72 c -5.32,0 -7.6,2.273 -7.6,6.836 v 237.851"
         style="fill:#5a5758;fill-opacity:1;fill-rule:nonzero;stroke:none"
         id="path12" />
      <path
         d="m 3172.46,403.418 h -26.99 c -5.69,0 -7.21,2.656 -7.21,7.219 v 11.773 l -0.76,0.383 C 3122.68,412.539 3096.84,400 3073.67,400 c -51.29,0 -56.23,30.391 -56.23,70.293 v 111.699 c 0,4.563 1.89,7.598 7.21,7.598 h 27.74 c 4.94,0 6.84,-2.656 6.84,-7.598 V 475.227 c 0,-22.793 4.55,-37.239 27.74,-37.239 16.33,0 41.4,12.157 51.29,17.102 v 126.902 c 0,4.563 1.52,7.598 7.21,7.598 h 26.99 c 5.31,0 7.2,-2.656 7.2,-7.598 V 410.637 c 0,-4.946 -1.89,-7.219 -7.2,-7.219"
         style="fill:#5a5758;fill-opacity:1;fill-rule:nonzero;stroke:none"
         id="path14" />
      <path
         d="m 3268.98,410.637 c 0,-4.563 -1.9,-7.219 -7.22,-7.219 h -27.35 c -5.31,0 -7.22,2.273 -7.22,7.219 v 171.355 c 0,4.942 1.91,7.598 7.22,7.598 h 26.97 c 5.7,0 7.6,-3.035 7.6,-7.598 v -16.719 l 0.76,-0.761 c 11.41,10.644 38.38,23.554 56.23,26.98 4.94,1.137 8.36,0 9.12,-6.465 l 2.66,-25.457 c 0.39,-5.312 0.76,-7.597 -7.22,-9.109 -21.28,-4.184 -48.25,-11.777 -61.55,-17.484 v -122.34"
         style="fill:#5a5758;fill-opacity:1;fill-rule:nonzero;stroke:none"
         id="path16" />
      <path
         d="m 3436.56,556.914 c -32.3,0 -39.51,-20.519 -39.51,-60.027 0,-40.278 7.21,-60.032 39.14,-60.032 34.57,0 41.4,19.375 41.4,60.032 0,40.269 -6.45,60.027 -41.03,60.027 z m -0.37,-156.531 c -76.38,0 -81.31,55.847 -81.31,99.16 0,35.711 7.97,93.848 81.31,93.848 73.7,0 83.96,-49.016 83.96,-93.848 0,-43.313 -5.32,-99.16 -83.96,-99.16"
         style="fill:#5a5758;fill-opacity:1;fill-rule:nonzero;stroke:none"
         id="path18" />
      <path
         d="m 3648.97,554.641 c -15.58,0 -39.51,-11.028 -50.91,-17.102 v -94.988 c 17.1,-4.934 30.77,-6.457 43.69,-6.457 27.36,0 36.86,14.051 36.86,61.933 0,48.25 -9.5,56.614 -29.64,56.614 z M 3645.93,400 c -12.54,0 -30.02,2.273 -47.49,8.359 l -0.38,-0.382 v -66.875 c 0,-4.176 -1.14,-7.594 -7.22,-7.594 h -26.98 c -6.07,0 -7.21,2.664 -7.21,7.594 v 240.89 c 0,4.942 1.9,7.598 7.21,7.598 h 26.98 c 5.32,0 6.84,-3.035 6.84,-7.598 v -11.394 l 1.14,-0.762 c 13.68,9.5 37.99,22.793 60.03,22.793 49.78,0 62.69,-37.609 62.69,-94.984 0,-61.93 -15.58,-97.645 -75.61,-97.645"
         style="fill:#5a5758;fill-opacity:1;fill-rule:nonzero;stroke:none"
         id="path20" />
      <path
         d="m 3794.9,513.602 h 75.23 c 0,23.175 -6.08,45.597 -37.62,45.597 -28.11,0 -35.71,-17.097 -37.61,-45.597 z m -0.38,-28.497 c 1.14,-38.378 14.82,-49.011 45.97,-49.011 13.68,0 34.95,2.656 49.4,4.179 6.83,0.762 9.11,0.762 10.25,-6.464 l 2.29,-12.532 c 1.13,-5.703 0.38,-8.738 -6.47,-11.785 -14.81,-5.691 -42.55,-9.492 -61.17,-9.492 -72.57,0 -83.2,46.348 -83.2,95.742 0,36.856 6.83,97.649 80.92,97.649 68.01,0 80.17,-44.075 81.31,-85.11 0.38,-13.672 -3.41,-23.176 -18.62,-23.176 h -100.68"
         style="fill:#5a5758;fill-opacity:1;fill-rule:nonzero;stroke:none"
         id="path22" />
      <path
         d="m 4063.55,488.145 h -46.36 c -18.99,0 -31.15,-6.836 -31.15,-31.915 0,-16.718 5.69,-22.042 23.55,-22.042 16.34,0 39.52,9.503 53.96,17.863 z m 2.28,-63.067 c -19,-14.441 -44.46,-24.695 -69.92,-24.695 -40.27,0 -52.05,22.027 -52.05,53.941 -0.38,44.453 23.56,63.457 71.43,63.457 h 48.63 v 9.875 c 0,22.805 -8.36,30.782 -39.51,30.782 -12.54,0 -36.48,-1.907 -51.67,-3.418 -7.6,-1.141 -9.5,-0.762 -10.64,4.55 l -3.42,14.063 c -0.76,4.941 0.38,7.976 8.74,11.394 16.33,5.703 46.35,8.364 64.21,8.364 65.73,0 73.71,-26.973 73.71,-69.536 v -73.328 c 0,-15.578 1.9,-15.957 13.68,-17.468 5.69,-0.383 7.22,-1.528 7.22,-5.707 v -15.957 c 0,-4.176 -2.66,-6.832 -9.13,-7.977 -6.07,-1.145 -12.15,-1.902 -17.85,-1.902 -17.86,0 -28.87,5.32 -32.67,23.179 l -0.76,0.383"
         style="fill:#5a5758;fill-opacity:1;fill-rule:nonzero;stroke:none"
         id="path24" />
      <path
         d="m 4307.11,403.418 h -27.35 c -4.94,0 -7.22,2.273 -7.22,7.219 l 0.38,106.765 c 0,22.411 -5.32,37.239 -27.36,37.239 -15.19,0 -41.79,-12.161 -52.05,-17.102 V 410.637 c 0,-4.563 -1.89,-7.219 -7.22,-7.219 h -26.97 c -5.32,0 -7.23,2.273 -7.23,7.219 v 171.355 c 0,4.942 1.91,7.598 7.23,7.598 h 26.97 c 5.33,0 7.22,-2.656 7.22,-7.598 v -11.394 c 0.38,0 0.76,-0.383 1.14,-0.383 14.06,9.875 40.66,22.793 63.83,22.793 51.29,0 55.85,-33.809 55.85,-72.188 V 410.637 c 0,-4.563 -1.51,-7.219 -7.22,-7.219"
         style="fill:#5a5758;fill-opacity:1;fill-rule:nonzero;stroke:none"
         id="path26" />
      <path
         d="m 2926.36,258.359 c 18.63,0 49.4,-2.66 69.53,-11.019 6.08,-2.66 8.36,-5.699 7.23,-11.77 l -3.42,-15.582 c -1.15,-4.558 -3.04,-6.457 -9.88,-5.699 -18.61,2.27 -41.42,4.941 -61.17,4.941 -51.68,0 -59.28,-41.8 -59.28,-91.191 0,-49.7695 9.5,-88.9101 59.28,-88.9101 22.03,0 40.65,2.293 61.17,4.9414 7.22,0.7617 8.73,-1.1406 10.25,-6.082 l 3.05,-14.4375 c 1.51,-6.0703 -0.39,-9.5 -6.46,-12.1524 C 2978.04,3.42188 2944.99,0 2926.36,0 c -84.72,0 -102.58,62.6914 -102.58,127.281 0,64.969 15.96,131.078 102.58,131.078"
         style="fill:#5a5758;fill-opacity:1;fill-rule:nonzero;stroke:none"
         id="path28" />
      <path
         d="m 3112.18,156.91 c -32.28,0 -39.51,-20.512 -39.51,-60.0311 0,-40.2695 7.23,-60.0195 39.14,-60.0195 34.57,0 41.41,19.3711 41.41,60.0195 0,40.2811 -6.46,60.0311 -41.04,60.0311 z M 3111.81,0.378906 c -76.37,0 -81.31,55.851594 -81.31,99.160194 0,35.7109 7.98,93.8519 81.31,93.8519 73.71,0 83.97,-49.02 83.97,-93.8519 0,-43.3086 -5.32,-99.160194 -83.97,-99.160194"
         style="fill:#5a5758;fill-opacity:1;fill-rule:nonzero;stroke:none"
         id="path30" />
      <path
         d="m 3498.24,3.42188 h -27.36 c -5.31,0 -7.21,2.26953 -7.21,7.20702 V 118.539 c 0,28.121 -6.84,36.102 -25.84,36.102 -14.06,0 -36.86,-11.032 -48.64,-17.102 0,-3.801 0.39,-10.641 0.39,-19.379 V 10.6289 c 0,-4.55859 -1.52,-7.20702 -7.22,-7.20702 h -27.74 c -4.94,0 -6.46,2.26953 -6.46,7.20702 V 120.441 c 0,23.168 -6.08,34.2 -25.08,34.2 -13.29,0 -34.57,-9.5 -49,-17.102 V 10.6289 c 0,-4.55859 -1.9,-7.20702 -7.23,-7.20702 h -27.34 c -4.94,0 -6.85,2.26953 -6.85,7.20702 V 181.988 c 0,4.942 1.91,7.602 6.85,7.602 h 26.97 c 5.7,0 7.6,-3.039 7.6,-7.602 V 170.98 l 0.37,-0.378 c 14.82,10.25 35.72,21.648 56.62,22.41 22.03,0 40.27,-4.563 52.05,-26.59 18.99,14.047 42.56,26.59 66.88,26.59 50.14,0 55.08,-32.68 55.08,-70.672 V 10.6289 c 0,-4.55859 -1.52,-7.20702 -6.84,-7.20702"
         style="fill:#5a5758;fill-opacity:1;fill-rule:nonzero;stroke:none"
         id="path32" />
      <path
         d="M 3811.36,3.42188 H 3784 c -5.31,0 -7.22,2.26953 -7.22,7.20702 V 118.539 c 0,28.121 -6.83,36.102 -25.84,36.102 -14.05,0 -36.84,-11.032 -48.63,-17.102 0,-3.801 0.38,-10.641 0.38,-19.379 V 10.6289 c 0,-4.55859 -1.51,-7.20702 -7.22,-7.20702 h -27.73 c -4.94,0 -6.46,2.26953 -6.46,7.20702 V 120.441 c 0,23.168 -6.08,34.2 -25.07,34.2 -13.3,0 -34.58,-9.5 -49.02,-17.102 V 10.6289 c 0,-4.55859 -1.9,-7.20702 -7.21,-7.20702 h -27.37 c -4.93,0 -6.83,2.26953 -6.83,7.20702 V 181.988 c 0,4.942 1.9,7.602 6.83,7.602 h 26.98 c 5.7,0 7.6,-3.039 7.6,-7.602 V 170.98 l 0.38,-0.378 c 14.82,10.25 35.72,21.648 56.61,22.41 22.04,0 40.28,-4.563 52.06,-26.59 18.99,14.047 42.54,26.59 66.86,26.59 50.16,0 55.1,-32.68 55.1,-70.672 V 10.6289 c 0,-4.55859 -1.53,-7.20702 -6.84,-7.20702"
         style="fill:#5a5758;fill-opacity:1;fill-rule:nonzero;stroke:none"
         id="path34" />
      <path
         d="m 3906,10.6289 c 0,-4.16796 -1.51,-7.20702 -6.83,-7.20702 h -26.98 c -5.32,0 -7.6,2.26953 -7.6,7.20702 V 182.371 c 0,5.328 2.28,7.219 7.6,7.219 h 26.98 c 5.32,0 6.83,-3.039 6.83,-7.219 z m -20.14,206.3121 c -19.75,0 -22.41,11.028 -22.41,22.039 0,12.161 4.18,21.661 22.41,21.661 18.63,0 22.43,-8.743 22.43,-21.661 0,-11.769 -3.42,-22.039 -22.43,-22.039"
         style="fill:#5a5758;fill-opacity:1;fill-rule:nonzero;stroke:none"
         id="path36" />
      <path
         d="m 4015.44,0.378906 c -19,0 -44.45,2.660154 -58.89,8.359374 -7.6,3.04302 -9.12,6.46092 -7.98,12.54302 l 2.66,12.5273 c 1.14,6.082 3.79,6.4609 9.88,5.7031 16.72,-2.6523 41.03,-4.5625 53.95,-4.5625 24.32,0 34.19,6.4727 34.19,21.6602 0,17.4804 -6.45,21.2812 -30.39,24.6992 -37.23,5.3125 -69.91,13.3008 -69.91,54.7114 0,37.609 28.88,57.371 71.43,57.371 15.57,0 41.79,-2.282 57.75,-8.36 6.45,-2.66 9.12,-5.691 7.98,-11.402 l -3.04,-13.68 c -1.14,-5.308 -3.42,-6.07 -10.26,-5.308 -16.34,1.89 -37.61,4.179 -51.67,4.179 -24.32,0 -30.01,-6.851 -30.01,-21.281 0,-14.82 9.11,-16.719 32.29,-20.519 36.1,-5.321 68.77,-12.54 68.77,-57.7505 0,-44.4609 -37.61,-58.890594 -76.75,-58.890594"
         style="fill:#5a5758;fill-opacity:1;fill-rule:nonzero;stroke:none"
         id="path38" />
      <path
         d="m 4189.87,0.378906 c -19.01,0 -44.45,2.660154 -58.9,8.359374 -7.6,3.04302 -9.12,6.46092 -7.98,12.54302 l 2.66,12.5273 c 1.14,6.082 3.8,6.4609 9.88,5.7031 16.72,-2.6523 41.04,-4.5625 53.96,-4.5625 24.31,0 34.19,6.4727 34.19,21.6602 0,17.4804 -6.46,21.2812 -30.39,24.6992 -37.24,5.3125 -69.92,13.3008 -69.92,54.7114 0,37.609 28.88,57.371 71.43,57.371 15.59,0 41.8,-2.282 57.75,-8.36 6.47,-2.66 9.12,-5.691 7.98,-11.402 l -3.03,-13.68 c -1.15,-5.308 -3.42,-6.07 -10.27,-5.308 -16.34,1.89 -37.61,4.179 -51.67,4.179 -24.31,0 -30.01,-6.851 -30.01,-21.281 0,-14.82 9.11,-16.719 32.3,-20.519 36.09,-5.321 68.77,-12.54 68.77,-57.7505 0,-44.4609 -37.62,-58.890594 -76.75,-58.890594"
         style="fill:#5a5758;fill-opacity:1;fill-rule:nonzero;stroke:none"
         id="path40" />
      <path
         d="m 4348.71,10.6289 c 0,-4.16796 -1.52,-7.20702 -6.84,-7.20702 h -26.97 c -5.32,0 -7.6,2.26953 -7.6,7.20702 V 182.371 c 0,5.328 2.28,7.219 7.6,7.219 h 26.97 c 5.32,0 6.84,-3.039 6.84,-7.219 z m -20.14,206.3121 c -19.76,0 -22.41,11.028 -22.41,22.039 0,12.161 4.18,21.661 22.41,21.661 18.62,0 22.42,-8.743 22.42,-21.661 0,-11.769 -3.42,-22.039 -22.42,-22.039"
         style="fill:#5a5758;fill-opacity:1;fill-rule:nonzero;stroke:none"
         id="path42" />
      <path
         d="m 4473.73,156.91 c -32.3,0 -39.53,-20.512 -39.53,-60.0311 0,-40.2695 7.23,-60.0195 39.14,-60.0195 34.58,0 41.42,19.3711 41.42,60.0195 0,40.2811 -6.46,60.0311 -41.03,60.0311 z M 4473.34,0.378906 c -76.36,0 -81.3,55.851594 -81.3,99.160194 0,35.7109 7.97,93.8519 81.3,93.8519 73.72,0 83.97,-49.02 83.97,-93.8519 0,-43.3086 -5.32,-99.160194 -83.97,-99.160194"
         style="fill:#5a5758;fill-opacity:1;fill-rule:nonzero;stroke:none"
         id="path44" />
      <path
         d="m 4748.07,3.42188 h -27.35 c -4.94,0 -7.22,2.26953 -7.22,7.20702 l 0.38,106.7691 c 0,22.411 -5.32,37.243 -27.36,37.243 -15.2,0 -41.79,-12.161 -52.05,-17.102 V 10.6289 c 0,-4.55859 -1.9,-7.20702 -7.22,-7.20702 h -26.97 c -5.32,0 -7.23,2.26953 -7.23,7.20702 V 181.988 c 0,4.942 1.91,7.602 7.23,7.602 h 26.97 c 5.32,0 7.22,-2.66 7.22,-7.602 v -11.386 c 0.38,0 0.76,-0.391 1.14,-0.391 14.05,9.879 40.65,22.801 63.83,22.801 51.29,0 55.85,-33.813 55.85,-72.192 V 10.6289 c 0,-4.55859 -1.52,-7.20702 -7.22,-7.20702"
         style="fill:#5a5758;fill-opacity:1;fill-rule:nonzero;stroke:none"
         id="path46" />
      <path
         d="M 4995.19,3.46875 V 767.113 h -65.16 V 3.46875 h 65.16 v 0"
         style="fill:#254aa5;fill-opacity:1;fill-rule:nonzero;stroke:none"
         id="path48" />
      <path
         d="m 0,827.758 c 0,0 785.09,102.359 807.266,106.015 33.968,5.582 64.156,12.118 92.3,19.965 63.504,17.528 121.954,44.282 173.704,79.522 49.61,33.53 95.76,82.31 141.51,135.82 29.09,34.05 59.64,78.44 88.14,121.29 v 20.67 c -33.81,-50.43 -67.12,-93.88 -101.37,-132.25 -45.39,-50.91 -93.01,-92.56 -141.55,-123.81 -50.09,-32.51 -106.477,-56.777 -167.59,-72.136 -27.39,-6.953 -56.722,-12.59 -89.683,-17.219 -21.735,-3.074 -44.133,-5.445 -65.789,-7.742 C 728.285,956.965 0,879.121 0,879.121 v -51.363"
         style="fill:#bdbcbc;fill-opacity:1;fill-rule:nonzero;stroke:none"
         id="path50" />
      <path
         d="m 1052.84,960.406 c -49.14,-28.48 -105.902,-49.316 -168.684,-61.945 -26.82,-5.453 -56.047,-9.887 -89.383,-13.551 -19.57,-2.137 -39.293,-3.859 -59.043,-5.574 -10.656,-0.934 -21.312,-1.859 -31.929,-2.848 C 463.207,854.75 223.852,831.633 0,809.73 v -51.316 c 225.613,27.422 466.637,56.453 707.145,83.883 10.691,1.262 21.394,2.453 32.101,3.633 19.703,2.191 39.43,4.379 59.223,7.004 34.222,4.589 64.168,9.863 91.531,16.121 65.234,14.695 124.17,37.898 175.08,68.965 50.61,30.605 95.34,73.46 143.42,125.87 29.94,32.61 63.25,78.65 94.42,121.9 v 18.82 c -36.71,-50.19 -71.56,-92.35 -106.04,-128.32 -46.95,-49 -95.41,-87.977 -144.04,-115.884"
         style="fill:#bdbcbc;fill-opacity:1;fill-rule:nonzero;stroke:none"
         id="path52" />
      <path
         d="m 1190.24,972.977 c -47.91,-44.27 -97.92,-79.09 -148.67,-103.508 -49.621,-24.117 -105.148,-41.039 -169.785,-51.754 -26.668,-4.449 -55.668,-8.09 -88.605,-11.11 L 0,741.801 V 690.59 l 696.176,74.437 90.078,9.547 c 33.922,3.946 63.519,8.379 90.461,13.547 66.937,12.723 124.355,31.754 175.515,58.141 52.3,26.648 104.56,70.988 153.14,117.937 32.61,31.485 64,72.141 97.55,114.791 v 17.06 c -38.75,-48.53 -75.75,-88.98 -112.68,-123.073"
         style="fill:#bdbcbc;fill-opacity:1;fill-rule:nonzero;stroke:none"
         id="path54" />
      <path
         d="m 1000.85,707.063 c -45.584,-25.708 -79.682,-40.516 -144.795,-47.36 -39.352,-4.269 -79.801,-6.305 -118.926,-8.265 -18.938,-0.954 -37.895,-1.903 -56.813,-3.102 -118.32,-6.816 -234.511,-14.371 -353.05,-22.16 L 0,603.969 V 552.77 l 330.531,30.558 c 106.809,9.656 230.922,20.789 352.09,30.75 l 88.078,6.867 c 34.383,2.668 62.582,5.496 88.703,8.93 67,8.711 124.235,22.348 174.948,41.656 54.6,20.586 106.09,52.532 157.66,90.086 46.5,33.856 110.84,100.629 110.91,101.504 v 18.09 c -42.07,-41.352 -66.29,-64.574 -112.33,-95.148 -55.03,-36.532 -148.86,-55.961 -189.74,-79"
         style="fill:#bdbcbc;fill-opacity:1;fill-rule:nonzero;stroke:none"
         id="path56" />
      <path
         d="M 1017.5,609.746 C 968.098,595.156 912.48,585.273 847.488,579.547 821.16,577.25 792.766,575.488 760.66,574.184 l -87.601,-3.871 C 455.387,560.121 238.777,548.727 0,535.996 v -51.078 c 228.082,17.793 451.605,35.102 675.035,51.121 l 87.344,6.012 c 33.715,2.226 61.664,4.652 87.965,7.637 66.629,7.507 123.617,19.097 174.196,35.41 56.06,17.89 110.69,43.832 162.39,77.093 38.19,24.497 76.37,53.7 115.99,88.547 v 0.895 c -43.66,-37.555 -85.27,-45.887 -126.74,-71.121 -50.77,-30.996 -104.16,-54.805 -158.68,-70.766"
         style="fill:#bdbcbc;fill-opacity:1;fill-rule:nonzero;stroke:none"
         id="path58" />
      <path
         d="M 1009.43,524.906 C 959.664,513.184 905.738,505.645 839.691,501.191 814.215,499.469 786.84,498.18 753.492,497.133 l -86.758,-3.11 C 448.129,485.691 226.477,476.117 0,466.215 v -51.047 c 225.016,15.469 445.77,30.52 668.438,44.562 L 755,464.957 c 33.941,1.945 61.598,3.938 87.012,6.273 67.269,6.25 122.308,15.364 173.198,28.645 57.1,14.82 112.6,36.551 164.98,64.578 40.49,21.633 80.88,47.637 122.73,78.945 v 21.836 c -45.23,-32.929 -88.62,-59.757 -132.06,-81.64 -51.42,-25.942 -105.72,-45.68 -161.43,-58.688"
         style="fill:#bdbcbc;fill-opacity:1;fill-rule:nonzero;stroke:none"
         id="path60" />
      <path
         d="m 1002.02,441.723 c -49.934,-9.211 -103.707,-15.09 -169.262,-18.508 -24.66,-1.274 -51.043,-2.192 -85.567,-2.988 L 0,399.836 V 348.84 l 662.59,34.844 85.832,4.39 c 33.496,1.582 60.898,3.227 86.234,5.196 66.453,5.121 121.121,12.484 172.024,23.207 57.79,12.086 113.87,29.734 166.69,52.418 42.54,18.175 85.17,40.355 129.55,67.32 v 20.496 c -47.43,-27.793 -92.51,-50.109 -137.28,-67.949 -52.1,-20.871 -107.14,-36.684 -163.62,-47.039"
         style="fill:#bdbcbc;fill-opacity:1;fill-rule:nonzero;stroke:none"
         id="path62" />
      <path
         d="m 996.152,358.191 c -91.683,-12.324 -186.07,-13.75 -277.347,-15.117 -20.922,-0.293 -41.852,-0.625 -62.75,-1.054 L 0,330.105 v -50.933 l 657.188,28.539 c 20.839,0.949 41.707,1.789 62.593,2.629 91.922,3.715 186.981,7.519 279.899,22.402 58.83,9.336 115.44,23.164 168.25,41.059 43.75,14.762 89.08,33.867 134.99,56.441 v 19.547 c -48.25,-22.648 -95.7,-41.461 -141.25,-55.562 -52.21,-16.25 -107.89,-28.375 -165.518,-36.036"
         style="fill:#bdbcbc;fill-opacity:1;fill-rule:nonzero;stroke:none"
         id="path64" />
      <path
         d="m 990.941,274.129 c -85.906,-7.149 -173.824,-7.168 -258.855,-7.168 -26.449,0 -52.902,0 -79.352,-0.211 C 435.395,265.789 219.773,263.988 0,262.078 v -50.957 c 209.324,7.168 431.402,14.649 653.473,21.289 26.355,0.879 52.726,1.559 79.129,2.25 85.488,2.172 173.886,4.43 260.675,13.879 60.643,6.551 115.803,16.16 168.653,29.34 46.1,11.41 93.44,26.641 140.99,44.941 v 18.711 c -49.08,-17.754 -97.99,-32.242 -145.62,-42.793 -52.34,-11.636 -106.77,-19.687 -166.359,-24.609"
         style="fill:#bdbcbc;fill-opacity:1;fill-rule:nonzero;stroke:none"
         id="path66" />
      <path
         d="m 987.621,191.262 c -35.789,-1.43 -74.547,-2.114 -118.504,-2.114 -16.613,0 -33.222,0.102 -49.793,0.25 l -169.094,2.071 c -115.382,0.863 -230.324,1.062 -338.156,1.16 L 0,192.332 v -50.934 l 312.816,8.262 c 107.45,2.649 222.727,5.41 337.735,7.5 l 168.953,2.238 c 46.348,0.75 107.508,2.114 169.461,6.223 60.705,3.957 115.955,10.051 168.905,18.57 47.65,7.688 96.34,18.028 145.05,30.528 v 18.082 c -50.04,-11.641 -99.78,-20.922 -148.04,-27.422 -52.65,-7.109 -107.36,-11.719 -167.259,-14.117"
         style="fill:#bdbcbc;fill-opacity:1;fill-rule:nonzero;stroke:none"
         id="path68" />
      <path
         d="M 817.359,111.18 648.844,113 C 433.867,116.039 219.086,120.012 0,124.129 V 73.1719 c 209.125,1.4062 430.613,3.0078 649,5.4883 l 168.602,2.5195 c 56.812,0.9805 112.453,2.0117 168.711,3.9101 115.847,3.75 219.627,11.9493 316.607,24.8792 v 17.722 c -97.35,-10.55 -201.28,-16.121 -317.197,-16.882 -56.09,-0.508 -112.227,-0.098 -168.364,0.371"
         style="fill:#bdbcbc;fill-opacity:1;fill-rule:nonzero;stroke:none"
         id="path70" />
      <path
         d="M 1302.92,21.1016 0,54.3789 V 3.46875 H 1302.92 V 21.1016"
         style="fill:#bdbcbc;fill-opacity:1;fill-rule:nonzero;stroke:none"
         id="path72" />
      <path
         d="m 1185.6,876.754 c -49.49,-40.059 -87.72,-68.527 -148.3,-92.785 -52.749,-21.121 -109.413,-29.774 -174.152,-38.664 -41.656,-5.879 -85.195,-14.582 -126.785,-17.371 -17.101,-1.157 -34.215,-2.297 -51.273,-3.649 L 0,673.977 v -51.125 l 687.855,67.211 89.18,8.429 c 33.082,3.149 62.445,6.821 89.778,11.258 66.656,10.785 124.101,27.258 175.577,50.348 53.42,23.742 107.47,62.617 157.7,105.207 34.18,28.914 67.05,65.308 102.83,105.05 v 18.321 c -43.28,-45.078 -79.15,-81.094 -117.32,-111.922"
         style="fill:#bdbcbc;fill-opacity:1;fill-rule:nonzero;stroke:none"
         id="path74" />
      <path
         d="m 1857.41,1311.04 c 0,0 234.49,-373.474 277.36,-441.946 42.87,-68.465 91.88,-122.629 265.37,-159.426 173.49,-36.785 249.02,-54.164 249.02,-54.164 v -13.285 c 0,0 -110.24,23.508 -252.09,55.187 -141.85,31.68 -199.84,42.34 -264.51,132.313 -53.81,74.886 -275.15,393.101 -275.15,393.101 v 88.22"
         style="fill:#bdbcbc;fill-opacity:1;fill-rule:nonzero;stroke:none"
         id="path76" />
      <path
         d="m 1857.41,884.535 c 0,0 213.45,-223.676 275.15,-287.89 65.48,-68.122 149.35,-93.317 265.6,-114.082 110.98,-19.809 250.94,-42.688 250.94,-42.688 v -12.602 c 0,0 -131.43,21.536 -250.94,41.989 -117.16,20.07 -199.18,31.265 -266.29,93.097 -60.1,55.371 -274.46,256.387 -274.46,256.387 v 65.789"
         style="fill:#bdbcbc;fill-opacity:1;fill-rule:nonzero;stroke:none"
         id="path78" />
      <path
         d="m 1857.41,783.754 c 0,0 203,-188.5 275.15,-252.895 66.42,-59.261 120.24,-77.691 266.31,-103.586 146.09,-25.894 250.23,-41.992 250.23,-41.992 V 371.98 c 0,0 -132.11,21.704 -250.94,40.61 -118.8,18.887 -194.52,26.351 -265.6,83.973 -82.03,66.535 -275.15,225.601 -275.15,225.601 v 61.59"
         style="fill:#bdbcbc;fill-opacity:1;fill-rule:nonzero;stroke:none"
         id="path80" />
      <path
         d="m 1857.41,676.316 c 0,0 231.89,-183.953 275.22,-216.148 43.33,-32.191 100.66,-69.746 267,-93.789 164.95,-23.828 249.53,-35.688 249.53,-35.688 v -14.003 c 0,0 -149.58,21.703 -249.53,34.296 -99.94,12.602 -176.59,17.954 -266.3,77.7 -87.33,58.136 -275.92,190.918 -275.92,190.918 v 56.714"
         style="fill:#bdbcbc;fill-opacity:1;fill-rule:nonzero;stroke:none"
         id="path82" />
      <path
         d="m 1857.41,573.035 c 0,0 232.58,-154.859 276.62,-179.351 44.04,-24.496 95.76,-64.399 265.6,-86.094 169.86,-21.699 249.53,-31.488 249.53,-31.488 v -13.301 c 0,0 -140.49,15.39 -250.23,27.289 -109.73,11.91 -184.51,28.008 -266.3,72.793 -81.79,44.785 -275.22,157.808 -275.22,157.808 v 52.344"
         style="fill:#bdbcbc;fill-opacity:1;fill-rule:nonzero;stroke:none"
         id="path84" />
      <path
         d="m 1857.41,469.758 c 0,0 205.58,-111.836 275.15,-146.758 77.6,-38.969 144.71,-57.621 266.31,-72.09 119.41,-14.219 250.23,-28.012 250.23,-28.012 v -12.597 c 0,0 -120.96,12.949 -250.23,25.199 -128.15,12.148 -173.79,17.73 -266.31,58.789 -82.73,36.719 -275.15,126.441 -275.15,126.441 v 49.028"
         style="fill:#bdbcbc;fill-opacity:1;fill-rule:nonzero;stroke:none"
         id="path86" />
      <path
         d="m 1857.41,365.066 c 0,0 162.46,-69.566 276.62,-114.855 112.3,-44.563 198.04,-48.313 266.3,-56 30.06,-3.383 248.83,-25.902 248.83,-25.902 V 155.73 c 0,0 -130.71,10.489 -249.53,20.981 -118.83,10.488 -170.07,14.937 -266.3,46.891 -97.37,32.328 -275.92,94.589 -275.92,94.589 v 46.875"
         style="fill:#bdbcbc;fill-opacity:1;fill-rule:nonzero;stroke:none"
         id="path88" />
      <path
         d="m 1857.41,258.352 c 0,0 164.02,-50.84 275.86,-80.231 111.83,-29.402 214.58,-41.312 266.3,-44.793 51.72,-3.519 249.59,-19.59 249.59,-19.59 v -11.906 c 0,0 -112.54,7.668 -250.29,17.5 -111.37,7.93 -200.83,16.316 -266.31,30.797 -72.56,16.012 -275.15,64.16 -275.15,64.16 v 44.063"
         style="fill:#bdbcbc;fill-opacity:1;fill-rule:nonzero;stroke:none"
         id="path90" />
      <path
         d="m 1857.41,153.352 c 0,0 134.14,-23.133 275.86,-46.622 106.24,-17.6206 250.23,-28.7105 265.6,-29.4214 15.39,-0.6797 250.23,-16.7891 250.23,-16.7891 V 47.9414 c 0,0 -150.32,7.7695 -250.23,13.2774 -104.08,5.7617 -207.54,12.0703 -266.31,18.2031 -131.62,13.7265 -275.15,31.8981 -275.15,31.8981 v 42.032"
         style="fill:#bdbcbc;fill-opacity:1;fill-rule:nonzero;stroke:none"
         id="path92" />
      <path
         d="m 1857.41,44.6797 c 0,0 211.56,-7.9492 275.86,-9.3594 64.3,-1.3789 515.83,-19.5898 515.83,-19.5898 V 3.46875 H 1857.41 V 44.6797"
         style="fill:#bdbcbc;fill-opacity:1;fill-rule:nonzero;stroke:none"
         id="path94" />
      <path
         d="m 2398.87,651.938 c -191.51,41.292 -234.84,111.285 -267,154.679 -32.16,43.403 -274.46,397.543 -274.46,397.543 v -79.92 c 9.55,-12.5 216.94,-283.998 275.15,-358.912 65.62,-84.422 168.46,-103.586 266.31,-124.586 97.84,-20.996 250.29,-50.269 250.29,-50.269 v 11.199 c 0,0 -200.84,39.605 -250.29,50.266"
         style="fill:#bdbcbc;fill-opacity:1;fill-rule:nonzero;stroke:none"
         id="path96" />
      <path
         d="m 2398.87,595.945 c -157.26,30.797 -220.87,80.493 -267,140.688 -46.13,60.187 -274.46,361.147 -274.46,361.147 v -75.67 c 9.55,-11.34 218.43,-259.098 274.46,-323.27 65.36,-74.863 156.57,-94.492 267,-114.785 110.44,-20.301 250.23,-46.891 250.23,-46.891 v 11.191 c 0,0 -159.55,29.833 -250.23,47.59"
         style="fill:#bdbcbc;fill-opacity:1;fill-rule:nonzero;stroke:none"
         id="path98" />
      <path
         d="m 2398.87,537.859 c -163.54,31.719 -197.09,57.856 -266.31,133.684 -43.51,47.66 -265.78,310.113 -275.15,321.184 v -69.922 c 0,0 207.7,-221.539 274.46,-286.961 87.62,-85.86 169.85,-92.387 267,-109.883 97.16,-17.492 250.23,-45.496 250.23,-45.496 v 11.898 c 0,0 -184.81,32.805 -250.23,45.496"
         style="fill:#bdbcbc;fill-opacity:1;fill-rule:nonzero;stroke:none"
         id="path100" />
      <path
         d="M 1683.06,3.46875 V 767.086 H 541.559 V 3.46875 H 1683.06 v 0"
         style="fill:#254aa5;fill-opacity:1;fill-rule:nonzero;stroke:none"
         id="path102" />
      <path
         d="m 1124.68,658.512 h 39.72 l -32.01,-24.938 12.44,-39.558 -31.89,24.367 -31.89,-24.367 12.57,39.558 -32.26,24.938 h 39.58 l 12,38.582 11.74,-38.582 v 0"
         style="fill:#fff200;fill-opacity:1;fill-rule:nonzero;stroke:none"
         id="path104" />
      <path
         d="m 1126.08,149.27 h 39.77 l -32.01,-24.051 12.44,-38.0198 -31.89,23.4298 -31.89,-23.4298 12.57,38.0198 -32.33,24.051 h 39.66 l 11.99,37.128 11.69,-37.128 v 0"
         style="fill:#fff200;fill-opacity:1;fill-rule:nonzero;stroke:none"
         id="path106" />
      <path
         d="m 1252.05,183 h 39.78 l -32.02,-23.988 12.45,-38.082 -31.89,23.492 -31.89,-23.492 12.56,38.082 -32.32,23.988 h 39.65 l 12,37.129 11.68,-37.129 v 0"
         style="fill:#fff200;fill-opacity:1;fill-rule:nonzero;stroke:none"
         id="path108" />
      <path
         d="m 1252.05,624.543 h 39.78 l -32.02,-23.996 12.45,-38.074 -31.89,23.457 -31.89,-23.457 12.56,38.074 -32.32,23.996 h 39.65 l 12,37.121 11.68,-37.121 v 0"
         style="fill:#fff200;fill-opacity:1;fill-rule:nonzero;stroke:none"
         id="path110" />
      <path
         d="m 1345.57,531.023 h 39.71 l -32.01,-23.96 12.44,-38.11 -31.89,23.457 -31.82,-23.457 12.56,38.11 -32.33,23.96 h 39.59 l 12,37.129 11.75,-37.129 v 0"
         style="fill:#fff200;fill-opacity:1;fill-rule:nonzero;stroke:none"
         id="path112" />
      <path
         d="m 1345.57,275.238 h 39.71 l -32.01,-24.058 12.44,-38.059 -31.89,23.488 -31.82,-23.488 12.56,38.059 -32.33,24.058 h 39.59 l 12,37.137 11.75,-37.137 v 0"
         style="fill:#fff200;fill-opacity:1;fill-rule:nonzero;stroke:none"
         id="path114" />
      <path
         d="m 1380.61,405.09 h 39.79 l -32.03,-24.004 12.44,-38.086 -31.89,23.492 -31.88,-23.492 12.56,38.086 -32.32,24.004 h 39.59 l 12.05,37.094 11.69,-37.094 v 0"
         style="fill:#fff200;fill-opacity:1;fill-rule:nonzero;stroke:none"
         id="path116" />
      <path
         d="m 996.254,624.227 h 39.716 l -32.01,-24.028 12.44,-38.074 -31.892,23.488 -31.891,-23.488 12.574,38.074 -32.269,24.028 h 39.594 l 11.992,37.125 11.746,-37.125 v 0"
         style="fill:#fff200;fill-opacity:1;fill-rule:nonzero;stroke:none"
         id="path118" />
      <path
         d="m 905.328,530.715 h 39.777 l -32.015,-23.996 12.379,-38.082 -31.824,23.465 -31.887,-23.465 12.535,38.082 -32.301,23.996 h 39.653 l 12,37.121 11.683,-37.121 v 0"
         style="fill:#fff200;fill-opacity:1;fill-rule:nonzero;stroke:none"
         id="path120" />
      <path
         d="m 871.578,404.773 h 39.75 l -32.015,-24.019 12.433,-38.066 -31.883,23.414 -31.89,-23.414 12.57,38.066 -32.273,24.019 h 39.597 l 11.996,37.09 11.715,-37.09 v 0"
         style="fill:#fff200;fill-opacity:1;fill-rule:nonzero;stroke:none"
         id="path122" />
      <path
         d="m 905.328,274.93 h 39.777 l -32.015,-24.059 12.379,-38.07 -31.824,23.48 -31.887,-23.48 12.535,38.07 -32.301,24.059 h 39.653 l 12,37.074 11.683,-37.074 v 0"
         style="fill:#fff200;fill-opacity:1;fill-rule:nonzero;stroke:none"
         id="path124" />
      <path
         d="m 997.582,182.691 h 39.708 l -32.01,-24.011 12.38,-38.059 -31.832,23.469 -31.883,-23.469 12.571,38.059 -32.27,24.011 h 39.594 l 11.988,37.118 11.754,-37.118 v 0"
         style="fill:#fff200;fill-opacity:1;fill-rule:nonzero;stroke:none"
         id="path126" />
    </g>
    <path
       style="fill:#f4f0e8;fill-rule:evenodd;stroke:#f4f0e8;stroke-width:0.5827"
       d="M 72.254862,123.24116 V 72.546212 h 76.042418 76.04241 V 123.24116 173.9361 H 148.29728 72.254862 Z m 74.333188,38.68042 2.00058,-1.52591 2.07772,1.58476 c 1.14275,0.87161 2.19265,1.46982 2.33312,1.32936 0.14047,-0.14047 -0.11221,-1.28137 -0.56151,-2.53533 l -0.8169,-2.27992 2.12566,-1.8719 2.12566,-1.8719 -2.74443,-0.0219 c -2.69103,-0.0215 -2.75803,-0.0672 -3.44277,-2.35269 -0.38407,-1.28194 -0.87753,-2.3308 -1.09655,-2.3308 -0.21903,0 -0.71248,1.04886 -1.09656,2.3308 -0.68473,2.28545 -0.75173,2.33123 -3.44276,2.35269 l -2.74444,0.0219 2.121,1.8719 c 2.07446,1.83082 2.1042,1.91665 1.35541,3.91135 -1.31199,3.49499 -1.13469,3.63115 1.80677,1.38759 z m -16.93719,-4.54686 1.7481,-1.40537 1.93205,1.46711 c 1.06263,0.80691 2.07207,1.3271 2.2432,1.15596 0.17114,-0.17113 -0.0101,-1.28446 -0.40267,-2.47406 -0.70208,-2.12734 -0.67667,-2.19472 1.54435,-4.09607 l 2.25818,-1.93316 -2.99433,-0.0219 c -2.94933,-0.0216 -3.00002,-0.0522 -3.3731,-2.04089 -0.5451,-2.90565 -1.33709,-3.02695 -2.14553,-0.32861 -0.7012,2.3404 -0.71249,2.34765 -3.67031,2.35629 l -2.96694,0.009 2.27816,1.92741 c 2.19128,1.85391 2.2524,2.00134 1.60243,3.86584 -1.18915,3.41118 -0.79249,3.72068 1.94641,1.51875 z m 33.81188,-0.0177 1.87335,-1.42888 1.93674,1.42888 c 2.66751,1.96803 2.95909,1.81133 1.94937,-1.04761 l -0.87464,-2.47647 2.18453,-1.74811 2.18453,-1.7481 -2.88646,-0.29135 c -2.77241,-0.27983 -2.90779,-0.37769 -3.42626,-2.47647 -0.69363,-2.80788 -1.29845,-2.76556 -2.08236,0.14567 -0.61319,2.2772 -0.6874,2.3308 -3.22731,2.3308 -1.42983,0 -2.5979,0.19666 -2.59571,0.43703 0.002,0.24036 0.90097,1.04781 1.9973,1.79433 l 1.9933,1.3573 -0.83189,2.35784 c -1.21569,3.44564 -1.0683,3.55709 1.80551,1.36514 z m -46.07059,-12.26038 1.7261,-1.41062 1.95405,1.49043 c 1.07473,0.81973 2.09407,1.3504 2.2652,1.17927 0.17114,-0.17114 -0.0142,-1.29706 -0.4119,-2.50205 -0.71419,-2.164 -0.69523,-2.21444 1.54435,-4.10927 l 2.26741,-1.91839 -3.00129,-0.009 c -2.98559,-0.009 -3.004,-0.0201 -3.51807,-2.1938 -0.63616,-2.68995 -1.46457,-2.65096 -2.17824,0.10251 -0.52929,2.04208 -0.59734,2.08279 -3.4962,2.09129 l -2.95641,0.009 2.27816,1.92742 c 2.19128,1.85391 2.25239,2.00134 1.60243,3.86584 -1.1873,3.40587 -0.79958,3.70351 1.92441,1.47738 z m 58.54562,0.0237 1.93673,-1.42888 1.97989,1.51014 c 1.08894,0.83057 2.10665,1.38336 2.2616,1.22842 0.15494,-0.15494 -0.0954,-1.35068 -0.5564,-2.65719 l -0.83812,-2.37547 1.99331,-1.3573 c 1.09633,-0.74652 1.99511,-1.55396 1.9973,-1.79433 0.002,-0.24036 -1.13448,-0.43702 -2.52594,-0.43702 -2.44672,0 -2.55288,-0.0767 -3.22824,-2.33081 -0.87293,-2.91355 -1.55365,-2.95832 -2.2149,-0.14567 -0.49383,2.10055 -0.6247,2.1964 -3.38137,2.47648 l -2.86765,0.29135 2.19613,1.75578 c 2.02243,1.61691 2.14703,1.88491 1.57538,3.38846 -0.59066,1.55355 -0.8252,3.30491 -0.4426,3.30491 0.098,0 1.04967,-0.64299 2.11488,-1.42887 z M 112.6202,127.90276 c 1.85603,-1.45995 2.23047,-1.45398 4.16335,0.0664 1.98874,1.56434 2.387,1.15035 1.49461,-1.55361 -0.6747,-2.04436 -0.62831,-2.21387 0.96165,-3.51429 0.9188,-0.75148 1.86721,-1.37575 2.10757,-1.38728 0.24036,-0.0115 0.43702,-0.2688 0.43702,-0.57173 0,-0.30292 -1.22348,-0.63069 -2.71886,-0.72837 -2.4709,-0.16141 -2.77646,-0.3465 -3.35052,-2.02956 -0.9587,-2.81075 -1.36893,-2.85951 -2.07258,-0.24632 -0.6313,2.34447 -0.69259,2.38962 -3.24315,2.38962 -3.10818,0 -3.28885,0.70294 -0.62884,2.44662 l 1.97085,1.29192 -0.80545,2.2829 c -0.443,1.25559 -0.80546,2.38103 -0.80546,2.50098 0,0.54897 1.13808,0.11596 2.48981,-0.94731 z m 67.41553,0.31392 c 1.26288,-1.52169 2.8474,-1.61908 4.71428,-0.28975 0.97969,0.6976 1.90006,1.14956 2.04527,1.00434 0.14521,-0.14521 -0.10267,-1.30333 -0.55084,-2.57359 l -0.81486,-2.30957 1.97404,-1.35264 c 1.08572,-0.74395 1.97404,-1.58105 1.97404,-1.86023 0,-0.27917 -1.16986,-0.50759 -2.59969,-0.50759 -2.55057,0 -2.61185,-0.0452 -3.24315,-2.38962 -0.70366,-2.61319 -1.11388,-2.56443 -2.07258,0.24632 -0.57406,1.68306 -0.87963,1.86815 -3.35053,2.02956 -1.49537,0.0977 -2.71707,0.35989 -2.71488,0.5827 0.002,0.2228 0.93696,1.04054 2.07727,1.81719 1.57797,1.07475 1.99573,1.70119 1.74867,2.62215 -0.17853,0.66553 -0.48835,1.80004 -0.68847,2.52113 -0.41171,1.48347 0.43626,1.74304 1.50143,0.4596 z m -60.87348,-18.37764 c 0.20301,0 1.31636,0.7211 2.47412,1.60243 l 2.10501,1.60243 -0.40981,-1.45675 c -1.18476,-4.2114 -1.1605,-4.336 1.16627,-5.99152 l 2.22567,-1.58359 h -2.77532 c -2.49917,0 -2.83279,-0.15945 -3.35283,-1.60243 -1.46925,-4.076879 -1.48054,-4.082967 -2.40535,-1.29775 -0.83586,2.51735 -0.96152,2.61905 -3.58373,2.90018 l -2.7175,0.29135 2.07213,1.4121 c 1.65381,1.12703 2.00567,1.68578 1.74295,2.76783 -0.18104,0.74565 -0.50509,2.07657 -0.7201,2.9576 l -0.39095,1.60187 2.10017,-1.60187 c 1.15509,-0.88103 2.26626,-1.60188 2.46927,-1.60188 z m 62.5679,-0.0119 c -0.73072,-2.43894 -0.72181,-2.46783 1.27069,-4.11996 l 2.00657,-1.6638 -2.6921,-0.0157 -2.6921,-0.0157 -0.74308,-2.65404 c -0.81501,-2.910936 -1.24464,-2.823221 -2.29668,0.46891 -0.67311,2.10638 -0.7964,2.18623 -3.42091,2.21569 -2.50576,0.0281 -2.62981,0.0957 -1.55724,0.84868 3.54544,2.48889 3.41338,2.25898 2.64129,4.59842 -0.90906,2.75447 -0.52765,3.12159 1.63969,1.57831 2.13873,-1.52291 2.31106,-1.51425 4.43675,0.22295 0.94894,0.77551 1.81931,1.31604 1.93417,1.20118 0.11485,-0.11486 -0.12232,-1.31411 -0.52705,-2.66499 z M 130.21048,98.000232 c 1.03087,-0.769689 1.33087,-0.70908 3.07503,0.621261 1.063,0.810786 2.05949,1.347386 2.21444,1.192444 0.15494,-0.154941 -0.085,-1.321019 -0.53315,-2.591284 l -0.81487,-2.309573 1.97405,-1.352636 c 1.08572,-0.743951 1.97404,-1.581052 1.97404,-1.860226 0,-0.279175 -1.13846,-0.50759 -2.52992,-0.50759 -2.45673,0 -2.55061,-0.06906 -3.24524,-2.387531 -0.78184,-2.609562 -1.18269,-2.563813 -2.13988,0.244225 -0.5717,1.677127 -0.90175,1.87946 -3.49621,2.143306 l -2.86491,0.291351 2.19906,1.68222 c 1.40035,1.071219 2.09824,2.023613 1.92145,2.622152 -0.15269,0.516963 -0.45669,1.689255 -0.67555,2.605094 -0.35912,1.502725 -0.29077,1.606365 0.7007,1.062423 0.60425,-0.331506 1.61268,-0.986542 2.24096,-1.455636 z m 33.25226,0.504027 1.87335,-1.428876 1.93674,1.428876 c 2.66751,1.968031 2.95909,1.811331 1.94937,-1.0476 l -0.87464,-2.476477 2.18453,-1.748102 2.18453,-1.748101 -2.88646,-0.291351 c -2.77241,-0.279837 -2.90779,-0.377693 -3.42626,-2.476477 -0.69239,-2.802835 -1.27972,-2.763061 -2.1512,0.145675 -0.67536,2.254149 -0.78153,2.330802 -3.22825,2.330802 -1.39145,0 -2.52812,0.196662 -2.52593,0.437026 0.002,0.240364 0.90097,1.047811 1.9973,1.794326 l 1.9933,1.357301 -0.83189,2.357838 c -1.21569,3.445651 -1.0683,3.557101 1.80551,1.36514 z m -16.52975,-4.576669 1.54921,-1.127342 2.19418,1.672667 2.19418,1.672668 -0.37884,-1.748102 c -0.20836,-0.961456 -0.53469,-2.291651 -0.72519,-2.955989 -0.26647,-0.929324 0.13252,-1.534044 1.7301,-2.622152 1.14204,-0.777846 2.07823,-1.596559 2.08042,-1.819364 0.002,-0.222804 -1.2195,-0.485019 -2.71488,-0.5827 -2.4709,-0.161405 -2.77647,-0.346499 -3.35053,-2.029558 -0.95776,-2.808037 -1.35842,-2.853757 -2.14026,-0.244225 -0.69463,2.318467 -0.78851,2.387531 -3.24524,2.387531 -2.99313,0 -3.183,0.621009 -0.725,2.371256 1.86729,1.329632 1.90457,1.618618 0.73947,5.731994 -0.43265,1.527462 -0.19527,1.467389 2.79238,-0.706684 z"
       id="path1004"
       transform="matrix(0.75000002,0,0,-0.75000002,0,131.1)" />
    <path
       style="fill:#f4f0e8;fill-rule:evenodd;stroke:#f4f0e8;stroke-width:0.5827"
       d="M 377.00722,104.31715 V 87.696425 h 9.94109 9.94108 l -0.18085,2.185127 -0.18085,2.185127 -7.13808,0.16361 -7.13808,0.16361 v 4.332605 4.332606 l 6.26403,0.16539 6.26403,0.16539 0.18085,2.18512 0.18085,2.18513 h -6.44488 -6.44488 v 5.2269 5.22689 l 7.42943,0.16309 7.42943,0.16308 v 2.03945 2.03945 l -10.05158,0.15944 -10.05159,0.15943 z"
       id="path1080"
       transform="matrix(0.75000002,0,0,-0.75000002,0,131.1)" />
    <path
       style="fill:#f4f0e8;fill-rule:evenodd;stroke:#f4f0e8;stroke-width:0.5827"
       d="m 405.35928,120.25043 c -2.18253,-1.26868 -2.71323,-4.04888 -2.71323,-14.21373 v -9.666775 l 2.47647,0.179179 2.47648,0.179179 0.14878,9.031857 c 0.13795,8.37396 0.23815,9.10614 1.37563,10.05158 1.58287,1.31564 2.67687,1.28461 6.61154,-0.18754 l 3.22671,-1.20726 v -8.99 -8.989987 h 2.34262 2.34263 l -0.1575,12.091037 -0.1575,12.09103 -2.18512,0.18085 c -2.00317,0.16579 -2.18513,0.0566 -2.18513,-1.31107 0,-0.82056 -0.0655,-1.49083 -0.14568,-1.48949 -0.0801,0.001 -1.43563,0.65688 -3.01225,1.45675 -3.09409,1.56973 -8.41447,1.97439 -10.44445,0.79439 z"
       id="path1119"
       transform="matrix(0.75000002,0,0,-0.75000002,0,131.1)" />
    <path
       style="fill:#f4f0e8;fill-rule:evenodd;stroke:#f4f0e8;stroke-width:0.5827"
       d="m 431.00414,120.52189 c -0.21366,-0.21366 -0.38847,-5.73526 -0.38847,-12.27022 V 96.369925 l 2.47648,0.179179 c 2.1866,0.158206 2.49728,0.358732 2.65425,1.713142 l 0.17777,1.533963 3.02708,-1.669082 c 1.66489,-0.917995 3.61706,-1.673833 4.33816,-1.679638 1.13489,-0.0091 1.31107,0.291524 1.31107,2.237438 v 2.247993 l -4.22458,1.10253 -4.22458,1.10254 -0.1423,7.57511 c -0.18592,9.89626 -0.26518,10.19725 -2.68518,10.19725 -1.06218,0 -2.10605,-0.17481 -2.3197,-0.38846 z"
       id="path1158"
       transform="matrix(0.75000002,0,0,-0.75000002,0,131.1)" />
    <path
       style="fill:#f4f0e8;fill-rule:evenodd;stroke:#f4f0e8;stroke-width:0.5827"
       d="m 452.7699,119.92089 c -4.01487,-2.07885 -5.90612,-7.4776 -5.00339,-14.28265 0.69454,-5.23573 2.91398,-8.039995 7.28115,-9.199734 3.1301,-0.831225 7.22818,-0.31614 9.73963,1.224165 2.98122,1.828425 3.99526,4.623139 3.99526,11.010969 0,6.10974 -0.84087,8.38215 -3.96279,10.70922 -2.29766,1.71268 -9.18718,2.0203 -12.04986,0.53803 z m 8.30861,-3.62312 c 2.10634,-0.80083 2.90682,-3.41587 2.66638,-8.71058 -0.2701,-5.94771 -1.13626,-7.07135 -5.45095,-7.07135 -4.23151,0 -5.16182,1.14594 -5.44249,6.70398 -0.25107,4.97201 0.65134,8.31005 2.44185,9.03242 1.68008,0.67783 4.07262,0.69666 5.78521,0.0455 z"
       id="path1197"
       transform="matrix(0.75000002,0,0,-0.75000002,0,131.1)" />
    <path
       style="fill:#f4f0e8;fill-rule:evenodd;stroke:#f4f0e8;stroke-width:0.5827"
       d="m 474.59526,129.53237 c -0.16296,-0.42465 -0.2264,-7.9793 -0.14099,-16.78809 l 0.15529,-16.015997 h 2.3308 c 1.94833,0 2.36037,0.207623 2.511,1.265265 l 0.1802,1.265265 2.90671,-1.508057 c 5.15681,-2.675449 9.76892,-1.779813 12.01665,2.333544 1.48418,2.71605 1.46634,13.86521 -0.0266,16.62724 -1.85366,3.42937 -4.02369,4.31582 -9.84481,4.02157 l -5.07626,-0.25659 -0.16804,4.73284 -0.16804,4.73285 -2.18981,0.18113 c -1.41921,0.11739 -2.29407,-0.0906 -2.48609,-0.59097 z m 14.63717,-13.9275 c 0.94289,-1.04187 1.11004,-2.14578 1.11004,-7.33073 0,-5.42519 -0.12962,-6.20108 -1.1654,-6.97561 -1.35222,-1.01116 -4.17156,-0.79399 -7.42943,0.57226 l -2.18513,0.91638 v 6.68806 c 0,7.58415 -0.29928,7.17254 5.29967,7.28863 2.62805,0.0545 3.47546,-0.17025 4.37025,-1.15899 z"
       id="path1236"
       transform="matrix(0.75000002,0,0,-0.75000002,0,131.1)" />
    <path
       style="fill:#f4f0e8;fill-rule:evenodd;stroke:#f4f0e8;stroke-width:0.5827"
       d="m 505.49268,119.8262 c -3.62692,-2.24033 -4.95488,-5.13853 -4.9497,-10.80248 0.005,-4.9882 0.95246,-7.8526 3.41282,-10.312956 2.35577,-2.35577 5.49259,-3.225898 9.30649,-2.581544 4.87684,0.823936 7.43867,3.701399 8.07441,9.0692 0.52465,4.4298 0.14574,4.64062 -8.34026,4.64062 h -7.21241 v 1.48569 c 0,2.28736 1.59817,4.86418 3.27834,5.28588 0.82998,0.20831 3.57847,0.23691 6.10776,0.0635 l 4.59872,-0.3152 v 1.636 c 0,2.14404 -2.14657,2.91615 -8.09909,2.91323 -3.2917,-0.002 -4.87785,-0.27945 -6.17708,-1.08198 z m 10.77996,-14.6777 c 0,-3.60602 -3.09355,-5.780346 -7.00253,-4.92179 -1.84727,0.40573 -3.48608,2.71947 -3.48608,4.92179 0,1.11552 0.34612,1.19434 5.24431,1.19434 4.89819,0 5.2443,-0.0788 5.2443,-1.19434 z"
       id="path1275"
       transform="matrix(0.75000002,0,0,-0.75000002,0,131.1)" />
    <path
       style="fill:#f4f0e8;fill-rule:evenodd;stroke:#f4f0e8;stroke-width:0.5827"
       d="m 528.2469,119.62627 c -3.2482,-2.79399 -2.44611,-10.40608 1.30066,-12.3436 0.94199,-0.48713 4.12276,-1.06762 7.06837,-1.28998 l 5.35565,-0.4043 -0.17573,-2.08585 c -0.25783,-3.06026 -1.86883,-3.709244 -8.11006,-3.26709 -4.88416,0.34602 -5.03035,0.31927 -5.37089,-0.982982 -0.19254,-0.736276 -0.14159,-1.547168 0.11322,-1.801982 0.85428,-0.85428 7.91428,-1.699491 11.14097,-1.333777 6.36437,0.721338 7.20438,2.143934 7.58668,12.848281 0.28268,7.91496 0.33038,8.16335 1.60243,8.34401 0.93002,0.13209 1.31107,0.5797 1.31107,1.54009 0,2.552 -5.0198,2.97992 -6.90105,0.5883 l -1.15864,-1.47297 -2.5093,1.30792 c -1.53087,0.79793 -3.89522,1.39616 -6.06368,1.53424 -3.10124,0.19747 -3.76286,0.047 -5.1897,-1.18031 z m 11.43581,-3.77769 c 2.1579,-0.86342 2.22876,-0.98238 2.22876,-3.742 v -2.85024 l -3.64188,0.009 c -5.15197,0.0121 -6.50918,0.83019 -6.74065,4.06281 -0.30311,4.23321 2.05336,4.96174 8.15377,2.52084 z"
       id="path1314"
       transform="matrix(0.75000002,0,0,-0.75000002,0,131.1)" />
    <path
       style="fill:#f4f0e8;fill-rule:evenodd;stroke:#f4f0e8;stroke-width:0.5827"
       d="M 554.14818,108.70882 V 96.436933 h 2.3308 c 1.94233,0 2.3308,0.194233 2.3308,1.165401 0,1.466647 0.34853,1.45715 3.53243,-0.09625 2.99689,-1.46216 7.28165,-1.713452 9.45005,-0.554226 2.57315,1.37561 3.04178,3.540602 3.04178,14.052592 v 9.61455 h -2.3308 -2.3308 l -0.29135,-9.22608 c -0.26109,-8.2678 -0.40883,-9.31182 -1.42245,-10.05158 -1.49056,-1.08785 -3.52957,-0.99667 -6.73536,0.30118 l -2.62215,1.06157 -0.29135,8.95746 -0.29135,8.95745 -2.18513,0.18085 -2.18512,0.18085 z"
       id="path1353"
       transform="matrix(0.75000002,0,0,-0.75000002,0,131.1)" />
    <path
       style="fill:#f4f0e8;fill-rule:evenodd;stroke:#f4f0e8;stroke-width:0.5827"
       d="m 574.93116,144.99531 c -0.90054,-0.90054 -0.35477,-3.66747 0.85064,-4.31259 2.55352,-1.3666 4.75273,0.9096 3.65151,3.77935 -0.35539,0.92613 -3.71173,1.32366 -4.50215,0.53324 z"
       id="path1392"
       transform="matrix(0.75000002,0,0,-0.75000002,0,131.1)" />
    <path
       style="fill:#f4f0e8;fill-rule:evenodd;stroke:#f4f0e8;stroke-width:0.5827"
       d="m 574.54269,162.02424 v -11.97886 h 2.63422 2.63422 l -0.15774,11.79968 -0.15774,11.79969 -2.47648,0.17918 -2.47648,0.17918 z"
       id="path1431"
       transform="matrix(0.75000002,0,0,-0.75000002,0,131.1)" />
    <path
       style="fill:#f4f0e8;fill-rule:evenodd;stroke:#f4f0e8;stroke-width:0.5827"
       d="m 592.38458,173.95072 c -2.24222,-0.71767 -4.40403,-2.78271 -5.42588,-5.18298 -1.11302,-2.61443 -1.1237,-10.90171 -0.0175,-13.54932 1.08829,-2.60464 3.97845,-5.02243 6.58911,-5.5122 3.14746,-0.59046 7.73183,0.0483 9.4264,1.31352 3.27382,2.44427 3.8714,3.9003 4.09072,9.96728 0.18149,5.02067 0.0512,5.96218 -1.14545,8.27414 -0.75333,1.45552 -2.1889,3.09008 -3.24731,3.69744 -2.1688,1.24454 -7.7861,1.78719 -10.27013,0.99212 z m 6.70345,-4.32879 c 2.10686,-0.45842 3.03671,-3.01983 3.00287,-8.27187 -0.0338,-5.24447 -0.9668,-6.99614 -4.03276,-7.57132 -5.03767,-0.94507 -7.42242,2.07403 -7.03452,8.9057 0.27539,4.85003 1.38056,6.99733 3.75518,7.29613 0.88834,0.11178 1.87738,0.15165 2.19786,0.0886 0.32049,-0.0631 1.2706,-0.26431 2.11137,-0.44724 z"
       id="path1470"
       transform="matrix(0.75000002,0,0,-0.75000002,0,131.1)" />
    <path
       style="fill:#f4f0e8;fill-rule:evenodd;stroke:#f4f0e8;stroke-width:0.5827"
       d=""
       id="path1509"
       transform="matrix(0.75000002,0,0,-0.75000002,0,131.1)" />
    <path
       style="fill:#f4f0e8;fill-rule:evenodd;stroke:#f4f0e8;stroke-width:0.5827"
       d="m 612.67796,173.18978 c -0.15751,-0.41048 -0.21484,-5.72033 -0.12739,-11.79968 l 0.15901,-11.05337 2.47647,-0.17918 c 2.16914,-0.15694 2.47648,-0.0304 2.47648,1.01973 0,0.65939 0.0994,1.1989 0.22094,1.1989 0.12151,0 1.72033,-0.68645 3.55292,-1.52544 3.81934,-1.74855 8.22629,-1.7274 10.18907,0.0489 1.70783,1.54556 2.40586,6.22399 2.22471,14.91062 l -0.16338,7.8345 -2.47647,0.17918 -2.47648,0.17918 v -8.64436 c 0,-6.88074 -0.18506,-8.90857 -0.90709,-9.93941 -1.10312,-1.57492 -3.53898,-1.69485 -7.43827,-0.36623 l -2.72595,0.92882 v 8.97709 8.97708 h -2.34909 c -1.37186,0 -2.46823,-0.31047 -2.63548,-0.74632 z"
       id="path1548"
       transform="matrix(0.75000002,0,0,-0.75000002,0,131.1)" />
    <path
       style="fill:#f4f0e8;fill-rule:evenodd;stroke:#f4f0e8;stroke-width:0.5827"
       d="m 553.07446,173.93901 c -2.39481,-0.5662 -3.17971,-1.29958 -2.89913,-2.70884 0.19401,-0.97446 0.71959,-1.06093 5.30486,-0.87281 6.03639,0.24767 7.99119,-0.58565 7.99119,-3.4066 0,-2.07344 -0.80771,-2.56471 -5.827,-3.54416 -2.96245,-0.57808 -4.21623,-1.16532 -5.75534,-2.69564 -1.79254,-1.78231 -1.94138,-2.19077 -1.67134,-4.58661 0.33581,-2.97928 1.62105,-4.71351 4.34879,-5.86804 2.23255,-0.94494 7.73332,-1.03156 10.8338,-0.17059 1.93727,0.53795 2.1972,0.81344 2.03945,2.16145 l -0.1808,1.54491 -5.28131,-0.17022 c -5.8857,-0.18971 -6.89605,0.3085 -6.56048,3.23501 0.17088,1.49026 0.50246,1.70625 3.68398,2.39969 5.77311,1.25828 8.23056,2.63702 9.03279,5.06779 2.34582,7.10792 -5.22305,11.94023 -15.05946,9.61466 z"
       id="path1587"
       transform="matrix(0.75000002,0,0,-0.75000002,0,131.1)" />
    <path
       style="fill:#f4f0e8;fill-rule:evenodd;stroke:#f4f0e8;stroke-width:0.5827"
       d="m 529.76644,173.93901 c -2.39481,-0.5662 -3.17971,-1.29958 -2.89913,-2.70884 0.19401,-0.97446 0.71959,-1.06093 5.30486,-0.87281 5.99786,0.24609 7.99119,-0.59097 7.99119,-3.35575 0,-2.21614 -0.72419,-2.68302 -5.53565,-3.56874 -6.95692,-1.28068 -9.66477,-5.4778 -6.68612,-10.36338 0.64679,-1.06086 2.07957,-2.30638 3.18396,-2.76783 2.35643,-0.98457 7.81191,-1.092 10.96672,-0.21594 1.93906,0.53845 2.19735,0.81277 2.03945,2.16597 l -0.1808,1.54944 -5.12397,-0.18009 c -5.71263,-0.20078 -6.82139,0.26587 -6.82139,2.871 0,2.02968 0.0881,2.08326 5.19179,3.15685 5.09074,1.07087 6.78683,2.12504 7.6559,4.75836 2.31845,7.02497 -5.30847,11.84361 -15.08681,9.53176 z"
       id="path1700"
       transform="matrix(0.75000002,0,0,-0.75000002,0,131.1)" />
    <path
       style="fill:#f4f0e8;fill-rule:evenodd;stroke:#f4f0e8;stroke-width:0.5827"
       d="m 515.68994,161.99074 v -11.94536 h 2.33081 2.3308 v 11.94536 11.94536 h -2.3308 -2.33081 z"
       id="path1739"
       transform="matrix(0.75000002,0,0,-0.75000002,0,131.1)" />
    <path
       style="fill:#f4f0e8;fill-rule:evenodd;stroke:#f4f0e8;stroke-width:0.5827"
       d="m 516.07841,144.99531 c -0.21366,-0.21366 -0.38847,-1.12219 -0.38847,-2.01895 0,-3.07241 4.27347,-3.71218 5.01667,-0.75103 0.20082,0.80013 0.0423,1.8056 -0.36134,2.29196 -0.72747,0.87655 -3.55191,1.19297 -4.26686,0.47802 z"
       id="path1778"
       transform="matrix(0.75000002,0,0,-0.75000002,0,131.1)" />
    <path
       style="fill:#f4f0e8;fill-rule:evenodd;stroke:#f4f0e8;stroke-width:0.5827"
       d="m 473.15281,161.99074 v -11.94536 h 2.3308 c 1.94233,0 2.3308,0.19423 2.3308,1.1654 0,0.64097 0.0655,1.1643 0.14568,1.16296 0.0801,-0.001 1.43563,-0.65688 3.01225,-1.45675 4.30011,-2.18158 9.69105,-1.63234 11.24575,1.14574 0.39925,0.71342 1.03326,0.57128 3.89863,-0.87404 5.54299,-2.79594 10.59021,-2.01805 11.93494,1.83944 0.37083,1.06374 0.64588,5.91017 0.64588,11.38036 v 9.52761 h -2.3308 -2.33081 l -0.009,-8.30348 c -0.01,-9.65963 -0.451,-11.11867 -3.44777,-11.40648 -1.08517,-0.10423 -3.11135,0.24523 -4.50264,0.77657 l -2.52961,0.96606 v 8.98367 8.98366 h -2.62215 -2.62215 v -8.77882 c 0,-4.93713 -0.26397,-9.27204 -0.6032,-9.9059 -0.79612,-1.48757 -4.10417,-1.47747 -7.40893,0.0226 l -2.47648,1.12412 v 8.76899 8.769 h -2.3308 -2.3308 z"
       id="path1817"
       transform="matrix(0.75000002,0,0,-0.75000002,0,131.1)" />
    <path
       style="fill:#f4f0e8;fill-rule:evenodd;stroke:#f4f0e8;stroke-width:0.5827"
       d="m 431.19837,161.99074 v -11.94536 h 2.62215 c 2.24099,0 2.62216,0.17083 2.62216,1.17522 0,1.13279 0.10901,1.11997 3.0202,-0.35524 3.95339,-2.00334 8.16363,-1.77526 10.16427,0.55063 l 1.30769,1.52028 3.3882,-1.79045 c 2.86435,-1.51362 3.86654,-1.75177 6.48201,-1.54031 2.05365,0.16605 3.48132,0.63766 4.24642,1.40276 1.58959,1.5896 2.35294,7.14406 2.14996,15.64407 l -0.16698,6.99241 -2.47648,0.17918 -2.47647,0.17918 v -8.81232 c 0,-4.96023 -0.26368,-9.305 -0.60321,-9.93941 -0.76437,-1.42826 -3.91104,-1.5023 -7.38944,-0.17388 l -2.49596,0.95321 v 8.9527 8.95269 h -2.27851 -2.2785 l -0.19797,-8.94363 c -0.14352,-6.48346 -0.41796,-9.20832 -0.9977,-9.90591 -1.01849,-1.22551 -4.02785,-1.23616 -7.05494,-0.025 l -2.34259,0.93732 v 8.96859 8.96859 h -2.62216 -2.62215 z"
       id="path1893"
       transform="matrix(0.75000002,0,0,-0.75000002,0,131.1)" />
    <path
       style="fill:#f4f0e8;fill-rule:evenodd;stroke:#f4f0e8;stroke-width:0.5827"
       d="m 410.5125,173.67854 c -4.61498,-1.70302 -6.42359,-5.68985 -5.99221,-13.20902 0.40956,-7.13867 3.06426,-10.40096 8.85454,-10.88114 7.09982,-0.58877 10.75349,1.75302 11.98416,7.68115 1.40281,6.75729 -0.16663,12.71092 -4.12299,15.64043 -2.03281,1.50521 -7.63854,1.90699 -10.7235,0.76858 z m 9.20712,-6.16706 c 0.81018,-1.56318 1.0078,-3.06649 0.86717,-6.59684 -0.16625,-4.17344 -0.32416,-4.69446 -1.81018,-5.97268 -0.89542,-0.77021 -2.33451,-1.3968 -3.19797,-1.39242 -4.67585,0.0237 -5.94019,1.85949 -5.94019,8.62503 0,6.64939 1.88632,8.63661 7.28376,7.67341 1.24531,-0.22223 2.0499,-0.89425 2.79741,-2.3365 z"
       id="path1932"
       transform="matrix(0.75000002,0,0,-0.75000002,0,131.1)" />
    <path
       style="fill:#f4f0e8;fill-rule:evenodd;stroke:#f4f0e8;stroke-width:0.5827"
       d="m 384.95366,173.70535 c -5.42543,-2.03077 -7.94644,-7.01464 -7.94644,-15.70961 0,-9.26452 2.44886,-14.36149 7.9003,-16.44341 4.64291,-1.77315 16.00534,-0.3145 15.13889,1.94344 -0.17263,0.44986 -0.31387,1.1751 -0.31387,1.61165 0,0.63787 -1.17272,0.73434 -5.97268,0.4913 -5.31771,-0.26925 -6.17785,-0.17228 -7.84366,0.88429 -2.64946,1.68048 -3.91715,6.22743 -3.51835,12.61962 0.57564,9.22686 2.77326,11.16309 11.94471,10.52396 2.96449,-0.20659 5.39356,-0.17366 5.39794,0.0732 0.004,0.24683 0.15736,1.00549 0.33997,1.68591 0.26943,1.00393 -0.0341,1.36657 -1.61038,1.92383 -3.20297,1.13237 -10.94313,1.35905 -13.51643,0.39585 z"
       id="path2008"
       transform="matrix(0.75000002,0,0,-0.75000002,0,131.1)" />
    <path
       style="fill:#f4f0e8;fill-rule:evenodd;stroke:#f4f0e8;stroke-width:0.5827"
       d="m 0,171.0226 v -2.91351 l 5.6813299,-0.009 c 9.5287781,-0.0154 59.6699651,1.20703 62.9316541,1.53424 3.035823,0.30454 3.059178,0.32213 3.059178,2.30441 v 1.99752 H 35.836081 0 Z"
       id="path2047"
       transform="matrix(0.75000002,0,0,-0.75000002,0,131.1)" />
    <path
       style="fill:#f4f0e8;fill-rule:evenodd;stroke:#f4f0e8;stroke-width:0.5827"
       d="m 0,161.62324 v -2.98964 l 29.2807,0.37676 c 16.104385,0.20722 32.230622,0.53514 35.836081,0.72871 l 6.555381,0.35195 v 1.87745 1.87746 l -10.925635,0.38183 c -6.009099,0.21001 -22.135335,0.38258 -35.836081,0.38348 L 0,164.61289 Z"
       id="path2086"
       transform="matrix(0.75000002,0,0,-0.75000002,0,131.1)" />
    <path
       style="fill:#f4f0e8;fill-rule:evenodd;stroke:#f4f0e8;stroke-width:0.5827"
       d="m 0,152.73541 v -3.27273 h 35.836081 35.836081 v 2.2214 2.22141 l -32.194203,0.70963 c -17.706812,0.3903 -33.8330479,0.86339 -35.8360809,1.05133 L 0,156.00815 Z"
       id="path2125"
       transform="matrix(0.75000002,0,0,-0.75000002,0,131.1)" />
    <path
       style="fill:#f4f0e8;fill-rule:evenodd;stroke:#f4f0e8;stroke-width:0.5827"
       d="m 0,143.45101 v -3.12169 l 25.443081,-0.38628 c 13.993694,-0.21245 30.119931,-0.38627 35.836081,-0.38627 h 10.393 v 2.24347 2.24347 l -12.965087,0.38866 c -27.843429,0.83467 -48.162991,1.53181 -53.3170954,1.82927 L 0,146.5727 Z"
       id="path2164"
       transform="matrix(0.75000002,0,0,-0.75000002,0,131.1)" />
    <path
       style="fill:#f4f0e8;fill-rule:evenodd;stroke:#f4f0e8;stroke-width:0.5827"
       d="m 0,134.10245 v -3.12351 l 27.532599,-0.38145 c 15.142929,-0.20979 31.269165,-0.54387 35.83608,-0.7424 l 8.303483,-0.36097 v 2.40917 c 0,2.32838 -0.06351,2.40937 -1.893777,2.41501 -1.041577,0.003 -16.446722,0.65612 -34.233654,1.45092 -17.786933,0.79479 -33.0609701,1.4477 -33.9423046,1.45091 C 0.05289062,137.22578 0,137.12287 0,134.10245 Z"
       id="path2203"
       transform="matrix(0.75000002,0,0,-0.75000002,0,131.1)" />
    <path
       style="fill:#f4f0e8;fill-rule:evenodd;stroke:#f4f0e8;stroke-width:0.5827"
       d="m 0,124.69791 v -3.20486 l 6.2640304,-0.003 c 6.7719496,-0.003 40.5904876,-0.89145 55.9392476,-1.469 l 9.468884,-0.3563 v 2.37095 c 0,2.28606 -0.0678,2.37101 -1.893777,2.37282 -1.041577,0.001 -16.577829,0.78683 -34.525005,1.74623 -17.947175,0.95939 -33.221212,1.7452 -33.9423039,1.74623 C 0.11013302,127.9026 0,127.63355 0,124.69791 Z"
       id="path2242"
       transform="matrix(0.75000002,0,0,-0.75000002,0,131.1)" />
    <path
       style="fill:#f4f0e8;fill-rule:evenodd;stroke:#f4f0e8;stroke-width:0.5827"
       d="m 0,116.02586 v -3.27331 h 2.1981078 c 2.2543753,0 50.3368332,-2.0029 62.6273232,-2.60878 l 6.846731,-0.33751 v 2.34719 c 0,2.0454 -0.168576,2.34731 -1.311077,2.34808 -1.759761,10e-4 -60.7829391,3.94861 -66.1365064,4.42317 L 0,119.29917 Z"
       id="path2281"
       transform="matrix(0.75000002,0,0,-0.75000002,0,131.1)" />
    <path
       style="fill:#f4f0e8;fill-rule:evenodd;stroke:#f4f0e8;stroke-width:0.5827"
       d="m 0,106.63419 c 0,-3.18423 0.01143392,-3.20485 1.7774416,-3.20485 1.755192,0 51.4913404,-2.52503 63.6306894,-3.23043 l 6.264031,-0.364001 v 2.379911 c 0,2.2067 -0.116628,2.38025 -1.602427,2.38448 -0.881334,0.003 -16.937274,1.18248 -35.679866,2.62215 -18.742592,1.43968 -34.14773672,2.61759 -34.23365463,2.61759 C 0.07029646,109.83904 0,108.39686 0,106.63419 Z"
       id="path2320"
       transform="matrix(0.75000002,0,0,-0.75000002,0,131.1)" />
    <path
       style="fill:#f4f0e8;fill-rule:evenodd;stroke:#f4f0e8;stroke-width:0.5827"
       d="M 0,88.30553 C 0,85.496863 0.05144721,85.410471 1.8937766,85.125416 3.7751191,84.834325 68.701747,80.10326 70.652436,80.115119 c 0.788801,0.0048 1.019696,0.501035 1.019603,2.191327 l -1.22e-4,2.185127 -35.107583,3.379542 C 17.255164,89.729864 1.1289822,91.237602 0.72837563,91.221643 0.24758408,91.202491 0,90.211267 0,88.30553 Z"
       id="path2396"
       transform="matrix(0.75000002,0,0,-0.75000002,0,131.1)" />
    <path
       style="fill:#f4f0e8;fill-rule:evenodd;stroke:#f4f0e8;stroke-width:0.5827"
       d="m 0,97.638038 v -2.877799 l 2.4764771,-0.322891 c 3.0809811,-0.401709 64.0151969,-4.413057 67.0105579,-4.411359 2.108583,0.0012 2.185127,0.07268 2.185127,2.04069 0,1.121699 -0.06555,2.056945 -0.145676,2.078326 C 70.841604,94.327766 3.3380989,100.48907 1.8937766,100.50065 0.01079493,100.51575 0,100.49943 0,97.638038 Z"
       id="path2435"
       transform="matrix(0.75000002,0,0,-0.75000002,0,131.1)" />
    <path
       style="fill:#f4f0e8;fill-rule:evenodd;stroke:#f4f0e8;stroke-width:0.5827"
       d="m 0,79.282972 c 0,-2.442993 0.20803789,-3.240557 0.84527251,-3.240557 3.41711739,0 107.98431749,-8.930591 112.86583749,-9.639338 22.25462,-3.231146 37.8382,-11.911439 53.80072,-29.967818 2.84016,-3.212718 5.28819,-5.717045 5.44007,-5.565172 0.53584,0.535848 -8.68724,11.287381 -14.31484,16.68709 -12.72172,12.206555 -22.48055,17.539518 -38.62396,21.107067 -11.23698,2.483271 -19.81944,3.299268 -34.700934,3.299268 H 71.672162 v 1.456751 c 0,0.801213 -0.233325,1.456751 -0.518499,1.456751 -0.771851,0 -65.7961654,6.923269 -68.6771859,7.312198 L 0,82.523528 Z"
       id="path2474"
       transform="matrix(0.75000002,0,0,-0.75000002,0,131.1)" />
    <path
       style="fill:#f4f0e8;fill-rule:evenodd;stroke:#f4f0e8;stroke-width:0.5827"
       d=""
       id="path2513"
       transform="matrix(0.75000002,0,0,-0.75000002,0,131.1)" />
    <path
       style="fill:#f4f0e8;fill-rule:evenodd;stroke:#f4f0e8;stroke-width:0.5827"
       d="m 0,61.096847 c 0,-3.00482 0.03738915,-3.0716 1.8937766,-3.382433 1.0415772,-0.174403 25.3306094,-2.810425 53.9756274,-5.85783 28.645016,-3.047403 54.676026,-6.069393 57.846686,-6.715532 16.70882,-3.405041 28.24953,-9.400455 40.28781,-20.929566 6.26154,-5.996703 11.26096,-11.766831 16.36061,-18.882744 1.80413,-2.5174416 3.28024,-4.1805322 3.28024,-3.6957568 0,1.1954786 -8.61274,13.1442938 -13.94081,19.3406788 -13.98557,16.264775 -27.90805,24.418546 -48.19749,28.227091 -3.48096,0.653414 -25.470721,3.693993 -48.866146,6.756845 -23.395425,3.062852 -47.060349,6.161869 -52.58872,6.886707 L 0,64.162189 Z"
       id="path2552"
       transform="matrix(0.75000002,0,0,-0.75000002,0,131.1)" />
    <path
       style="fill:#f4f0e8;fill-rule:evenodd;stroke:#f4f0e8;stroke-width:0.5827"
       d="M 0,70.226512 C 0,67.686579 0.1637343,67.289761 1.3110761,67.049059 2.6787126,66.762141 24.588599,64.660563 77.790517,59.713214 111.36323,56.591223 113.7956,56.288275 122.36871,54.161056 c 9.78779,-2.428607 17.92611,-6.318863 26.09334,-12.473055 5.3627,-4.040915 15.85764,-14.724799 21.07044,-21.449772 2.04632,-2.639933 3.84034,-4.680119 3.98671,-4.533747 0.8268,0.826801 -10.89614,15.452597 -18.19226,22.69705 -6.74793,6.700149 -12.78589,11.089829 -19.71653,14.334204 -11.36974,5.322399 -17.79515,6.693295 -47.913985,10.222712 C 75.1975,64.42311 50.851732,67.310645 33.59472,69.375192 16.337708,71.439738 1.7192091,73.128913 1.1091671,73.128913 0.16719927,73.128913 0,72.691396 0,70.226512 Z"
       id="path2591"
       transform="matrix(0.75000002,0,0,-0.75000002,0,131.1)" />
    <path
       style="fill:#f4f0e8;fill-rule:evenodd;stroke:#f4f0e8;stroke-width:0.5827"
       d=""
       id="path2630"
       transform="matrix(0.75000002,0,0,-0.75000002,0,131.1)" />
    <path
       style="fill:#f4f0e8;fill-rule:evenodd;stroke:#f4f0e8;stroke-width:0.5827"
       d="m 156.74643,71.782902 c 0,-0.09934 1.66509,-1.283293 3.7002,-2.631016 2.03511,-1.347724 5.83723,-4.435751 8.44916,-6.862283 5.70359,-5.29875 6.4199,-4.438381 0.81573,0.979786 -7.58123,7.329607 -9.33966,8.694123 -11.20396,8.694123 -0.96862,0 -1.76113,-0.08127 -1.76113,-0.18061 z"
       id="path2669"
       transform="matrix(0.75000002,0,0,-0.75000002,0,131.1)" />
    <path
       style="fill:#f4f0e8;fill-rule:evenodd;stroke:#f4f0e8;stroke-width:0.5827"
       d="m 138.10002,70.614197 c 9.44109,-3.893423 17.77115,-9.754772 28.698,-20.193004 3.7657,-3.597312 6.84673,-6.207576 6.84673,-5.800587 0,1.222551 -15.08035,15.847434 -20.30998,19.696569 -8.38314,6.17019 -11.31149,7.648376 -15.1203,7.632506 l -3.3193,-0.01383 z"
       id="path2708"
       transform="matrix(0.75000002,0,0,-0.75000002,0,131.1)" />
    <path
       style="fill:#f4f0e8;fill-rule:evenodd;stroke:#f4f0e8;stroke-width:0.5827"
       d="m 247.64771,171.6053 v -2.3308 l 2.47648,6.1e-4 c 3.97972,9.8e-4 52.45613,1.68489 75.60539,2.62628 11.69771,0.47571 22.6452,0.86591 24.32775,0.86711 1.68254,0.001 3.05917,0.26441 3.05917,0.5849 0,0.38417 -17.96659,0.5827 -52.73439,0.5827 h -52.7344 z"
       id="path2747"
       transform="matrix(0.75000002,0,0,-0.75000002,0,131.1)" />
    <path
       style="fill:#f4f0e8;fill-rule:evenodd;stroke:#f4f0e8;stroke-width:0.5827"
       d="m 339.71439,167.47097 c -4.32655,-0.25824 -15.33959,-0.89073 -24.47342,-1.40554 -20.17386,-1.13706 -30.33909,-2.01803 -51.42332,-4.45659 l -16.16994,-1.87019 v -2.58867 c 0,-2.58503 0.003,-2.58816 1.80944,-2.22679 10.62929,2.12586 45.94872,7.5363 55.29521,8.47044 9.41053,0.94055 44.46363,3.55006 47.6873,3.55006 0.37227,0 0.67684,0.26222 0.67684,0.5827 0,0.64356 -1.817,0.63604 -13.40211,-0.0554 z"
       id="path2786"
       transform="matrix(0.75000002,0,0,-0.75000002,0,131.1)" />
    <path
       style="fill:#f4f0e8;fill-rule:evenodd;stroke:#f4f0e8;stroke-width:0.5827"
       d=""
       id="path2825"
       transform="matrix(0.75000002,0,0,-0.75000002,0,131.1)" />
    <path
       style="fill:#f4f0e8;fill-rule:evenodd;stroke:#f4f0e8;stroke-width:0.5827"
       d=""
       id="path2864"
       transform="matrix(0.75000002,0,0,-0.75000002,0,131.1)" />
    <path
       style="fill:#f4f0e8;fill-rule:evenodd;stroke:#f4f0e8;stroke-width:0.5827"
       d="m 333.30469,159.63245 c -36.62362,-2.65817 -40.479,-3.1815 -64.67976,-8.77966 -10.41577,-2.4094 -19.39664,-4.51215 -19.95749,-4.67278 -0.77683,-0.2225 -1.01973,-0.91666 -1.01973,-2.91422 0,-2.30192 0.13389,-2.57966 1.09634,-2.27419 16.35645,5.19134 38.59064,11.24081 48.14186,13.09843 10.48763,2.03974 15.18065,2.5908 34.96203,4.10528 18.96346,1.45185 21.26856,1.70986 21.26856,2.38061 0,0.29742 -0.32777,0.50657 -0.72837,0.46476 -0.40061,-0.0418 -8.98816,-0.6755 -19.08344,-1.40823 z"
       id="path2903"
       transform="matrix(0.75000002,0,0,-0.75000002,0,131.1)" />
    <path
       style="fill:#f4f0e8;fill-rule:evenodd;stroke:#f4f0e8;stroke-width:0.5827"
       d="m 335.34414,152.3328 c -39.13745,-3.40251 -38.20141,-3.21324 -69.92406,-14.1389 l -17.48102,-6.02066 -0.1776,-2.71794 c -0.0977,-1.49487 -0.0359,-2.71794 0.13725,-2.71794 0.17317,0 6.02182,2.39259 12.99701,5.31687 18.07615,7.57825 27.6581,11.28901 33.55327,12.99402 6.46738,1.87051 16.1029,3.23692 39.87542,5.65476 10.33565,1.05121 18.79209,2.11993 18.79209,2.37493 0,0.63977 -3.55872,0.49056 -17.77236,-0.74514 z"
       id="path2942"
       transform="matrix(0.75000002,0,0,-0.75000002,0,131.1)" />
    <path
       style="fill:#f4f0e8;fill-rule:evenodd;stroke:#f4f0e8;stroke-width:0.5827"
       d="m 329.80848,144.1928 c -33.80586,-3.43576 -33.60079,-3.37911 -65.40813,-18.06897 l -16.75264,-7.73702 v -2.81713 c 0,-1.54942 0.0988,-2.81713 0.21956,-2.81713 0.12076,0 6.34837,3.3077 13.83914,7.35044 25.65038,13.84343 30.85704,16.20338 40.98369,18.57608 7.11414,1.66687 14.43624,2.72091 32.36269,4.65871 16.69554,1.80474 18.06371,2.00772 18.06371,2.67991 0,0.29232 -0.32777,0.50098 -0.72837,0.46369 -0.40061,-0.0373 -10.56145,-1.06715 -22.57965,-2.28858 z"
       id="path2981"
       transform="matrix(0.75000002,0,0,-0.75000002,0,131.1)" />
    <path
       style="fill:#f4f0e8;fill-rule:evenodd;stroke:#f4f0e8;stroke-width:0.5827"
       d="m 331.84794,137.19057 c -35.65452,-4.02851 -35.08396,-3.83302 -70.06974,-24.00822 l -14.13049,-8.14861 v -3.10825 -3.108262 l 12.67374,8.324152 c 36.27098,23.8229 36.93528,24.08736 71.21724,28.35195 10.42561,1.29692 19.54565,2.48453 20.26674,2.63914 1.36028,0.29165 1.86625,1.47297 0.5827,1.36044 -0.40061,-0.0351 -9.6437,-1.07117 -20.54019,-2.30234 z"
       id="path3020"
       transform="matrix(0.75000002,0,0,-0.75000002,0,131.1)" />
    <path
       style="fill:#f4f0e8;fill-rule:evenodd;stroke:#f4f0e8;stroke-width:0.5827"
       d="m 348.74625,131.67087 c -0.32049,-0.12034 -9.76023,-1.42114 -20.97722,-2.89067 -23.00669,-3.01409 -30.00754,-4.50643 -36.71013,-7.82531 -4.08991,-2.02518 -20.19913,-12.7877 -37.72986,-25.207205 l -5.68133,-4.024894 v -3.212973 c 0,-2.335744 0.18934,-3.095957 0.69347,-2.784385 0.38141,0.235723 8.57564,6.625438 18.20939,14.199366 20.20295,15.883281 21.65381,16.919371 27.42905,19.587701 6.82724,3.15438 16.49219,5.29103 38.00257,8.40134 11.04001,1.59633 20.3116,2.90242 20.60353,2.90242 0.29193,0 0.53078,0.26222 0.53078,0.5827 0,0.55052 -3.11249,0.74417 -4.37025,0.27191 z"
       id="path3059"
       transform="matrix(0.75000002,0,0,-0.75000002,0,131.1)" />
    <path
       style="fill:#f4f0e8;fill-rule:evenodd;stroke:#f4f0e8;stroke-width:0.5827"
       d=""
       id="path3098"
       transform="matrix(0.75000002,0,0,-0.75000002,0,131.1)" />
    <path
       style="fill:#f4f0e8;fill-rule:evenodd;stroke:#f4f0e8;stroke-width:0.5827"
       d="m 327.76903,120.86424 c -25.47408,-4.16954 -32.88941,-5.9466 -38.35917,-9.1927 -1.54795,-0.91864 -11.57768,-8.84416 -22.2883,-17.612257 L 247.64771,78.11729 v -3.725217 -3.725216 l 6.84673,6.388745 c 20.38151,19.018166 31.76238,29.156958 35.47843,31.606418 7.60068,5.01002 14.35519,6.83963 43.05664,11.66284 20.52922,3.44988 20.08699,3.35977 20.08699,4.0928 0,0.31438 -0.19666,0.54476 -0.43702,0.51196 -0.24037,-0.0328 -11.45007,-1.86222 -24.91045,-4.06538 z"
       id="path3137"
       transform="matrix(0.75000002,0,0,-0.75000002,0,131.1)" />
    <path
       style="fill:#f4f0e8;fill-rule:evenodd;stroke:#f4f0e8;stroke-width:0.5827"
       d="m 329.51713,113.60767 c -29.51595,-5.06448 -34.76038,-6.48212 -41.30138,-11.16428 -1.70489,-1.2204 -11.52748,-10.085361 -21.82798,-19.699919 l -18.72817,-17.481015 -0.006,-4.049768 c -0.003,-2.227373 0.21086,-3.800664 0.47585,-3.496203 0.26499,0.304461 9.16049,9.626892 19.76778,20.716514 12.18437,12.738418 20.53487,20.991921 22.67764,22.414201 8.27938,5.49554 15.50034,7.55202 43.16678,12.29356 10.65614,1.82627 19.37479,3.5349 19.37479,3.79695 0,0.70981 -0.30973,0.6661 -23.59937,-3.33004 z"
       id="path3176"
       transform="matrix(0.75000002,0,0,-0.75000002,0,131.1)" />
    <path
       style="fill:#f4f0e8;fill-rule:evenodd;stroke:#f4f0e8;stroke-width:0.5827"
       d="m 328.91553,106.07827 c -12.50932,-2.3197 -24.57122,-4.81135 -26.80422,-5.53699 -4.872,-1.583225 -9.3144,-3.965908 -13.76102,-7.380738 -2.67603,-2.055087 -23.24273,-23.201504 -37.70123,-38.763939 l -3.05732,-3.290747 0.17366,-3.914777 0.17366,-3.914778 16.02427,18.842465 c 18.63619,21.913757 26.83908,30.63352 31.45618,33.438258 6.7788,4.117906 17.2166,6.693326 52.01566,12.834346 3.12474,0.55142 5.68133,1.23384 5.68133,1.51648 0,0.69465 1.33997,0.90669 -24.20097,-3.82958 z"
       id="path3215"
       transform="matrix(0.75000002,0,0,-0.75000002,0,131.1)" />
    <path
       style="fill:#f4f0e8;fill-rule:evenodd;stroke:#f4f0e8;stroke-width:0.5827"
       d="m 332.13929,98.997266 c -23.0549,-4.395024 -29.55638,-5.984951 -35.16461,-8.599464 -8.2535,-3.847716 -8.35142,-3.946606 -34.34901,-34.689277 L 247.64771,37.996787 v -4.401746 c 0,-2.672979 0.20912,-4.184336 0.53246,-3.84818 0.29285,0.304461 8.57995,11.173282 18.41578,24.152935 18.94432,24.999485 22.34536,28.965075 28.01307,32.663033 7.75744,5.061429 15.2282,7.243479 42.04619,12.280797 9.05371,1.700584 16.46129,3.296964 16.46129,3.547494 0,0.62774 0.78502,0.75474 -20.97721,-3.393854 z"
       id="path3254"
       transform="matrix(0.75000002,0,0,-0.75000002,0,131.1)" />
    <path
       style="fill:#f4f0e8;fill-rule:evenodd;stroke:#f4f0e8;stroke-width:0.5827"
       d=""
       id="path3293"
       transform="matrix(0.75000002,0,0,-0.75000002,0,131.1)" />
    <path
       style="fill:#f4f0e8;fill-rule:evenodd;stroke:#f4f0e8;stroke-width:0.5827"
       d="m 330.39118,83.902276 c -12.01819,-2.690439 -24.37808,-5.690706 -27.4664,-6.667271 -6.34054,-2.00495 -11.5052,-5.14669 -15.01466,-9.133644 -1.27,-1.442795 -10.84859,-14.831312 -21.28575,-29.752254 L 247.64771,11.220122 V 5.9499694 c 0,-2.8985836 0.0939,-5.1608958 0.20864,-5.02736029 0.11475,0.13353559 8.66422,13.74687589 18.99882,30.25186789 10.33461,16.504991 19.87713,31.432619 21.20561,33.17251 4.46928,5.853337 12.24669,10.568148 22.51859,13.651198 2.72412,0.817628 12.95052,3.216979 22.72532,5.331891 20.34791,4.402547 19.81181,4.267564 19.81181,4.988318 0,0.725503 1.83682,1.082448 -22.72532,-4.416118 z"
       id="path3332"
       transform="matrix(0.75000002,0,0,-0.75000002,0,131.1)" />
    <path
       style="fill:#1c1a17;fill-rule:evenodd;stroke:#f4f0e8;stroke-width:0.5827;fill-opacity:1"
       d="M 332.90759,91.76815 C 309.87771,87.016134 303.76612,85.445057 298.17747,82.84024 293.26069,80.548572 287.70715,76.460217 285.23442,73.311927 282.7313,70.124957 259.4092,39.766149 253.00514,31.358483 l -5.40783,-7.09975 0.17088,-4.512387 0.17087,-4.512388 15.39758,22.392097 c 26.49028,38.523793 27.00231,39.127581 37.48241,44.199861 7.76202,3.756757 12.2024,4.978995 34.10361,9.387188 10.00662,2.014093 18.19384,3.882295 18.19384,4.151555 0,0.62927 1.96832,0.97956 -20.20891,-3.596509 z"
       id="path3371"
       transform="matrix(0.75000002,0,0,-0.75000002,0,131.1)" />
    <path
       style="fill:#1c1a17;fill-opacity:1;fill-rule:evenodd;stroke:#f4f0e8;stroke-width:0.5827"
       d="m 145.09242,93.885658 c 0,-0.157498 0.27825,-1.018196 0.61832,-1.912661 0.56034,-1.473791 0.43739,-1.776421 -1.31107,-3.227111 l -1.9294,-1.600811 2.43018,-0.01568 c 2.26091,-0.01458 2.45996,-0.14758 2.85781,-1.909452 l 0.42762,-1.893776 0.78575,1.893776 c 0.71139,1.714569 1.01916,1.893777 3.25234,1.893777 h 2.4666 l -1.91339,1.311076 c -1.73609,1.189587 -1.88288,1.515415 -1.58413,3.516248 l 0.32926,2.205172 -1.51389,-0.991939 c -1.42689,-0.934933 -1.61164,-0.934192 -3.21494,0.0129 -0.93558,0.55266 -1.70106,0.875975 -1.70106,0.718477 z"
       id="path3447"
       transform="matrix(0.75000002,0,0,-0.75000002,0,131.1)" />
    <path
       style="fill:#1c1a17;fill-opacity:1;fill-rule:evenodd;stroke:#f4f0e8;stroke-width:0.369518"
       d="m 110.85531,128.31196 c 0,-0.0871 0.33299,-1.12625 0.73999,-2.30921 0.407,-1.18295 0.69799,-2.17785 0.64666,-2.21088 -0.0513,-0.033 -0.90343,-0.6293 -1.89354,-1.32506 l -1.8002,-1.26501 2.38094,-0.10776 2.38094,-0.10776 0.46937,-1.83137 c 0.25815,-1.00725 0.59237,-1.9074 0.74272,-2.00031 0.15034,-0.0929 0.55927,0.73812 0.90874,1.84675 l 0.63539,2.01569 h 2.43612 2.43612 l -1.80835,1.35574 c -0.99459,0.74566 -1.88068,1.41384 -1.96909,1.48485 -0.0884,0.071 0.11458,0.99006 0.45108,2.04233 0.3365,1.05226 0.54367,1.98137 0.46036,2.06467 -0.0833,0.0833 -0.90019,-0.38624 -1.8153,-1.04342 l -1.66385,-1.19489 -1.86905,1.37201 c -1.02798,0.75461 -1.86905,1.30074 -1.86905,1.21363 z"
       id="path3486"
       transform="matrix(0.75000002,0,0,-0.75000002,0,131.1)" />
    <path
       style="fill:#1c1a17;fill-opacity:1;fill-rule:evenodd;stroke:#f4f0e8;stroke-width:0.369518"
       d="m 115.65904,145.12333 c 0,-0.17903 0.26812,-1.11241 0.59583,-2.07419 0.32771,-0.96177 0.53557,-1.79472 0.4619,-1.85098 -0.0737,-0.0563 -0.94769,-0.71239 -1.94229,-1.45805 l -1.80834,-1.35573 h 2.38752 2.38752 l 0.64064,-2.03235 c 0.35235,-1.11779 0.70679,-2.03235 0.78764,-2.03235 0.0808,0 0.43528,0.91456 0.78763,2.03235 l 0.64064,2.03235 2.242,0.0117 2.24201,0.0117 -0.99596,0.877 c -0.54778,0.48236 -1.35545,1.1288 -1.79482,1.43655 -0.78889,0.55257 -0.79098,0.58326 -0.16733,2.46092 0.34735,1.04575 0.55801,1.9749 0.46814,2.06477 -0.0899,0.0899 -0.85365,-0.33661 -1.69728,-0.94773 -0.84363,-0.61112 -1.64433,-1.11113 -1.77934,-1.11113 -0.135,0 -0.76,0.38591 -1.38889,0.85759 -1.62346,1.21763 -2.06722,1.44896 -2.06722,1.07763 z"
       id="path3525"
       transform="matrix(0.75000002,0,0,-0.75000002,0,131.1)" />
    <path
       style="fill:#1c1a17;fill-opacity:1;fill-rule:evenodd;stroke:#f4f0e8;stroke-width:0.369518"
       d=""
       id="path3564"
       transform="matrix(0.75000002,0,0,-0.75000002,0,131.1)" />
    <path
       style="fill:#1c1a17;fill-opacity:1;fill-rule:evenodd;stroke:#f4f0e8;stroke-width:0.369518"
       d="m 127.85312,98.355916 c 0,-0.289064 0.2512,-1.237547 0.55822,-2.10774 0.30703,-0.870194 0.51488,-1.611281 0.4619,-1.646862 -0.053,-0.03558 -0.89924,-0.6665 -1.88059,-1.402044 l -1.78427,-1.337351 2.30812,-0.110765 2.30811,-0.110767 0.58471,-1.729078 c 0.32158,-0.950993 0.67968,-1.821961 0.79577,-1.935485 0.11609,-0.113524 0.49872,0.706132 0.8503,1.821458 l 0.63923,2.027864 2.2906,0.01229 2.2906,0.01229 -0.86005,0.716783 c -0.47303,0.39423 -1.29993,1.037209 -1.83755,1.428841 l -0.9775,0.712059 0.6258,1.956928 c 0.34419,1.076312 0.5552,2.027535 0.4689,2.11383 -0.0863,0.08629 -0.81206,-0.361995 -1.61281,-0.9962 -0.80075,-0.634204 -1.5683,-1.153099 -1.70567,-1.153099 -0.13737,0 -0.98643,0.506837 -1.88679,1.126305 -1.13382,0.780089 -1.63703,0.96475 -1.63703,0.600735 z"
       id="path3603"
       transform="matrix(0.75000002,0,0,-0.75000002,0,131.1)" />
    <path
       style="fill:#1c1a17;fill-opacity:1;fill-rule:evenodd;stroke:#f4f0e8;stroke-width:0.369518"
       d="m 115.65904,110.93373 c 0,-0.29688 0.24942,-1.24673 0.55427,-2.11077 0.30486,-0.86404 0.55428,-1.63086 0.55428,-1.70404 0,-0.0732 -0.66513,-0.57323 -1.47807,-1.1112 -0.81294,-0.53798 -1.47807,-1.11364 -1.47807,-1.27925 0,-0.1656 0.87298,-0.35136 1.93997,-0.41279 l 1.93996,-0.11169 0.76327,-2.15659 0.76326,-2.156597 0.68093,2.248977 0.68094,2.24897 2.25098,0.0117 2.25098,0.0117 -0.98754,0.73729 c -2.82588,2.10979 -2.70203,1.87354 -2.02452,3.86192 0.85854,2.51967 0.80009,2.6018 -0.94067,1.32163 -0.85298,-0.62729 -1.73478,-1.14052 -1.95955,-1.14052 -0.22478,0 -1.10658,0.51323 -1.95956,1.14052 -1.08588,0.79857 -1.55086,0.97868 -1.55086,0.60073 z"
       id="path3642"
       transform="matrix(0.75000002,0,0,-0.75000002,0,131.1)" />
    <path
       style="fill:#1c1a17;fill-opacity:1;fill-rule:evenodd;stroke:#f4f0e8;stroke-width:0.369518"
       d="m 127.85312,157.7552 c 0,-0.15164 0.27916,-1.16129 0.62035,-2.24367 0.34119,-1.08238 0.54904,-2.02503 0.46189,-2.09478 -0.0871,-0.0697 -0.9722,-0.7369 -1.96679,-1.48255 l -1.80835,-1.35574 h 2.42421 2.42421 l 0.71507,-2.12473 0.71507,-2.12472 0.67165,2.10927 0.67164,2.10927 2.36078,0.10783 2.36079,0.10784 -1.83985,1.371 -1.83984,1.371 0.59337,1.8555 c 0.32635,1.02053 0.48713,1.96174 0.35728,2.09159 -0.12984,0.12984 -0.90593,-0.29445 -1.72464,-0.94288 -1.59417,-1.26261 -1.62071,-1.25952 -3.81115,0.44389 -0.76213,0.59268 -1.38569,0.95352 -1.38569,0.80188 z"
       id="path3681"
       transform="matrix(0.75000002,0,0,-0.75000002,0,131.1)" />
    <path
       style="fill:#1c1a17;fill-opacity:1;fill-rule:evenodd;stroke:#f4f0e8;stroke-width:0.369518"
       d="m 144.85093,162.31078 c 0,-0.0889 0.32254,-1.09904 0.71675,-2.24482 l 0.71674,-2.08325 -1.64709,-1.18285 c -0.9059,-0.65057 -1.51943,-1.30885 -1.3634,-1.46285 0.15603,-0.154 1.1077,-0.33155 2.11483,-0.39455 l 1.83114,-0.11455 0.54322,-1.75521 c 0.29877,-0.96536 0.65112,-1.75521 0.78299,-1.75521 0.13187,0 0.48422,0.78985 0.78299,1.75521 l 0.54322,1.75521 1.83114,0.11455 c 1.00713,0.063 1.96893,0.25067 2.13733,0.41705 0.16841,0.16637 -0.36846,0.77996 -1.19304,1.36352 -1.69578,1.20012 -1.72365,1.30057 -0.96074,3.46289 0.82212,2.33012 0.72267,2.40366 -1.27122,0.94001 l -1.8255,-1.34004 -1.86968,1.34323 c -1.02832,0.73878 -1.86968,1.27052 -1.86968,1.18166 z"
       id="path3720"
       transform="matrix(0.75000002,0,0,-0.75000002,0,131.1)" />
    <path
       style="fill:#1c1a17;fill-opacity:1;fill-rule:evenodd;stroke:#f4f0e8;stroke-width:0.369518"
       d="m 161.84875,157.2956 c 0,-0.16703 0.26812,-1.0906 0.59583,-2.05237 0.32771,-0.96178 0.53557,-1.79472 0.4619,-1.85099 -0.0737,-0.0563 -0.94769,-0.71239 -1.94228,-1.45804 l -1.80835,-1.35574 h 2.3965 2.3965 l 0.69194,-2.28534 0.69194,-2.28533 0.73102,2.28533 0.73102,2.28534 h 2.38386 2.38385 l -1.80834,1.35574 c -0.99459,0.74565 -1.86686,1.40001 -1.93838,1.45413 -0.0715,0.0541 0.15328,0.95135 0.49955,1.99386 0.34626,1.0425 0.53716,1.98788 0.4242,2.10083 -0.11295,0.11295 -0.86052,-0.31353 -1.66127,-0.94773 -0.80075,-0.63421 -1.57433,-1.1531 -1.71907,-1.1531 -0.14475,0 -0.89302,0.49885 -1.66283,1.10855 -1.45101,1.14922 -1.84759,1.32198 -1.84759,0.80486 z"
       id="path3759"
       transform="matrix(0.75000002,0,0,-0.75000002,0,131.1)" />
    <path
       style="fill:#1c1a17;fill-opacity:1;fill-rule:evenodd;stroke:#f4f0e8;stroke-width:0.369518"
       d="m 174.04283,145.66474 c 0,-0.0791 0.333,-1.1117 0.73999,-2.29466 0.407,-1.18295 0.698,-2.17859 0.64666,-2.21253 -0.0513,-0.0339 -0.89626,-0.66351 -1.8776,-1.39905 l -1.78427,-1.33735 2.30922,-0.11077 2.30921,-0.11076 0.7429,-2.21711 0.7429,-2.21711 0.68534,2.30949 0.68534,2.30949 2.29627,0.0123 2.29626,0.0123 -0.86005,0.71679 c -0.47303,0.39423 -1.2853,1.02655 -1.80504,1.40515 l -0.94499,0.68838 0.64176,1.93214 c 0.35296,1.06269 0.56822,2.00568 0.47835,2.09555 -0.0899,0.0899 -0.85365,-0.33661 -1.69728,-0.94773 -0.84363,-0.61112 -1.67768,-1.11113 -1.85345,-1.11113 -0.17577,0 -1.09177,0.5896 -2.03555,1.31023 -0.94378,0.72063 -1.71597,1.24552 -1.71597,1.1664 z"
       id="path3798"
       transform="matrix(0.75000002,0,0,-0.75000002,0,131.1)" />
    <path
       style="fill:#1c1a17;fill-opacity:1;fill-rule:evenodd;stroke:#f4f0e8;stroke-width:0.369518"
       d="m 178.96407,127.89514 c 0.14593,-0.3803 0.45513,-1.4452 0.6871,-2.36645 0.45987,-1.82632 0.53971,-1.69135 -2.21894,-3.75095 l -0.98753,-0.73728 2.27979,-0.0117 2.27978,-0.0117 0.61367,-1.84758 c 0.33752,-1.01618 0.7374,-1.84759 0.88862,-1.84759 0.15122,0 0.51939,0.78984 0.81815,1.75521 l 0.54321,1.7552 2.31625,0.18476 2.31626,0.18476 -1.82353,1.35757 -1.82353,1.35758 0.66493,1.96414 c 0.36571,1.08027 0.60398,2.02508 0.52949,2.09957 -0.0745,0.0745 -0.88007,-0.39933 -1.79018,-1.05292 -1.785,-1.28189 -1.78009,-1.28252 -4.09927,0.5227 -1.11351,0.86675 -1.39669,0.97219 -1.19427,0.4447 z"
       id="path3837"
       transform="matrix(0.75000002,0,0,-0.75000002,0,131.1)" />
    <path
       style="fill:#1c1a17;fill-opacity:1;fill-rule:evenodd;stroke:#f4f0e8;stroke-width:0.369518"
       d="m 174.41235,110.91869 c 0,-0.28861 0.25966,-1.25235 0.57701,-2.14165 0.57585,-1.61366 0.57501,-1.6184 -0.4208,-2.35595 -2.72149,-2.01567 -2.71627,-2.0059 -1.08,-2.02509 2.62948,-0.0309 2.96857,-0.26257 3.70125,-2.52923 l 0.67783,-2.096994 0.7063,2.309484 0.7063,2.30949 h 2.23816 2.23817 l -1.71597,1.31024 c -0.94378,0.72063 -1.71597,1.44799 -1.71597,1.61637 0,0.16837 0.24943,1.01307 0.55428,1.87712 0.82099,2.32692 0.722,2.40317 -1.24521,0.9591 l -1.79948,-1.32094 -1.71093,1.3064 c -1.11109,0.84838 -1.71094,1.12242 -1.71094,0.78165 z"
       id="path3876"
       transform="matrix(0.75000002,0,0,-0.75000002,0,131.1)" />
    <path
       style="fill:#1c1a17;fill-opacity:1;fill-rule:evenodd;stroke:#f4f0e8;stroke-width:0.369518"
       d="m 161.84875,98.564098 c 0,-0.179025 0.27673,-1.137668 0.61496,-2.130318 l 0.61497,-1.804818 -1.03577,-0.755252 c -2.8391,-2.070193 -2.83106,-2.022693 -0.34505,-2.03627 l 2.25099,-0.01229 0.69194,-2.285335 0.69194,-2.285335 0.73102,2.285335 0.73102,2.285335 2.23834,0.01229 2.23834,0.01229 -0.86005,0.716783 c -0.47303,0.39423 -1.29037,1.030243 -1.81631,1.413362 -0.95558,0.696092 -0.95582,0.697659 -0.34088,2.234543 1.01592,2.539033 0.83214,2.8162 -1.02165,1.54076 -0.90037,-0.619469 -1.75766,-1.126306 -1.90509,-1.126306 -0.14744,0 -0.78261,0.385919 -1.4115,0.857597 -1.62346,1.217631 -2.06722,1.44896 -2.06722,1.077625 z"
       id="path3915"
       transform="matrix(0.75000002,0,0,-0.75000002,0,131.1)" />
    <path
       style="fill:#f4f0e8;fill-opacity:1;fill-rule:evenodd;stroke:#f4f0e8;stroke-width:0.369518"
       d="m 351.22657,88.614418 c -0.40647,-0.09287 -5.64439,-1.244768 -11.63981,-2.559778 -17.30449,-3.795479 -32.75023,-7.504402 -36.8834,-8.856652 -7.55342,-2.471261 -12.34369,-5.72728 -16.46471,-11.191327 -3.61564,-4.79396 -12.07418,-16.702381 -26.58767,-37.431635 L 247.57685,11.329859 V 6.0476444 c 0,-4.5228975 0.0738,-5.20443482 0.51368,-4.7411354 0.28252,0.2975937 6.82715,10.601199 14.54362,22.8969 16.02334,25.532168 17.49352,27.83954 24.82011,38.953679 2.72519,4.134005 7.24816,7.822505 13.14838,10.722565 5.14001,2.526399 8.42119,3.638851 16.25878,5.512402 1.42264,0.340078 2.91919,0.698562 3.32566,0.796632 0.40647,0.09807 7.72292,1.744593 16.25878,3.658942 8.53586,1.914345 15.81074,3.595666 16.1664,3.73626 0.35566,0.140597 0.64665,0.487264 0.64665,0.770374 0,0.509672 -0.60265,0.586816 -2.03234,0.260155 z"
       id="path3954"
       transform="matrix(0.75000002,0,0,-0.75000002,0,131.1)" />
    <path
       style="fill:#f4f0e8;fill-opacity:1;fill-rule:evenodd;stroke:#f4f0e8;stroke-width:0.369518"
       d="M 303.69453,84.440335 C 298.21658,82.616174 291.51561,78.762559 287.71826,75.252651 286.8547,74.454456 267.28975,49.206098 251.45312,28.452862 l -3.38371,-4.434212 0.16677,-3.590467 0.16678,-3.590467 12.39061,18.001657 c 23.68429,34.40965 26.99518,38.833479 32.09095,42.878194 2.40728,1.910757 7.90183,4.861944 12.15233,6.527157 4.33794,1.69947 3.52813,1.81748 -1.34232,0.195611 z"
       id="path5510"
       transform="matrix(0.75000002,0,0,-0.75000002,0,131.1)" />
    <path
       style="fill:#f4f0e8;fill-opacity:1;fill-rule:evenodd;stroke:#f4f0e8;stroke-width:0.0600019"
       d="m 335.50072,91.978688 c -1.32005,-0.275464 -3.84463,-0.800743 -5.61018,-1.167287 -9.34917,-1.940961 -15.06476,-3.20542 -19.59063,-4.334033 -2.06121,-0.514004 -2.65039,-0.680572 -2.49008,-0.703974 0.30256,-0.04416 0.32503,-0.265656 0.051,-0.502773 -0.11056,-0.09568 -0.16052,-0.16052 -0.11102,-0.144095 5.76947,1.914283 10.04755,2.934539 25.36461,6.049073 2.58168,0.524951 4.762,0.971534 4.84516,0.992406 0.18282,0.04589 0.22401,0.329603 0.0462,0.318238 -0.0577,-0.0037 -1.18504,-0.232091 -2.50508,-0.507555 z"
       id="path5549"
       transform="matrix(0.75000002,0,0,-0.75000002,0,131.1)" />
    <path
       style="fill:#f4f0e8;fill-opacity:1;fill-rule:evenodd;stroke:#f4f0e8;stroke-width:0.0600019"
       d="m 333.52065,91.199569 c -6.45946,-1.322468 -8.03469,-1.650538 -10.83034,-2.255617 -11.94131,-2.584525 -16.04627,-3.91889 -23.55075,-7.655447 -0.56102,-0.279336 -0.99228,-0.478789 -0.95836,-0.443228 0.10502,0.110092 3.29643,1.69723 4.49847,2.237157 0.62702,0.281642 1.80156,0.778769 2.61008,1.104726 0.80853,0.325957 1.74006,0.728306 2.07007,0.894108 0.51963,0.261071 0.60002,0.321556 0.60002,0.451464 0,0.245358 -0.36376,0.229801 -1.42967,-0.06114 -4.7086,-1.285232 -9.39086,-3.414129 -13.90082,-6.320339 -2.04057,-1.314935 -4.23646,-2.999448 -5.10459,-3.915838 -0.58441,-0.616906 -4.3531,-5.393083 -10.10266,-12.803419 -1.21624,-1.56755 -2.23759,-2.883842 -2.26967,-2.925093 -0.0463,-0.05955 0.24508,-0.075 1.41429,-0.075 h 1.47262 l 0.94757,1.335043 c 3.7855,5.333442 7.17993,9.839839 9.05055,12.015384 1.69533,1.971689 3.40716,3.638961 4.9219,4.793803 l 0.30001,0.228727 -0.26795,-0.231192 c -3.4296,-2.959139 -5.95492,-5.87943 -10.81076,-12.501584 -1.27755,-1.742275 -4.01177,-5.567048 -4.01177,-5.61189 0,-0.01901 0.13995,-0.0264 0.31101,-0.01643 l 0.31101,0.01814 1.20404,1.686838 c 5.15853,7.227031 8.18243,11.053528 10.83226,13.707312 2.91602,2.920383 4.59406,4.047106 9.75239,6.548247 4.18157,2.027535 6.8726,3.092934 10.56034,4.180922 3.9571,1.167457 9.92876,2.541945 18.9006,4.350331 1.88106,0.379151 3.67662,0.742621 3.99013,0.807712 1.37058,0.284558 3.24496,0.67733 3.64512,0.763823 l 0.43501,0.09403 v 0.265916 c 0,0.146254 -0.0202,0.263206 -0.045,0.259894 -0.0248,-0.0033 -2.07007,-0.420622 -4.54515,-0.927352 z M 293.46937,77.949836 c 0,-0.01246 -0.0473,-0.05971 -0.105,-0.105003 -0.0952,-0.07464 -0.0973,-0.07251 -0.0226,0.02265 0.0784,0.09995 0.12765,0.131733 0.12765,0.08235 z"
       id="path5588"
       transform="matrix(0.75000002,0,0,-0.75000002,0,131.1)" />
    <path
       style="fill:#f4f0e8;fill-opacity:1;fill-rule:evenodd;stroke:#f4f0e8;stroke-width:0.0600019"
       d="m 297.93952,82.361792 c -1.3724,-0.667803 -3.18596,-1.673362 -3.12604,-1.733282 0.0154,-0.01542 0.27957,0.115023 0.58701,0.28987 0.30743,0.174847 1.26099,0.676324 2.11901,1.114394 1.69189,0.863802 1.97532,1.085825 0.42002,0.329018 z"
       id="path5627"
       transform="matrix(0.75000002,0,0,-0.75000002,0,131.1)" />
    <path
       style="fill:#f4f0e8;fill-opacity:1;fill-rule:evenodd;stroke:#f4f0e8;stroke-width:0.0600019"
       d="m 333.76066,91.259653 c -11.24253,-2.307599 -14.76999,-3.076024 -18.89366,-4.115802 -3.37649,-0.851379 -6.35115,-1.761184 -8.4907,-2.596896 -0.47493,-0.185509 -0.87201,-0.328801 -0.88238,-0.318425 -0.0104,0.01037 0.3512,0.174251 0.80351,0.364167 0.45231,0.189916 1.01139,0.445366 1.24239,0.567666 0.34872,0.184618 0.42002,0.247828 0.42002,0.372369 0,0.143656 -0.0152,0.149884 -0.36001,0.147145 -0.9721,-0.0077 -5.18379,-1.431308 -7.97395,-2.695256 -4.46823,-2.024121 -9.50634,-5.214022 -11.87902,-7.521256 -0.63815,-0.620551 -2.69516,-3.206671 -9.14819,-11.501322 l -3.50099,-4.500144 1.42941,-0.01612 c 0.78618,-0.0089 1.45992,-0.0044 1.49721,0.0099 0.0373,0.01431 0.49544,0.62908 1.01813,1.366162 3.34233,4.713281 6.71405,9.21588 8.50716,11.360469 1.36052,1.627213 3.247,3.586686 4.29973,4.466098 0.45529,0.380331 0.4021,0.324147 -0.59778,-0.63138 -2.46468,-2.355361 -4.84417,-5.199261 -8.5301,-10.194921 -1.47755,-2.002562 -4.55255,-6.292127 -4.55255,-6.350703 0,-0.02173 0.14175,-0.03907 0.31501,-0.03854 l 0.31501,9.66e-4 0.84002,1.181138 c 3.0187,4.244505 5.89831,8.094042 7.73272,10.337298 2.23026,2.727331 4.44734,4.994864 6.30773,6.451287 0.58252,0.45603 2.09599,1.477499 2.46008,1.660358 0.099,0.04972 0.42301,0.233325 0.72002,0.408005 0.62392,0.366944 3.5682,1.848636 5.19017,2.611918 6.64808,3.128521 11.60013,4.502777 28.86092,8.009256 2.09557,0.425708 4.54929,0.924328 5.45272,1.108045 0.90343,0.183717 1.6662,0.34862 1.69505,0.366451 0.085,0.05252 0.0643,0.566238 -0.0225,0.559764 -0.0412,-0.0031 -1.96506,-0.39354 -4.27514,-0.867697 z m -28.62091,-7.198279 c -0.16501,-0.07773 -0.32701,-0.140738 -0.36001,-0.140017 -0.033,7.2e-4 0.075,0.06491 0.24,0.14264 0.16501,0.07773 0.32701,0.140738 0.36001,0.140017 0.033,-7.2e-4 -0.075,-0.06491 -0.24,-0.14264 z m -0.45651,-0.175191 c -0.0146,-0.01457 -0.33634,-0.160135 -0.71503,-0.323471 -1.08902,-0.469712 -1.97527,-0.877896 -3.29339,-1.516833 -0.67365,-0.326543 -1.23378,-0.584757 -1.24472,-0.573808 -0.037,0.03695 2.8593,1.431954 4.01899,1.93577 1.03948,0.451596 1.31367,0.55787 1.23415,0.478342 z"
       id="path5666"
       transform="matrix(0.75000002,0,0,-0.75000002,0,131.1)" />
    <path
       style="fill:#f4f0e8;fill-opacity:1;fill-rule:evenodd;stroke:#f4f0e8;stroke-width:0.0600019"
       d="m 336.49075,91.830869 c -0.77553,-0.160147 -3.39461,-0.699245 -5.82019,-1.197997 -10.60293,-2.180193 -15.08481,-3.206674 -19.26061,-4.411249 -1.4313,-0.412878 -3.63968,-1.131785 -4.58437,-1.492372 -0.22783,-0.08696 -0.42309,-0.149253 -0.43392,-0.138426 -0.0108,0.01083 0.24308,0.136668 0.56424,0.279645 0.81465,0.362677 1.04601,0.516595 1.0227,0.680391 -0.0294,0.206695 -0.41363,0.20077 -1.29556,-0.01998 -0.89774,-0.224707 -2.96288,-0.891132 -4.19952,-1.355194 -4.77596,-1.792226 -10.23556,-4.899332 -13.75416,-7.827604 -1.05284,-0.876202 -1.29816,-1.143256 -2.94789,-3.208981 -2.33284,-2.92108 -10.67268,-13.606474 -10.67268,-13.674327 0,-0.01808 0.65264,-0.03288 1.45032,-0.03288 1.27877,0 1.46361,0.01202 1.56263,0.10164 0.10555,0.09552 0.10996,0.09552 0.0733,0 -0.0337,-0.08793 0.006,-0.10164 0.2912,-0.10164 h 0.3302 l 1.03705,1.455047 c 3.03792,4.262402 6.2188,8.489121 7.91347,10.515336 1.02077,1.220461 2.24462,2.567391 3.21127,3.534229 2.09869,2.099083 3.46207,3.142272 5.95672,4.557785 1.33328,0.756533 5.68495,2.863769 7.66477,3.711564 5.20783,2.230082 10.95885,3.7411 25.53082,6.707939 2.8406,0.578343 7.48578,1.52872 7.81525,1.598952 0.15263,0.03254 0.165,0.05711 0.165,0.327684 0,0.240654 -0.0186,0.291543 -0.105,0.28706 -0.0577,-0.003 -0.73953,-0.136478 -1.51505,-0.296625 z M 291.48931,76.272895 c 0,-0.01075 -0.0743,-0.085 -0.165,-0.165005 l -0.16501,-0.145463 0.14546,0.165005 c 0.13596,0.154222 0.18455,0.192521 0.18455,0.145463 z m -1.50511,-1.495506 c -1.28443,-1.360099 -2.24451,-2.464721 -3.52016,-4.05013 -0.51116,-0.63527 -0.94194,-1.155037 -0.95731,-1.155037 -0.068,0 2.08744,2.663523 2.94124,3.634546 0.65526,0.745231 2.54493,2.725658 2.60075,2.725658 0.0144,0 -0.46459,-0.519767 -1.06452,-1.155037 z m -4.49508,-5.287823 c 0,-0.01246 -0.0473,-0.05971 -0.105,-0.105003 -0.0952,-0.07464 -0.0973,-0.07251 -0.0227,0.02265 0.0784,0.09995 0.12766,0.131733 0.12766,0.08235 z m -7.08023,-9.660308 c 0,-0.01246 -0.0472,-0.05971 -0.105,-0.105004 -0.0952,-0.07463 -0.0973,-0.07251 -0.0226,0.02266 0.0784,0.09995 0.12765,0.131732 0.12765,0.08235 z"
       id="path5705"
       transform="matrix(0.75000002,0,0,-0.75000002,0,131.1)" />
    <path
       style="fill:#f4f0e8;fill-opacity:1;fill-rule:evenodd;stroke:#f4f0e8;stroke-width:0.0600019"
       d="m 337.66079,92.390777 c -0.066,-0.01554 -0.97053,-0.202968 -2.01007,-0.416505 -5.21988,-1.072253 -13.3588,-2.78989 -17.01054,-3.589905 -4.89309,-1.071967 -10.92044,-2.545651 -10.71798,-2.620543 0.14121,-0.05224 0.1662,-0.226936 0.0607,-0.42414 -0.055,-0.10277 -0.0512,-0.119082 0.0215,-0.09119 0.0487,0.01868 0.6526,0.211167 1.34203,0.427745 3.22773,1.013962 6.39693,1.834254 11.14279,2.884112 3.76731,0.833386 10.39492,2.211363 10.4875,2.180504 0.0306,-0.01022 -0.57247,-0.148794 -1.34025,-0.307951 -11.61543,-2.407818 -16.28982,-3.527327 -20.68323,-4.95361 -0.60867,-0.197599 -1.12613,-0.347246 -1.14991,-0.332548 -0.0238,0.0147 -0.0523,0.0011 -0.0634,-0.03026 -0.0111,-0.03134 -0.24385,-0.135988 -0.5173,-0.232544 -0.27345,-0.09656 -0.48617,-0.164549 -0.47272,-0.151095 0.0135,0.01345 0.27583,0.151682 0.58306,0.307173 0.57636,0.291706 0.70306,0.405755 0.63828,0.574565 -0.0838,0.218293 -0.95516,0.05871 -2.80152,-0.513065 -3.75149,-1.161743 -7.34689,-2.785294 -11.04035,-4.98542 -1.89062,-1.126202 -4.23145,-2.761515 -5.54434,-3.873286 -1.07509,-0.910394 -1.2917,-1.159876 -4.12469,-4.750525 -3.07715,-3.900104 -9.30689,-11.905102 -9.34158,-12.003604 -0.0315,-0.08946 2.88834,-0.07454 2.97809,0.01522 0.056,0.056 0.072,0.05534 0.072,-0.003 0,-0.05338 0.0994,-0.06981 0.34501,-0.057 l 0.34501,0.01799 1.15822,1.620052 c 3.7758,5.281378 6.76707,9.193325 8.79403,11.500721 2.87817,3.27638 5.10564,5.178104 7.95832,6.794509 1.33291,0.755262 4.99224,2.548486 7.26023,3.557822 5.39274,2.399954 11.51376,4.013977 27.39088,7.222577 2.29919,0.464643 6.49865,1.327224 6.58521,1.352621 0.082,0.02406 0.105,0.09691 0.105,0.332407 V 92.1442 l -0.31501,-0.03361 -0.31501,-0.0336 0.24013,0.07298 c 0.30046,0.09131 0.40155,0.155568 0.35733,0.227127 -0.0356,0.05757 -0.20715,0.0632 -0.41745,0.01368 z m -0.33001,-0.373135 c -0.25216,-0.07562 -0.56347,-0.128152 -0.52369,-0.08837 0.0478,0.04777 0.39625,0.131083 0.55369,0.132375 0.0924,7.56e-4 0.0854,-0.0094 -0.03,-0.044 z m -0.66003,-0.117775 c -0.1159,-0.06364 -1.44327,-0.323712 -1.4775,-0.289482 -0.0143,0.01426 0.3056,0.09429 0.71079,0.177857 0.83409,0.172014 0.89206,0.180454 0.76671,0.111625 z m -1.60505,-0.346679 c -0.0412,-0.01665 -0.10875,-0.01665 -0.15,0 -0.0412,0.01664 -0.007,0.03026 0.075,0.03026 0.0825,0 0.11625,-0.01362 0.075,-0.03026 z m -0.46501,-0.08191 c -0.15987,-0.0713 -1.7134,-0.375023 -1.7469,-0.341522 -0.023,0.02304 1.65114,0.386997 1.8069,0.392808 0.033,0.0012 0.006,-0.02185 -0.06,-0.05129 z m -1.83506,-0.382275 c -0.0433,-0.04142 -1.62434,-0.346817 -1.65204,-0.319116 -0.0145,0.01452 0.30513,0.09477 0.71032,0.178329 0.71916,0.148312 0.99229,0.189145 0.94172,0.140787 z m -43.25638,-16.79486 c 0,-0.01003 -0.10126,-0.11128 -0.22501,-0.225007 l -0.22501,-0.206777 0.20678,0.225008 c 0.19246,0.209431 0.24324,0.252595 0.24324,0.206776 z m -0.96003,-1.061804 c -0.238,-0.264008 -0.44623,-0.480015 -0.46273,-0.480015 -0.0165,0 0.16473,0.216007 0.40273,0.480015 0.238,0.264009 0.44622,0.480016 0.46272,0.480016 0.0165,0 -0.16472,-0.216007 -0.40272,-0.480016 z M 288.0692,72.67278 c 0,-0.01075 -0.0743,-0.085 -0.165,-0.165005 l -0.16501,-0.145463 0.14546,0.165005 c 0.13596,0.154222 0.18455,0.192521 0.18455,0.145463 z m -0.30001,-0.361171 c 0,-0.01139 -0.0607,-0.07214 -0.135,-0.135004 l -0.13501,-0.114303 0.11431,0.135004 c 0.10741,0.126871 0.1557,0.16232 0.1557,0.114303 z"
       id="path5744"
       transform="matrix(0.75000002,0,0,-0.75000002,0,131.1)" />
    <path
       style="fill:#f4f0e8;fill-opacity:1;fill-rule:evenodd;stroke:#f4f0e8;stroke-width:0.0600019"
       d=""
       id="path5783"
       transform="matrix(0.75000002,0,0,-0.75000002,0,131.1)" />
    <path
       style="fill:#f4f0e8;fill-opacity:1;fill-rule:evenodd;stroke:#f4f0e8;stroke-width:0.0600019"
       d=""
       id="path5822"
       transform="matrix(0.75000002,0,0,-0.75000002,0,131.1)" />
    <path
       style="fill:#f4f0e8;fill-opacity:1;fill-rule:evenodd;stroke:#f4f0e8;stroke-width:0.0600019"
       d=""
       id="path5861"
       transform="matrix(0.75000002,0,0,-0.75000002,0,131.1)" />
    <path
       style="fill:#f4f0e8;fill-opacity:1;fill-rule:evenodd;stroke:#f4f0e8;stroke-width:0.027926"
       d="m 286.61596,74.402003 c -0.24475,-0.249619 -0.56861,-0.598371 -0.71969,-0.775003 -0.40487,-0.473343 -2.19161,-2.780289 -7.90534,-10.206967 -1.28803,-1.674166 -2.40379,-3.12248 -2.47947,-3.218476 -0.0917,-0.116302 -0.12325,-0.174538 -0.0946,-0.174538 0.0237,0 0.16695,0.160226 0.31839,0.356057 5.07615,6.563908 10.78732,13.837691 11.27001,14.353566 0.0465,0.04969 0.078,0.09684 0.0701,0.104777 -0.008,0.0079 -0.21468,-0.189797 -0.45942,-0.439416 z"
       id="path5900"
       transform="matrix(0.75000002,0,0,-0.75000002,0,131.1)" />
    <path
       style="fill:#f4f0e8;fill-opacity:1;fill-rule:evenodd;stroke:#f4f0e8;stroke-width:0.027926"
       d=""
       id="path5939"
       transform="matrix(0.75000002,0,0,-0.75000002,0,131.1)" />
    <path
       style="fill:#f4f0e8;fill-opacity:1;fill-rule:evenodd;stroke:#f4f0e8;stroke-width:0.027926"
       d="m 305.56671,85.239932 c -2.46427,-0.742694 -5.06816,-1.762442 -7.28869,-2.854425 -0.4711,-0.231669 -0.42251,-0.196255 0.15359,0.11195 0.46632,0.249474 0.51663,0.280639 0.51663,0.320031 0,0.02953 -0.0185,0.02162 -0.73655,-0.314593 -1.13648,-0.532136 -3.24286,-1.673085 -3.36868,-1.824689 -0.0967,-0.116557 0.0495,-0.05318 0.74014,0.320801 0.12288,0.06653 0.21084,0.108621 0.19549,0.09352 -0.0154,-0.0151 -0.20386,-0.126117 -0.4189,-0.246712 -2.20248,-1.235213 -4.53171,-2.78286 -6.23586,-4.143393 -0.96082,-0.767082 -1.46556,-1.241612 -2.03851,-1.916495 -0.82897,-0.976438 -3.46069,-4.310859 -7.97657,-10.106413 -1.9542,-2.507956 -3.59051,-4.621917 -3.59051,-4.638603 0,-0.0079 0.85001,-0.01106 1.8889,-0.0071 l 1.88889,0.0072 0.61138,0.851745 c 4.72792,6.58673 7.45499,10.10924 9.79378,12.650495 1.9652,2.135326 3.65429,3.622232 5.50491,4.84596 1.2596,0.832913 2.59582,1.560297 5.05461,2.751519 2.5636,1.241997 3.95714,1.878029 5.34784,2.440845 0.21503,0.08702 0.40059,0.167675 0.41235,0.179229 0.0118,0.01155 0.018,0.380336 0.014,0.819518 l -0.007,0.798512 z m -9.46693,-3.974593 c 0,-0.0074 -0.0503,-0.03904 -0.1117,-0.07038 -0.0614,-0.03134 -0.1117,-0.05075 -0.1117,-0.04312 0,0.0076 0.0471,0.03874 0.10472,0.06915 0.11849,0.06255 0.11868,0.06263 0.11868,0.04436 z"
       id="path5978"
       transform="matrix(0.75000002,0,0,-0.75000002,0,131.1)" />
    <path
       style="fill:#f4f0e8;fill-opacity:1;fill-rule:evenodd;stroke:#f4f0e8;stroke-width:0.027926"
       d="m 294.01728,80.208433 c -1.07723,-0.673998 -2.68863,-1.763756 -2.65611,-1.796275 0.007,-0.0065 0.29308,0.175468 0.63683,0.404392 0.95273,0.63449 2.33283,1.496401 2.74277,1.712939 0.0598,0.03159 0.0651,0.04421 0.0354,0.08455 -0.0314,0.04272 -0.10666,0.0025 -0.75892,-0.405608 z"
       id="path6017"
       transform="matrix(0.75000002,0,0,-0.75000002,0,131.1)" />
    <path
       style="fill:#f4f0e8;fill-opacity:1;fill-rule:evenodd;stroke:#f4f0e8;stroke-width:0.0425756"
       d="m 350.73794,95.090892 c -1.1237,-0.212203 -4.99453,-0.996018 -9.26827,-1.876753 -2.66346,-0.548887 -3.36214,-0.706134 -3.32679,-0.748733 0.0246,-0.02966 0.0327,-0.102069 0.0179,-0.160915 -0.0148,-0.05885 -0.0167,-0.106992 -0.004,-0.106992 0.10038,0 5.58218,1.169406 7.98336,1.703051 2.39996,0.533374 5.60186,1.295222 5.65901,1.346482 0.0448,0.0402 -0.25431,-0.0038 -1.06084,-0.15614 z"
       id="path6056"
       transform="matrix(0.75000002,0,0,-0.75000002,0,131.1)" />
    <path
       style="fill:#f4f0e8;fill-opacity:1;fill-rule:evenodd;stroke:#f4f0e8;stroke-width:1.24473"
       d="m 658.46005,123.22787 v -50.4114 h 3.73418 3.73417 v 50.4114 50.41141 h -3.73417 -3.73418 z"
       id="path6095"
       transform="matrix(0.75000002,0,0,-0.75000002,0,131.1)" />
  </g>
</svg>
