<?xml version="1.0" encoding="UTF-8" standalone="no"?>
<!-- Generator: Adobe Illustrator 17.0.0, SVG Export Plug-In . SVG Version: 6.00 Build 0)  -->

<svg
   width="1200"
   height="430"
   version="1.1"
   id="svg844"
   sodipodi:docname="noaa-logo.svg"
   inkscape:version="1.1.1 (c3084ef, 2021-09-22)"
   xmlns:inkscape="http://www.inkscape.org/namespaces/inkscape"
   xmlns:sodipodi="http://sodipodi.sourceforge.net/DTD/sodipodi-0.dtd"
   xmlns="http://www.w3.org/2000/svg"
   xmlns:svg="http://www.w3.org/2000/svg">
  <defs
     id="defs848" />
  <sodipodi:namedview
     id="namedview846"
     pagecolor="#ffffff"
     bordercolor="#666666"
     borderopacity="1.0"
     inkscape:pageshadow="2"
     inkscape:pageopacity="0.0"
     inkscape:pagecheckerboard="0"
     showgrid="false"
     inkscape:zoom="0.58382154"
     inkscape:cx="512.99923"
     inkscape:cy="226.95292"
     inkscape:window-width="1312"
     inkscape:window-height="847"
     inkscape:window-x="0"
     inkscape:window-y="25"
     inkscape:window-maximized="0"
     inkscape:current-layer="svg844" />
  <title
     id="title824">NOAA logo mobile</title>
  <path
     style="fill:#f4f0e8;fill-rule:evenodd;stroke:#f4f0e8;stroke-width:1.04987"
     d="M 190.02625,397.75827 C 121.28505,387.34574 63.89808,338.93459 42.096348,272.96588 31.58756,241.1679 29.762687,210.79278 36.356622,177.42782 c 0.912939,-4.61942 1.821909,-8.57138 2.019935,-8.78212 0.198025,-0.21075 3.573444,1.41213 7.500931,3.6064 8.909372,4.97762 15.158079,10.82636 30.767083,28.79777 14.465642,16.655 21.793929,23.77218 32.541779,31.60438 13.13033,9.56835 21.536,14.6066 31.62867,18.95778 21.53581,9.2846 33.01588,12.04012 57.61018,13.82795 l 17.32283,1.25924 -10.94215,5.63461 c -6.22386,3.20494 -18.81145,8.21459 -29.19185,11.61786 -10.03734,3.29078 -18.27342,6.41717 -18.30242,6.94753 -0.20136,3.68337 13.44478,7.78844 25.89049,7.78844 14.32428,0 23.9985,-3.41063 46.17168,-16.27778 21.64171,-12.55873 43.37698,-20.81898 58.05339,-22.06256 15.2474,-1.29197 16.14004,-1.51168 15.78579,-3.88537 -0.17921,-1.20068 -1.66857,-3.17533 -3.30972,-4.38811 -2.78652,-2.05923 -4.15505,-2.19012 -20.69042,-1.97903 l -17.70653,0.22604 13.34134,-6.7819 c 16.10407,-8.18629 27.77039,-16.67328 42.77073,-31.11473 15.12675,-14.56314 26.13821,-27.49304 47.20235,-55.42601 20.29336,-26.91085 17.95016,-26.05649 24.627,-8.97931 13.894,35.53629 16.37099,76.21385 6.87436,112.89207 -9.10455,35.1639 -29.93606,69.15839 -56.68952,92.51043 -27.31452,23.84175 -59.45464,38.75844 -95.66334,44.39875 -13.21305,2.05822 -40.1505,2.02733 -53.94296,-0.0618 z"
     id="path967" />
  <path
     style="fill:#f4f0e8;fill-rule:evenodd;stroke:#f4f0e8;stroke-width:1.04987"
     d="M 219.94751,249.68019 C 202.10072,245.6859 185.28328,236.06948 166.73933,219.25512 154.60326,208.25097 149.35516,202.12573 131.65885,178.31148 108.43835,147.0632 89.902923,127.90335 71.663763,116.29526 l -7.60133,-4.83777 2.807604,-3.76024 C 97.177793,67.105889 137.7387,41.558771 185.64021,32.890361 c 17.43519,-3.155129 46.0369,-3.134719 63.63086,0.04541 41.73362,7.543397 79.82789,29.187295 107.86405,61.284766 4.59525,5.260935 5.02093,6.117803 3.33171,6.706593 -9.40168,3.27704 -19.32198,9.0415 -24.30867,14.12521 -8.12911,8.28727 -19.39577,25.62135 -27.21259,41.86741 -25.79496,53.61081 -29.55276,59.7849 -45.89869,75.41171 -14.89928,14.24381 -29.93329,20.29543 -43.09937,17.34873 z"
     id="path1006" />
  <path
     style="fill:#f4f0e8;fill-rule:evenodd;stroke:#f4f0e8;stroke-width:1.04987"
     d="m 527.03412,219.42257 v -97.11286 l 53.28084,0.0103 53.28084,0.0103 5.24934,2.48163 c 6.30909,2.98262 10.1665,6.90141 13.03842,13.24588 2.09559,4.62947 2.13903,6.47023 2.16163,91.60105 l 0.023,86.87664 h -20.99737 -20.99738 v -76.58089 -76.58088 l -2.33334,-1.63434 c -1.87043,-1.3101 -5.59139,-1.63433 -18.75605,-1.63433 -15.02471,0 -16.6582,0.18523 -19.18897,2.17593 l -2.76626,2.17594 v 76.03929 76.03928 H 548.0315 527.03412 Z"
     id="path1045" />
  <path
     style="fill:#f4f0e8;fill-rule:evenodd;stroke:#f4f0e8;stroke-width:1.04987"
     d="m 718.76902,314.99405 c -5.92925,-2.11353 -11.30602,-6.89344 -14.30237,-12.71469 l -2.62938,-5.1083 -0.28944,-75.52065 c -0.31848,-83.09578 -0.36887,-82.34268 6.026,-90.05962 1.75121,-2.11325 5.63973,-5.066 8.64115,-6.56168 l 5.45713,-2.7194 h 41.40435 c 29.4394,0 42.65309,0.36896 45.72562,1.27676 5.76676,1.70385 14.46403,10.40112 16.16787,16.16788 1.78189,6.03089 1.83583,153.14918 0.0584,159.08193 -1.72578,5.76014 -7.73845,12.31638 -13.94628,15.20708 -5.29654,2.46635 -5.39517,2.47149 -46.77755,2.43574 -32.52902,-0.0281 -42.34635,-0.34828 -45.53543,-1.48505 z m 62.66483,-37.46093 c 1.26125,-0.66387 2.64028,-1.72686 3.06451,-2.3622 0.42423,-0.63535 0.77856,-25.84021 0.7874,-56.01082 0.0157,-53.46694 -0.0371,-54.90879 -2.08366,-56.95538 -1.92525,-1.92525 -3.49956,-2.09973 -18.94536,-2.09973 -16.48565,0 -16.90069,0.0551 -19.42257,2.57695 l -2.57695,2.57695 v 54.16368 54.16369 l 2.57695,2.57694 c 2.50864,2.50865 2.99747,2.57696 18.44172,2.57696 9.92406,0 16.72348,-0.45199 18.15796,-1.20704 z"
     id="path1084" />
  <path
     style="fill:#f4f0e8;fill-rule:evenodd;stroke:#f4f0e8;stroke-width:1.04987"
     d="m 1039.3701,230.30553 c 0,-62.40359 0.3366,-87.35359 1.2184,-90.29667 1.5777,-5.26598 7.3044,-11.90631 12.8051,-14.84822 4.2588,-2.27766 5.2489,-2.33236 47.644,-2.63223 28.3866,-0.20079 44.7299,0.0802 47.4624,0.81598 6.3885,1.72024 12.7921,7.13925 16.0669,13.59649 l 2.8872,5.69285 v 86.95085 86.95085 h -20.9974 -20.9974 v -36.7454 c 0,-35.34559 -0.08,-36.8254 -2.0997,-38.84515 -1.9351,-1.93505 -3.4996,-2.09974 -19.9475,-2.09974 -16.448,0 -18.0125,0.16469 -19.9475,2.09974 -2.0198,2.01975 -2.0998,3.49956 -2.0998,38.84515 v 36.7454 h -20.9973 -20.9974 z m 84.0846,-32.25911 c 1.7712,-2.18992 2.0046,-4.28974 2.0046,-18.03404 0,-20.64581 0.8061,-19.90739 -21.7329,-19.90739 -15.6646,0 -19.6111,0.6534 -21.5581,3.56924 -0.4242,0.63534 -0.7786,8.28667 -0.7874,17.00295 -0.022,21.23892 -1.0241,20.38072 23.4386,20.06345 16.0869,-0.20865 16.696,-0.29671 18.6352,-2.69421 z"
     id="path1123" />
  <path
     style="fill:#f4f0e8;fill-rule:evenodd;stroke:#f4f0e8;stroke-width:1.04987"
     d="m 866.37524,229.13386 0.29143,-87.40158 3.10999,-5.6147 c 3.22257,-5.81794 8.74575,-10.40628 15.15691,-12.59148 4.66284,-1.58931 87.05525,-1.69471 92.7302,-0.11864 6.17668,1.71542 12.55719,7.18943 15.77455,13.53342 l 2.88714,5.69285 v 86.95085 86.95085 h -21.52231 -21.52231 v -36.7454 c 0,-35.34559 -0.08,-36.8254 -2.09974,-38.84515 -1.93287,-1.93287 -3.49956,-2.09974 -19.7139,-2.09974 -14.24302,0 -18.06074,0.3128 -19.94751,1.63434 l -2.33334,1.63434 v 37.2108 37.21081 h -21.55127 -21.55127 z m 84.69885,-30.60891 c 2.0588,-1.86591 2.20675,-3.07503 2.20675,-18.03525 0,-21.6286 1.10026,-20.72553 -24.60844,-20.19834 -14.9096,0.30574 -16.65433,0.53612 -17.99807,2.37649 -1.12894,1.5462 -1.48798,5.87677 -1.48798,17.94752 0,21.29217 -0.98064,20.44342 23.25257,20.12526 14.50036,-0.19038 16.6874,-0.45042 18.63517,-2.21568 z"
     id="path1162" />
</svg>
