<?xml version="1.0" encoding="UTF-8" standalone="no"?>
<svg
   width="2500"
   height="2500"
   viewBox="0 0 192.756 192.756"
   version="1.1"
   id="svg856"
   sodipodi:docname="unhcr-logo.svg"
   inkscape:version="1.1.1 (c3084ef, 2021-09-22)"
   xmlns:inkscape="http://www.inkscape.org/namespaces/inkscape"
   xmlns:sodipodi="http://sodipodi.sourceforge.net/DTD/sodipodi-0.dtd"
   xmlns="http://www.w3.org/2000/svg"
   xmlns:svg="http://www.w3.org/2000/svg">
  <defs
     id="defs860" />
  <sodipodi:namedview
     id="namedview858"
     pagecolor="#ffffff"
     bordercolor="#666666"
     borderopacity="1.0"
     inkscape:pageshadow="2"
     inkscape:pageopacity="0.0"
     inkscape:pagecheckerboard="0"
     showgrid="false"
     inkscape:zoom="0.17222206"
     inkscape:cx="926.1299"
     inkscape:cy="1013.2268"
     inkscape:window-width="1312"
     inkscape:window-height="847"
     inkscape:window-x="0"
     inkscape:window-y="25"
     inkscape:window-maximized="0"
     inkscape:current-layer="svg856" />
  <path
     style="fill:#f4f0e8;fill-rule:evenodd;stroke:#f4f0e8;stroke-width:4"
     d="m 529.25149,1341.4252 c -2.67562,-3.2738 -4.2921,-22.0804 -4.07634,-47.4252 0.31265,-36.7259 -0.93625,-45.0138 -9.94557,-66 -5.66672,-13.2 -12.22142,-33.1182 -14.56599,-44.2626 -2.34457,-11.1444 -8.85302,-34.3242 -14.46322,-51.5106 C 474.55667,1096.5573 472.87491,1074 481.85926,1074 c 7.12015,0 12.46548,9.4511 26.01672,46 8.05403,21.7225 12.33877,28.2824 19.1114,29.2597 11.56342,1.6685 15.49736,-13.5754 8.78644,-34.0473 -7.75525,-23.6576 -13.93384,-30.8891 -52.25102,-61.1554 -19.66334,-15.5319 -39.29334,-34.0486 -43.62221,-41.1484 C 431.56574,999.23872 429.34844,982 435.92502,982 c 2.15876,0 16.10876,11.29451 31,25.0989 14.89124,13.8044 42.22868,38.5544 60.74988,55 18.52119,16.4456 38.77119,36.9212 45,45.5013 11.10962,15.3033 11.31943,16.5971 11.02726,68 -0.3236,56.9304 -8.22932,160.2603 -12.5955,164.6265 -5.77722,5.7772 -37.37371,6.682 -41.85517,1.1985 z"
     id="path979"
     transform="scale(0.0771024)" />
  <path
     style="fill:#f4f0e8;fill-rule:evenodd;stroke:#f4f0e8;stroke-width:4"
     d="m 281.83077,1343.3765 c -7.47174,-1.5687 -8.58508,-6.5674 -13.03984,-58.5458 -2.67884,-31.2569 -4.85269,-80.9608 -4.83077,-110.4531 0.038,-51.0745 0.51737,-54.2485 10.08939,-66.7981 15.4034,-20.1949 133.93393,-126.06185 138.19358,-123.42924 13.62631,8.42152 -7.10431,38.53344 -47.91764,69.60194 -17.37073,13.2232 -35.35094,28.8322 -39.95602,34.6866 -17.92613,22.7894 -21.03445,61.5612 -4.93532,61.5612 7.78012,0 13.01701,-9.121 25.01299,-43.5646 8.4524,-24.2691 14.00209,-32.4354 22.04264,-32.4354 7.51795,0 7.15392,22.3793 -0.72381,44.4971 -3.42872,9.6266 -11.56276,37.0081 -18.07565,60.8478 -6.51289,23.8397 -14.86919,49.0397 -18.56955,56 -4.74102,8.9178 -7.37659,26.8307 -8.92435,60.6551 L 318,1344 l -14,0.5458 c -7.7,0.3002 -17.67615,-0.226 -22.16923,-1.1693 z"
     id="path1018"
     transform="scale(0.0771024)" />
  <path
     style="fill:#f4f0e8;fill-rule:evenodd;stroke:#f4f0e8;stroke-width:4"
     d="M 402.66667,1343.3333 C 401.2,1341.8667 400,1330.5935 400,1318.2818 c 0,-19.3772 -1.2092,-22.9153 -9,-26.3333 -8.69562,-3.815 -9.04115,-6.0453 -10.21675,-65.9485 -1.39663,-71.166 1.73285,-87.0003 19.13435,-96.814 13.52435,-7.6271 15.28444,-17.3912 6.2754,-34.8128 -11.85947,-22.9337 5.04036,-45.4449 26.22869,-34.9377 11.96168,5.9318 14.2689,21.7588 5.61227,38.4988 -7.49074,14.4855 -4.97087,26.5945 6.27722,30.1645 17.81108,5.653 19.94868,16.1619 18.78339,92.3434 -1.08275,70.7849 -1.19178,71.5716 -10.09457,72.836 -8.26776,1.1742 -9,3.3709 -9,27 V 1346 h -19.33333 c -10.63334,0 -20.53334,-1.2 -22,-2.6667 z"
     id="path1057"
     transform="scale(0.0771024)" />
  <path
     style="fill:#f4f0e8;fill-rule:evenodd;stroke:#f4f0e8;stroke-width:4"
     d="m 934,1346.4822 c -37.80727,-9.7872 -65.75251,-35.223 -75.77426,-68.9699 C 853.30737,1260.9504 852,1235.2811 852,1155.274 V 1054 h 43.8106 43.81059 l 1.18941,103.8957 c 1.1384,99.4405 1.55016,104.2562 9.6024,112.3019 10.69462,10.6859 37.48688,14.4713 54.0035,7.6299 21.5147,-8.9117 23.5835,-20.1139 23.5835,-127.699 V 1054 h 44.3386 44.3387 l -1.4082,107 c -1.3359,101.5044 -1.8819,108.0544 -10.629,127.5297 -19.3132,43.0007 -49.199,58.6677 -114.6401,60.0975 -24.2,0.5288 -49.4,-0.4365 -56,-2.145 z"
     id="path1096"
     transform="scale(0.0771024)" />
  <path
     style="fill:#f4f0e8;fill-rule:evenodd;stroke:#f4f0e8;stroke-width:4"
     d="m 1172,1200 v -146 l 45,0.084 45,0.084 39.9135,74.4008 c 21.9524,40.9204 42.1451,77.3326 44.8728,80.916 3.9981,5.2526 4.9839,-9.1827 5.0865,-74.4847 L 1352,1054 h 40 40 v 146 146 h -41.1815 -41.1816 l -41.8184,-74.5673 c -23.0002,-41.0121 -44.0113,-77.4621 -46.6913,-81 -3.883,-5.126 -4.8986,10.021 -5,74.5673 L 1256,1346 h -42 -42 z"
     id="path1135"
     transform="scale(0.0771024)" />
  <path
     style="fill:#f4f0e8;fill-rule:evenodd;stroke:#f4f0e8;stroke-width:4"
     d="m 1492,1200 v -146 h 44 44 v 52 52 h 44 44 v -52 -52 h 42 42 v 146 146 h -42 -42 v -58 -58 h -44 -44 v 58 58 h -44 -44 z"
     id="path1174"
     transform="scale(0.0771024)" />
  <path
     style="fill:#f4f0e8;fill-rule:evenodd;stroke:#f4f0e8;stroke-width:4"
     d="m 1893.2967,1344.4673 c -57.5125,-18.7587 -93.3281,-68.7891 -96.5435,-134.8604 -4.7105,-96.7946 52.486,-159.6069 145.3371,-159.6069 66.0491,0 106.8423,27.7755 123.5824,84.1456 3.48,11.7185 6.3273,22.7797 6.3273,24.5804 0,1.8007 -18.5384,3.274 -41.1964,3.274 h -41.1965 l -5.1627,-14.2772 c -11.0114,-30.4514 -52.6824,-39.8055 -78.061,-17.5229 -7.6422,6.71 -16.1518,18.86 -18.9102,27 -6.3906,18.8589 -6.4755,66.4943 -0.1517,85.1403 16.2075,47.7891 78.0711,53.7024 95.1083,9.0911 L 1989.0869,1234 H 2030.5434 2072 v 11.3611 c 0,16.701 -22.177,58.2095 -38.9841,72.9664 -24.1703,21.2218 -46.5355,29.0313 -87.0159,30.3845 -22.7168,0.7594 -42.1631,-0.8068 -52.7033,-4.2447 z"
     id="path1213"
     transform="scale(0.0771024)" />
  <path
     style="fill:#f4f0e8;fill-rule:evenodd;stroke:#f4f0e8;stroke-width:4"
     d="m 2116,1199.6876 v -146.3125 l 97,1.3125 97,1.3124 24,12 c 18.9384,9.4692 26.0891,15.7962 33.9058,30 18.3824,33.4029 8.7918,85.375 -18.9573,102.7309 -6.0217,3.7663 -11.5875,7.2816 -12.3686,7.8119 -0.781,0.5302 4.9522,6.5588 12.7404,13.397 17.766,15.5988 25.6186,36.4939 30.5053,81.172 2.1123,19.3114 4.9218,36.8614 6.2435,39 1.5006,2.4281 -14.2086,3.8882 -41.833,3.8882 -24.3299,0 -44.2684,-1.35 -44.3078,-3 -0.3458,-14.4589 -12.2067,-78.0461 -15.8158,-84.7897 C 2277.6183,1246.0757 2263.9475,1242 2229.7396,1242 H 2200 v 52 52 h -42 -42 z M 2284,1174 c 11.9106,-11.9106 10.6667,-33.3217 -2.5394,-43.7097 -8.8623,-6.9711 -16.1823,-8.2903 -46,-8.2903 H 2200 v 30 30 h 38 c 32.6667,0 39.1228,-1.1228 46,-8 z"
     id="path1252"
     transform="scale(0.0771024)" />
  <path
     style="fill:#f4f0e8;fill-rule:evenodd;stroke:#f4f0e8;stroke-width:1.10713"
     d="m 351.23861,1494.8282 c -2.45868,-1.3656 -2.41649,-1.4542 3.3214,-6.9693 14.05565,-13.5102 29.78663,-24.4895 47.30291,-33.0149 5.68532,-2.7671 10.63264,-5.3546 10.99405,-5.7501 1.28758,-1.4088 -22.76434,0.7546 -32.52148,2.9252 -5.46085,1.2149 -17.41788,4.6572 -26.57119,7.6497 -30.0038,9.8092 -42.86498,12.2642 -64.24908,12.2642 -21.60003,0 -44.5261,-4.3637 -49.22954,-9.3703 l -2.38816,-2.5421 14.18395,-0.5015 c 13.45197,-0.4756 15.06957,-0.7946 31.34452,-6.181 33.09094,-10.9518 51.6602,-13.9259 87.46349,-14.0082 23.54385,-0.054 25.68214,0.1172 38.97597,3.1237 l 14.06548,3.181 9.73788,-2.343 c 15.26413,-3.6726 22.95857,-4.5552 39.78993,-4.5642 33.42605,-0.018 57.30835,3.9439 90.6254,15.0335 14.35742,4.7789 16.54029,5.2007 29.6158,5.7233 7.76377,0.3103 14.11595,0.7919 14.11595,1.0702 0,0.2782 -1.12097,1.4407 -2.49105,2.5833 -5.69675,4.7507 -27.99793,8.7843 -48.60383,8.7909 -18.80399,0.01 -35.49415,-2.9852 -58.32728,-10.4532 -30.08814,-9.8409 -46.81758,-13.3831 -59.44343,-12.5862 l -5.50782,0.3476 9.41063,4.5245 c 18.11946,8.7116 36.24845,21.4007 48.5125,33.9557 l 5.8879,6.0275 -3.27228,1.3554 c -3.2172,1.3327 -3.44676,1.1843 -13.63783,-8.8119 -17.64321,-17.3058 -34.15721,-28.3063 -50.57181,-33.6875 -7.22402,-2.3682 -11.93012,-1.4431 -25.23812,4.9614 -11.54264,5.5548 -24.71428,15.3571 -38.13415,28.3791 -5.86576,5.6919 -11.11624,10.3313 -11.66772,10.3097 -0.55147,-0.022 -2.12332,-0.6617 -3.49299,-1.4225 z"
     id="path1291"
     transform="scale(0.0771024)" />
  <path
     style="fill:#f4f0e8;fill-rule:evenodd;stroke:#f4f0e8;stroke-width:1.10713"
     d="m 568.90384,1437.0824 c -9.76787,-1.5925 -32.58189,-6.9538 -34.87169,-8.1947 -0.79553,-0.4312 1.34137,-3.9312 5.74621,-9.4117 3.85702,-4.799 9.59652,-13.6399 12.75445,-19.6465 5.78226,-10.9984 13.43098,-20.8139 28.6227,-36.7311 7.71371,-8.0821 20.22739,-18.4857 22.23506,-18.4857 0.49002,0 -0.50919,2.6156 -2.22046,5.8125 -1.71127,3.1968 -4.94109,12.0401 -7.17738,19.6516 -7.25479,24.6928 -14.1407,34.0171 -35.9517,48.6828 -5.41591,3.6417 -10.16234,7.1313 -10.54762,7.7547 -1.19385,1.9316 4.24297,1.2735 14.5294,-1.7589 5.39619,-1.5908 14.79336,-4.3564 20.88259,-6.1458 6.08923,-1.7894 20.78642,-5.1867 32.66042,-7.5497 23.34771,-4.6462 26.99827,-5.7173 37.42423,-10.9803 3.77359,-1.9049 6.86077,-3.0827 6.86038,-2.6172 -10e-4,1.7248 -9.89211,13.3716 -14.70359,17.3142 -15.50258,12.7032 -40.14477,22.8137 -57.25934,23.493 -5.17585,0.2055 -13.7185,-0.3288 -18.98366,-1.1872 z"
     id="path1330"
     transform="scale(0.0771024)" />
  <path
     style="fill:#f4f0e8;fill-rule:evenodd;stroke:#f4f0e8;stroke-width:1.10713"
     d="m 604.94967,1393.61 c 0.34871,-1.6782 1.62385,-11.2723 2.83365,-21.3202 1.20981,-10.0479 2.70837,-20.9514 3.33014,-24.23 2.34516,-12.366 11.7212,-31.5347 23.34051,-47.718 l 4.36163,-6.0749 v 12.2959 c 0,21.5041 -3.83239,37.3827 -14.29398,59.2237 -6.47581,13.5197 -6.81423,15.3616 -2.82247,15.3616 4.85546,0 10.62065,-3.9238 23.75925,-16.1706 7.00262,-6.5273 17.49646,-15.0115 23.31965,-18.8538 12.58384,-8.3031 21.26173,-15.5711 30.62333,-25.648 6.23681,-6.7133 6.89266,-7.1467 6.91958,-4.5726 0.12374,11.8317 -12.59324,34.9738 -27.03157,49.1916 -13.4452,13.2399 -29.48665,21.0268 -53.64331,26.0398 -8.2843,1.7192 -16.47267,3.666 -18.19639,4.3262 -3.03524,1.1626 -3.11405,1.1043 -2.50002,-1.8507 z"
     id="path1369"
     transform="scale(0.0771024)" />
  <path
     style="fill:#f4f0e8;fill-rule:evenodd;stroke:#f4f0e8;stroke-width:1.10713"
     d="m 656.52638,1325.4873 c -0.002,-1.355 -1.03338,-7.6949 -2.29231,-14.0885 -3.16715,-16.085 -4.2226,-32.576 -3.0469,-47.6068 1.15146,-14.7209 4.61211,-32.8938 7.48329,-39.297 l 1.98851,-4.4347 0.8199,4.4285 c 0.45094,2.4357 2.33868,10.158 4.19497,17.1606 3.07561,11.6023 3.38451,14.3529 3.48149,30.9997 0.0975,16.7341 -0.10271,18.721 -2.38462,23.6673 -1.47944,3.2069 -2.47609,7.4781 -2.45422,10.5178 0.0361,5.0162 0.0747,5.0712 1.93748,2.7597 1.04536,-1.2971 5.13902,-7.0047 9.09702,-12.6835 4.62853,-6.6409 13.04985,-16.0707 23.6008,-26.427 9.68281,-9.5043 18.69769,-19.5043 22.00123,-24.4055 l 5.59679,-8.3035 -0.79527,4.9821 c -3.13096,19.6144 -18.62808,47.9966 -34.53739,63.2536 -9.63555,9.2404 -21.25017,16.832 -32.01161,20.9235 -2.33243,0.8868 -2.67624,0.7012 -2.67916,-1.4463 z"
     id="path1408"
     transform="scale(0.0771024)" />
  <path
     style="fill:#f4f0e8;fill-rule:evenodd;stroke:#f4f0e8;stroke-width:1.10713"
     d="m 685.80439,1251.9416 c -2.86099,-12.9147 -4.65769,-17.7839 -10.33411,-28.0063 -11.54228,-20.786 -15.42765,-34.3504 -13.93148,-48.6366 1.26352,-12.0648 1.78124,-12.4716 6.31107,-4.9588 14.54611,24.1252 21.69522,43.9601 22.20117,61.5964 0.13543,4.7209 0.62722,8.5885 1.09286,8.5947 1.84363,0.024 5.35717,-7.7282 9.72819,-21.4657 5.90446,-18.5567 11.59841,-31.6826 19.20525,-44.2725 5.37597,-8.8976 8.17521,-14.4695 11.18701,-22.2676 0.80458,-2.0832 0.90518,-2.0504 1.69957,0.5536 2.34179,7.6762 0.3817,25.3266 -4.42612,39.8568 -3.12965,9.4583 -12.01109,27.541 -17.89364,36.4316 -5.08348,7.6828 -16.02949,19.8851 -21.03546,23.4497 l -3.11849,2.2205 z"
     id="path1447"
     transform="scale(0.0771024)" />
  <path
     style="fill:#f4f0e8;fill-rule:evenodd;stroke:#f4f0e8;stroke-width:1.10713"
     d="m 243.93494,1436.5941 c -24.07908,-6.5475 -44.61232,-18.9225 -55.09752,-33.2062 -2.17044,-2.9567 -3.94625,-5.69 -3.94625,-6.0738 0,-0.3839 3.08749,0.8606 6.86108,2.7655 10.37256,5.236 14.01725,6.3034 37.42423,10.9602 11.874,2.3623 27.81671,6.1356 35.42825,8.3851 37.74736,11.1558 39.88192,11.0156 21.23129,-1.3941 -12.8259,-8.5341 -23.38777,-19.1031 -27.75471,-27.7735 -1.92364,-3.8193 -5.18745,-12.8715 -7.25291,-20.1161 -3.13606,-10.9996 -5.28022,-16.7379 -9.26309,-24.7901 -1.32764,-2.6841 7.3039,3.5757 15.29114,11.0895 14.00964,13.1793 28.68143,30.923 34.71127,41.979 4.99295,9.1548 11.07365,18.1865 17.93515,26.6392 l 2.8414,3.5003 -6.41192,1.864 c -13.02088,3.7853 -32.22658,7.2655 -42.98832,7.7899 -8.77982,0.4279 -12.71426,0.093 -19.00909,-1.6189 z"
     id="path1486"
     transform="scale(0.0771024)" />
  <path
     style="fill:#f4f0e8;fill-rule:evenodd;stroke:#f4f0e8;stroke-width:1.10713"
     d="m 236.92641,1395.2953 c -1.52231,-0.5958 -9.49366,-2.4825 -17.71412,-4.1927 -17.55854,-3.6527 -24.05092,-5.9469 -35.80792,-12.6533 -11.57634,-6.6033 -17.41936,-11.5482 -25.16906,-21.3004 -10.60936,-13.3507 -17.23393,-26.805 -19.28585,-39.1689 l -0.81661,-4.9205 12.58462,12.2263 c 8.11644,7.8853 17.10513,15.2268 25.31664,20.6771 7.24177,4.8067 18.06147,13.4652 25.09112,20.0792 6.79751,6.3956 13.87225,12.4108 15.72166,13.3672 4.44995,2.3011 9.00819,2.2836 9.00819,-0.035 0,-0.9754 -2.71544,-7.5766 -6.03432,-14.6695 -9.97318,-21.3139 -14.49047,-41.6377 -13.6938,-61.6099 l 0.3533,-8.8571 6.41821,9.6124 c 7.51085,11.2489 16.10183,27.7739 18.78304,36.1298 1.82138,5.6762 9.04848,53.7 8.35371,55.51 -0.18754,0.4886 -1.5865,0.4008 -3.10881,-0.1951 z"
     id="path1525"
     transform="scale(0.0771024)" />
  <path
     style="fill:#f4f0e8;fill-rule:evenodd;stroke:#f4f0e8;stroke-width:1.10713"
     d="m 179.72233,1324.1694 c -25.65084,-11.662 -50.52377,-42.9153 -58.42689,-73.4144 -2.9563,-11.4087 -2.27122,-12.5113 2.84073,-4.5719 2.5816,4.0095 12.08413,14.5489 21.86587,24.2517 10.99869,10.9101 19.80664,20.79 24.18178,27.1248 10.97615,15.8926 10.39633,15.4063 9.9007,8.3035 -0.2337,-3.3491 -1.28819,-8.3312 -2.3433,-11.0713 -4.23576,-11.0004 -3.31535,-35.1329 2.13241,-55.9102 1.43691,-5.4803 2.97193,-11.9571 3.41114,-14.3928 l 0.79856,-4.4285 2.19395,4.9058 c 3.06362,6.8505 6.05592,22.5066 7.42066,38.8259 1.30557,15.6119 0.39315,29.7681 -3.20579,49.7379 -1.25377,6.9568 -2.27958,12.8108 -2.27958,13.0088 0,0.9188 -3.25738,0.01 -8.49024,-2.3693 z"
     id="path1564"
     transform="scale(0.0771024)" />
  <path
     style="fill:#f4f0e8;fill-rule:evenodd;stroke:#f4f0e8;stroke-width:1.10713"
     d="m 148.60866,1246.59 c -18.45969,-18.479 -33.21682,-47.9957 -36.9292,-73.8646 -1.2877,-8.9731 -0.52516,-23.1272 1.13979,-21.1566 0.44441,0.526 1.75296,3.1984 2.90789,5.9385 1.15493,2.7402 5.49161,10.7115 9.63706,17.7141 7.90173,13.3478 13.68929,27.0435 19.64991,46.4996 3.52971,11.5213 7.00786,18.8213 8.96764,18.8213 0.55926,0 1.01684,-3.2594 1.01684,-7.2431 0,-8.1038 2.37842,-20.9486 5.72994,-30.9448 2.07801,-6.1978 12.65846,-26.4165 18.13703,-34.659 2.09545,-3.1525 2.53117,-3.3793 3.19156,-1.6607 0.42064,1.0947 1.0305,5.976 1.35524,10.8474 1.03111,15.4676 -2.44853,26.168 -17.73804,54.5466 -2.05645,3.817 -4.37589,10.0446 -5.15431,13.8392 -2.29615,11.1931 -2.07518,11.1685 -11.91135,1.3221 z"
     id="path1603"
     transform="scale(0.0771024)" />
  <path
     style="fill:#f4f0e8;fill-rule:evenodd;stroke:#f4f0e8;stroke-width:1.10713"
     d="m 645.836,1058.3826 c -2.53247,-2.5714 -8.8592,-7.2453 -14.05938,-10.3864 -13.31038,-8.0398 -28.34538,-25.058 -30.16095,-34.1394 -0.94843,-4.7439 0.64145,-4.6905 8.92905,0.3 17.5465,10.566 30.61703,22.777 36.75777,34.3408 3.52782,6.6433 5.8628,15.0505 4.09157,14.7319 -0.52446,-0.094 -3.02559,-2.2754 -5.55806,-4.8469 z"
     id="path1642"
     transform="scale(0.0771024)" />
  <path
     style="fill:#f4f0e8;fill-rule:evenodd;stroke:#f4f0e8;stroke-width:1.10713"
     d="m 672.57467,1115.374 c -3.64887,-3.7169 -11.36731,-10.3205 -17.15207,-14.6745 -11.93957,-8.9867 -21.66885,-18.6634 -30.62611,-30.4606 -6.25577,-8.2392 -12.17845,-17.9092 -10.969,-17.9092 0.36588,0 6.55648,2.9532 13.75689,6.5626 14.9822,7.5104 21.66095,13.0707 33.43703,27.8377 7.25351,9.0958 9.90104,11.4734 9.90104,8.8916 0,-0.5463 -1.9686,-6.8985 -4.37468,-14.1159 -2.50521,-7.5148 -4.88849,-17.3807 -5.577,-23.0868 -1.05152,-8.7144 -5.01754,-26.148 -7.24114,-31.83 -1.46377,-3.7405 1.87495,-1.9326 8.17851,4.4285 7.16068,7.2261 12.86517,17.4554 17.44159,31.2765 2.96519,8.955 3.11327,10.3754 3.05855,29.339 -0.0399,13.8358 -0.53777,21.5443 -1.6284,25.2137 l -1.5709,5.2854 z"
     id="path1681"
     transform="scale(0.0771024)" />
  <path
     style="fill:#f4f0e8;fill-rule:evenodd;stroke:#f4f0e8;stroke-width:1.10713"
     d="m 693.25493,1189.7055 c -3.36531,-8.7676 -11.31741,-20.7686 -20.52712,-30.9786 -10.31647,-11.437 -16.55629,-21.9867 -22.21808,-37.5645 -2.67602,-7.3627 -5.22575,-13.9697 -5.66608,-14.6822 -3.66077,-5.9232 20.66396,14.6142 29.62144,25.0095 6.84751,7.9466 13.4767,19.3953 18.51353,31.9731 0.70209,1.7532 1.56696,2.8973 1.92194,2.5423 0.35499,-0.355 -0.46081,-11.0583 -1.81287,-23.7851 -2.35603,-22.1771 -2.3846,-23.6421 -0.68687,-35.2188 0.97428,-6.6435 1.77142,-17.5048 1.77142,-24.1363 v -12.0571 l 2.38151,2.109 c 8.28135,7.334 17.40766,43.9627 15.83522,63.555 -1.75428,21.8578 -5.11159,35.6612 -12.4743,51.2874 l -4.08173,8.6629 z"
     id="path1720"
     transform="scale(0.0771024)" />
  <path
     style="fill:#f4f0e8;fill-rule:evenodd;stroke:#f4f0e8;stroke-width:1.10713"
     d="m 163.43518,1112.5023 c -2.05108,-11.1753 -2.32331,-28.5738 -0.61211,-39.1212 2.55567,-15.7523 14.15086,-38.4052 23.447,-45.8071 2.28069,-1.8159 4.37079,-3.0776 4.64465,-2.8038 0.27386,0.2739 -0.95165,5.9013 -2.72337,12.5054 -1.77172,6.6041 -3.53295,15.0594 -3.91386,18.7896 -0.83434,8.1709 -4.3637,22.082 -7.88326,31.0723 -4.99891,12.7691 -2.92499,12.6656 7.35547,-0.3671 11.84232,-15.0126 18.35182,-20.3803 33.71658,-27.8022 7.35221,-3.5515 13.56376,-6.2611 13.80345,-6.0214 0.23969,0.2397 -2.10934,4.3091 -5.22007,9.0432 -9.4933,14.4474 -20.85888,26.6747 -34.27574,36.8746 -6.83383,5.1953 -15.60109,12.5937 -19.48279,16.4408 l -7.05764,6.995 z"
     id="path1759"
     transform="scale(0.0771024)" />
  <path
     style="fill:#f4f0e8;fill-rule:evenodd;stroke:#f4f0e8;stroke-width:1.10713"
     d="m 193.25414,1062.3901 c -1.14462,-1.852 2.82765,-12.201 7.19136,-18.7357 2.45491,-3.6763 7.2607,-9.2406 10.67955,-12.3652 9.10417,-8.3207 27.88702,-20.9706 31.19863,-21.0117 2.43133,-0.03 0.60755,6.3923 -3.61018,12.7132 -7.99008,11.9743 -14.33817,18.2691 -25.09944,24.8885 -5.81917,3.5794 -12.65139,8.518 -15.18271,10.9745 -2.53131,2.4566 -4.86106,4.048 -5.17721,3.5364 z"
     id="path1798"
     transform="scale(0.0771024)" />
  <path
     style="fill:#f4f0e8;fill-rule:evenodd;stroke:#f4f0e8;stroke-width:1.10713"
     d="m 144.96983,1187.836 c -11.80555,-26.2215 -15.48905,-56.1004 -9.94629,-80.6799 3.87229,-17.1717 10.19841,-32.8305 14.28342,-35.3552 0.61972,-0.383 1.24191,5.0672 1.53766,13.4693 0.27322,7.762 1.17512,19.0001 2.00421,24.9737 1.54056,11.0997 1.39878,13.459 -3.0665,51.0275 -0.86677,7.2925 0.76194,5.9818 4.54323,-3.6561 4.20284,-10.7123 10.55283,-20.1498 20.47554,-30.4311 8.06073,-8.3521 24.3347,-22.2293 25.13272,-21.4313 0.20903,0.2091 -0.76888,3.3452 -2.17313,6.9692 -1.40424,3.624 -3.92542,10.21 -5.60261,14.6354 -3.46789,9.1505 -11.70315,22.3128 -18.73944,29.9509 -8.69771,9.4417 -13.86602,16.8042 -19.01152,27.0828 -2.79868,5.5907 -5.29381,10.3701 -5.54473,10.6211 -0.25093,0.2509 -2.00258,-2.9784 -3.89256,-7.1763 z"
     id="path1837"
     transform="scale(0.0771024)" />
  <path
     style="fill:#f4f0e8;fill-rule:evenodd;stroke:#f4f0e8;stroke-width:1.10713"
     d="m 879.06341,1451.4511 v -40.4104 h -14.39272 -14.39273 v -8.3035 -8.3035 h 39.85678 39.85678 v 8.3035 8.3035 h -14.94629 -14.94629 v 40.4104 40.4103 h -10.51776 -10.51777 z"
     id="path1876"
     transform="scale(0.0771024)" />
  <path
     style="fill:#f4f0e8;fill-rule:evenodd;stroke:#f4f0e8;stroke-width:1.10713"
     d="m 937.74145,1443.1476 v -48.7139 h 9.41063 9.41063 v 18.2677 c 0,10.0472 0.28127,18.2677 0.62504,18.2677 0.34377,0 1.85003,-1.4558 3.34724,-3.2351 1.4972,-1.7794 4.99095,-4.3335 7.76387,-5.6758 7.03957,-3.4078 19.41795,-2.7107 25.70128,1.4474 8.36766,5.5375 10.15366,13.6098 10.16286,45.9364 l 0.01,22.4194 h -9.41061 -9.41063 l -0.0264,-21.8659 c -0.0296,-24.5088 -0.79271,-29.6193 -4.95947,-33.214 -4.00848,-3.458 -13.35348,-3.506 -17.6952,-0.091 -5.47764,4.3088 -6.10437,7.6392 -6.10437,32.439 v 22.7318 h -9.41063 -9.41063 z"
     id="path1915"
     transform="scale(0.0771024)" />
  <path
     style="fill:#f4f0e8;fill-rule:evenodd;stroke:#f4f0e8;stroke-width:1.10713"
     d="m 1352.9162,1443.1476 v -48.7139 h 29.4874 c 19.1762,0 30.987,0.4493 33.7759,1.2849 8.7872,2.6327 16.6527,12.0423 18.2107,21.7856 1.5304,9.5701 -4.3943,22.607 -11.6372,25.6072 -4.1741,1.7289 -4.0495,2.4358 1.0197,5.7837 6.1369,4.053 8.6331,10.4792 9.9543,25.6261 0.6287,7.2082 1.653,14.0586 2.2762,15.223 1.0785,2.0154 0.63,2.1172 -9.3264,2.1172 h -10.4594 l -0.6541,-4.1517 c -0.3597,-2.2835 -1.1258,-8.4874 -1.7023,-13.7864 -1.9648,-18.0607 -4.4538,-20.1005 -25.1886,-20.6434 l -14.7206,-0.3854 v 19.4835 19.4834 h -10.5178 -10.5178 z m 53.6234,-5.5081 c 6.3654,-2.4201 9.3452,-13.8367 5.5347,-21.2053 -2.7153,-5.2509 -7.2706,-6.5006 -23.6943,-6.5006 h -14.4282 v 14.3927 14.3927 h 14.8742 c 8.1808,0 16.1519,-0.4858 17.7136,-1.0795 z"
     id="path1954"
     transform="scale(0.0771024)" />
  <path
     style="fill:#f4f0e8;fill-rule:evenodd;stroke:#f4f0e8;stroke-width:1.10713"
     d="m 1225.596,1443.1476 v -48.7139 h 10.3736 10.3737 l 19.6819,31.8301 c 10.825,17.5065 20.3558,32.5596 21.1796,33.4512 1.2616,1.3656 1.4977,-3.6522 1.4977,-31.8301 v -33.4512 h 9.4107 9.4106 v 48.7139 48.7138 l -10.241,-0.01 -10.241,-0.01 -20.4819,-33.162 c -11.2651,-18.2392 -20.8556,-33.1811 -21.3123,-33.2043 -0.4567,-0.023 -0.8304,14.9041 -0.8304,33.1718 v 33.214 h -9.4106 -9.4106 z"
     id="path1993"
     transform="scale(0.0771024)" />
  <path
     style="fill:#f4f0e8;fill-rule:evenodd;stroke:#f4f0e8;stroke-width:1.10713"
     d="m 1152.6153,1492.317 c -7.6513,-2.0571 -12.2447,-4.9202 -17.5337,-10.9288 -7.4695,-8.4858 -8.0204,-12.0512 -8.0204,-51.9003 v -35.0542 h 9.8938 9.8939 l 0.3471,35.1515 c 0.3074,31.1311 0.5713,35.5618 2.3076,38.7392 2.5699,4.703 5.7262,6.658 13.1587,8.1506 12.3769,2.4857 22.6858,-2.1004 25.313,-11.2608 0.6017,-2.0981 1.0853,-18.7107 1.0853,-37.2824 v -33.4981 h 10.5992 10.5991 l -0.4119,35.705 c -0.3535,30.6387 -0.6856,36.412 -2.3411,40.6872 -4.4409,11.4688 -12.2673,18.3473 -24.5013,21.5339 -8.1473,2.1221 -22.4119,2.102 -30.3893,-0.043 z"
     id="path2032"
     transform="scale(0.0771024)" />
  <path
     style="fill:#f4f0e8;fill-rule:evenodd;stroke:#f4f0e8;stroke-width:1.10713"
     d="m 1040.052,1492.8199 c -11.2942,-2.5408 -21.8379,-12.4483 -24.9885,-23.4805 -2.189,-7.6656 -1.6399,-20.3132 1.1991,-27.6186 3.3403,-8.5951 11.1862,-16.4117 19.694,-19.6205 8.267,-3.118 21.7341,-2.7247 28.5516,0.8339 11.1925,5.8423 19.3748,20.4799 19.3748,34.6606 v 3.2669 h -26.0176 c -24.043,0 -26.0172,0.147 -26.0115,1.9375 0.014,4.405 2.3997,10.0102 5.5417,13.0205 6.4568,6.186 22.6302,4.7704 27.3228,-2.3915 1.5192,-2.3186 2.5442,-2.6023 9.4023,-2.6023 7.4753,0 7.6747,0.072 6.9174,2.491 -1.5121,4.8301 -7.4249,12.1443 -12.3345,15.2578 -7.9187,5.0219 -18.3374,6.5656 -28.6516,4.2452 z m 24.9854,-44.4135 c -0.062,-3.537 -4.5888,-10.9398 -7.938,-12.9818 -9.4181,-5.742 -22.7202,0.028 -24.8237,10.7676 l -0.7047,3.5982 h 16.7453 c 12.6712,0 16.7395,-0.3368 16.7211,-1.384 z"
     id="path2071"
     transform="scale(0.0771024)" />
  <path
     style="fill:#f4f0e8;fill-rule:evenodd;stroke:#f4f0e8;stroke-width:1.10713"
     d="m 1472.1926,1492.9364 c -10.191,-2.5608 -18.4995,-9.2367 -23.1461,-18.5982 -2.215,-4.4626 -2.5683,-6.8456 -2.5726,-17.3515 0,-11.0651 0.2652,-12.6903 2.9504,-17.7779 6.5571,-12.4237 16.2905,-18.5102 30.6074,-19.1395 8.5209,-0.3746 9.736,-0.1436 16.3338,3.1045 4.9422,2.433 8.3176,5.067 11.0073,8.5895 4.4316,5.804 8.292,17.0857 8.292,24.2329 v 4.8655 h -25.9481 -25.948 l 0.6402,4.1517 c 1.5572,10.0997 6.9248,14.6587 17.2665,14.6654 7.0933,0 11.6258,-1.8332 14.9529,-6.063 1.9498,-2.4788 3.0102,-2.7899 9.5084,-2.7899 5.2751,0 7.3138,0.4025 7.3138,1.4439 0,1.9827 -5.7443,10.7509 -8.9916,13.7251 -6.7819,6.2113 -22.0774,9.5018 -32.2663,6.9415 z m 24.6509,-45.0108 c 0,-4.0599 -4.552,-11.2272 -8.243,-12.9786 -10.4843,-4.9752 -21.6733,0.4562 -24.3064,11.7987 l -0.7068,3.0447 h 16.6281 c 14.851,0 16.6281,-0.1993 16.6281,-1.8648 z"
     id="path2110"
     transform="scale(0.0771024)" />
  <path
     style="fill:#f4f0e8;fill-rule:evenodd;stroke:#f4f0e8;stroke-width:1.10713"
     d="m 1530.0575,1462.5224 v -29.339 h -6.0893 -6.0892 v -6.0893 -6.0892 h 5.9355 5.9354 l 0.5861,-6.4633 c 0.7556,-8.3327 3.1061,-12.7424 8.8026,-16.5144 3.9628,-2.624 5.9277,-3.0929 14.3619,-3.4269 l 9.771,-0.3869 v 6.753 6.7529 h -4.9821 c -6.4942,0 -9.4107,2.7449 -9.4107,8.8571 v 4.4285 h 6.6428 6.6428 v 6.0892 6.0893 h -6.6428 -6.6428 v 29.339 29.339 h -9.4106 -9.4106 z"
     id="path2149"
     transform="scale(0.0771024)" />
  <path
     style="fill:#f4f0e8;fill-rule:evenodd;stroke:#f4f0e8;stroke-width:1.10713"
     d="m 1587.0748,1493.0404 c -8.6252,-2.0998 -13.6585,-6.8475 -15.9216,-15.0182 -0.7377,-2.6634 -1.2291,-14.9088 -1.2328,-30.7229 l -0.01,-26.2944 h 8.857 8.8571 l 0.01,19.6516 c 0.01,31.6461 1.9057,37.5937 12.3185,38.6546 6.1566,0.6272 11.7252,-2.1441 14.7177,-7.3245 1.9694,-3.4094 2.2566,-6.3635 2.6644,-27.4015 l 0.457,-23.5802 h 8.7213 8.7214 v 35.4283 35.4282 h -8.8571 -8.857 v -5.1123 -5.1124 l -4.4683,4.4682 c -6.7533,6.7534 -16.2793,9.2966 -25.9779,6.9355 z"
     id="path2188"
     transform="scale(0.0771024)" />
  <path
     style="fill:#f4f0e8;fill-rule:evenodd;stroke:#f4f0e8;stroke-width:1.10713"
     d="m 1752.7974,1492.4171 c -14.1467,-3.9763 -23.2405,-15.0407 -25.1316,-30.5775 -2.1819,-17.925 7.962,-35.0145 23.9321,-40.319 7.5744,-2.5158 20.7785,-1.821 27.0109,1.4213 5.4982,2.8604 11.7889,9.3776 14.7281,15.2587 2.1859,4.3737 4.6467,15.0164 4.6467,20.0966 v 2.5645 h -26.0176 c -24.043,0 -26.0172,0.147 -26.0115,1.9375 0.014,4.405 2.3997,10.0102 5.5417,13.0205 6.4568,6.186 22.6302,4.7704 27.3228,-2.3915 1.5166,-2.3146 2.5479,-2.6023 9.3277,-2.6023 4.1925,0 7.618,0.3736 7.6123,0.8303 -0.029,2.3194 -7.062,12.6702 -10.2729,15.1193 -8.4715,6.4615 -21.6684,8.7391 -32.6887,5.6416 z m 25.8545,-45.6714 c -1.3081,-5.3063 -4.4233,-9.625 -8.3843,-11.6231 -9.8644,-4.9762 -21.8348,0.5701 -23.8913,11.0696 l -0.7047,3.5982 h 16.8654 16.8654 z"
     id="path2227"
     transform="scale(0.0771024)" />
  <path
     style="fill:#f4f0e8;fill-rule:evenodd;stroke:#f4f0e8;stroke-width:1.10713"
     d="m 1672.8776,1518.4709 c -12.6582,-2.2447 -20.5399,-8.3036 -23.294,-17.9068 l -0.9083,-3.167 h 9.3049 c 9.1299,0 9.3358,0.06 10.9515,3.1841 1.7831,3.4482 8.5518,6.7968 13.6557,6.7557 1.6622,-0.013 5.0529,-0.9465 7.5348,-2.0738 6.132,-2.785 8.2195,-7.4261 8.2195,-18.2743 v -8.413 l -4.1784,4.1783 c -4.7166,4.7166 -10.7077,6.9158 -18.6463,6.8444 -11.581,-0.104 -19.5915,-5.2935 -24.9393,-16.1564 -3.2569,-6.6158 -3.6172,-8.3294 -3.6649,-17.4319 -0.071,-13.6046 2.3121,-20.3654 9.8037,-27.811 6.313,-6.2742 11.4214,-8.315 20.7181,-8.2771 7.4165,0.03 14.0612,2.9431 17.9382,7.8638 l 2.9443,3.7368 0.012,-5.2589 0.012,-5.2589 h 8.9098 8.9098 l -0.3295,39.0264 -0.3296,39.0265 -3.1058,5.2836 c -5.0512,8.5932 -13.8645,13.1473 -27.8939,14.4134 -3.6535,0.3298 -8.8847,0.202 -11.6249,-0.2839 z m 16.1707,-44.2224 c 6.3105,-2.8658 9.3019,-9.1748 9.269,-19.5488 -0.041,-13.0158 -4.6613,-19.9119 -14.1971,-21.1909 -10.7024,-1.4355 -17.697,5.164 -18.6872,17.6317 -1.4952,18.8258 9.4535,29.5394 23.6153,23.108 z"
     id="path2266"
     transform="scale(0.0771024)" />
  <path
     style="fill:#f4f0e8;fill-rule:evenodd;stroke:#f4f0e8;stroke-width:1.10713"
     d="m 1830.9036,1492.9414 c -10.2066,-2.5769 -18.7539,-9.81 -23.3573,-19.7657 -3.4051,-7.3642 -3.4051,-25.0138 0,-32.3779 3.2729,-7.0785 9.7307,-13.894 16.3847,-17.2923 7.3924,-3.7755 20.0221,-4.6972 28.0097,-2.0441 12.1814,4.046 21.1149,16.7915 22.1774,31.6405 l 0.5552,7.7598 h -25.6128 -25.6128 v 3.4308 c 0,4.9622 3.175,10.9046 7.1077,13.3027 4.2064,2.5651 14.8528,2.8113 19.4207,0.4492 1.7427,-0.9013 4.1739,-2.9166 5.4026,-4.4787 2.073,-2.6353 2.7934,-2.8164 9.996,-2.5131 l 7.762,0.3268 -2.4251,4.7608 c -3.2714,6.4223 -9.1608,12.2711 -14.9718,14.8687 -5.542,2.4773 -18.6414,3.4966 -24.8362,1.9325 z m 24.3263,-46.9366 c -1.7818,-10.9801 -13.2674,-16.099 -23.9241,-10.6624 -4.3209,2.2044 -7.8581,7.6619 -7.8581,12.1242 0,2.2544 0.4837,2.3238 16.1982,2.3238 h 16.1983 z"
     id="path2305"
     transform="scale(0.0771024)" />
  <path
     style="fill:#f4f0e8;fill-rule:evenodd;stroke:#f4f0e8;stroke-width:1.10713"
     d=""
     id="path2344"
     transform="scale(0.0771024)" />
  <path
     style="fill:#f4f0e8;fill-rule:evenodd;stroke:#f4f0e8;stroke-width:1.10713"
     d="m 1907.8765,1490.4775 c 4.2271,-11.1706 35.1797,-92.693 35.7305,-94.1063 0.6471,-1.6605 2.2929,-1.9375 11.5108,-1.9375 h 10.7557 l 17.9253,47.8835 c 9.8589,26.3359 17.919,48.2572 17.9113,48.7138 -0.01,0.4567 -4.6292,0.8304 -10.27,0.8304 h -10.2559 l -3.8451,-11.0713 -3.8451,-11.0714 h -18.8909 -18.891 l -3.8202,11.0713 -3.8202,11.0712 -10.3594,10e-5 c -7.8288,10e-5 -10.2315,-0.338 -9.8358,-1.3838 z m 59.6998,-35.7219 c 0.4823,-0.4823 -10.9346,-35.6315 -12.0114,-36.9798 -0.2026,-0.2538 -0.6377,-0.1921 -0.9667,0.1369 -0.9622,0.9623 -12.6873,34.0632 -12.6873,35.8174 0,1.2959 2.3588,1.5959 12.5475,1.5959 6.9011,0 12.8042,-0.2567 13.1179,-0.5704 z"
     id="path2383"
     transform="scale(0.0771024)" />
  <path
     style="fill:#f4f0e8;fill-rule:evenodd;stroke:#f4f0e8;stroke-width:1.10713"
     d="m 2031.5886,1518.4789 c -12.7332,-2.2785 -20.6083,-8.4462 -23.7377,-18.5908 -0.7547,-2.4467 -0.6027,-2.491 8.5391,-2.491 8.8,0 9.3748,0.1477 10.542,2.7092 2.911,6.3892 13.2389,8.9493 21.4498,5.3173 6.6728,-2.9518 8.6748,-7.278 8.6586,-18.7116 l -0.012,-8.6898 -2.7157,3.4447 c -9.1326,11.5844 -32.4701,10.3844 -42.0394,-2.1615 -8.1454,-10.6791 -9.4092,-30.735 -2.77,-43.9575 2.762,-5.5009 11.0876,-12.8451 16.1573,-14.2528 11.1192,-3.0875 22.9051,-0.3131 28.4235,6.6908 l 2.9443,3.7368 0.012,-5.2589 0.012,-5.2589 h 8.8979 8.8979 l -0.3176,38.4729 c -0.3136,37.9832 -0.3512,38.541 -2.9556,43.8312 -4.463,9.0654 -14.1083,14.2466 -28.9154,15.5326 -3.349,0.2909 -8.3311,0.1277 -11.0713,-0.3627 z m 17.5499,-45.1493 c 5.793,-4.3251 7.327,-7.6604 7.7437,-16.8371 0.6653,-14.6505 -4.1992,-22.0478 -15.1155,-22.9854 -10.4797,-0.9002 -16.6446,5.3756 -17.6559,17.9734 -0.9714,12.1024 3.8482,22.6038 11.0854,24.1539 4.398,0.9419 11.0712,-0.1612 13.9423,-2.3048 z"
     id="path2422"
     transform="scale(0.0771024)" />
  <path
     style="fill:#f4f0e8;fill-rule:evenodd;stroke:#f4f0e8;stroke-width:1.10713"
     d="m 2111.3022,1492.3695 c -10.8849,-3.041 -17.243,-8.7138 -22.3532,-19.9439 -1.9828,-4.3572 -2.498,-7.5134 -2.5243,-15.4622 -0.03,-9.0917 0.2939,-10.6514 3.6117,-17.3908 6.7842,-13.7807 18.1297,-20.2613 33.9978,-19.4197 10.7229,0.5686 16.1045,3.0368 22.5245,10.3303 5.2811,5.9997 8.574,14.0446 9.6533,23.5846 l 0.7686,6.7939 h -26.3021 -26.3021 l 0.7362,4.6042 c 1.5675,9.8027 6.927,14.217 17.2609,14.217 6.6766,0 12.4144,-2.3805 14.907,-6.1846 1.5742,-2.4025 2.5313,-2.6724 9.4755,-2.6724 4.2484,0 7.7197,0.3736 7.714,0.8303 -0.029,2.3194 -7.0619,12.6702 -10.2729,15.1193 -8.5321,6.5078 -21.6433,8.7374 -32.8949,5.594 z m 25.9066,-45.6238 c -1.2387,-5.3361 -4.2792,-9.6301 -8.2302,-11.6231 -9.8643,-4.9762 -21.8348,0.5701 -23.8913,11.0696 l -0.7047,3.5982 h 16.7665 16.7665 z"
     id="path2461"
     transform="scale(0.0771024)" />
  <path
     style="fill:#f4f0e8;fill-rule:evenodd;stroke:#f4f0e8;stroke-width:1.10713"
     d="m 2165.5517,1456.4332 v -35.4283 h 8.857 8.8571 v 4.9821 c 0,2.7402 0.405,4.9821 0.9,4.9821 0.495,0 2.3633,-1.5575 4.1518,-3.461 4.7976,-5.1064 10.9578,-7.5577 19.0639,-7.586 10.9744,-0.038 17.228,3.3091 21.6713,11.6006 2.2143,4.1318 2.3974,6.3013 2.734,32.3836 l 0.3607,27.9551 h -9.4946 -9.4945 v -23.7313 c 0,-13.0522 -0.4677,-24.9614 -1.0393,-26.4649 -2.0045,-5.272 -5.4854,-7.3747 -12.2087,-7.3747 -7.022,0 -10.153,1.6771 -13.0442,6.9868 -1.6142,2.9645 -1.9837,7.3052 -2.3031,27.0575 l -0.3804,23.5266 h -9.3155 -9.3155 z"
     id="path2500"
     transform="scale(0.0771024)" />
  <path
     style="fill:#f4f0e8;fill-rule:evenodd;stroke:#f4f0e8;stroke-width:1.10713"
     d="m 2269.3282,1492.9405 c -10.2134,-2.5765 -18.7381,-9.6921 -23.178,-19.3468 -2.1174,-4.6043 -2.5457,-7.3983 -2.5457,-16.607 0,-9.6655 0.3728,-11.8664 2.9355,-17.3326 6.1102,-13.0332 17.1777,-19.7563 32.5224,-19.7563 14.1618,0 24.7224,5.6002 29.8089,15.8073 4.5855,9.2019 4.3019,9.6567 -6.0203,9.6567 h -8.8422 l -1.5831,-3.7888 c -2.0385,-4.8789 -6.1187,-7.4976 -12.6255,-8.1033 -6.643,-0.6184 -11.9168,2.6766 -15.4369,9.6446 -3.2777,6.4882 -3.4784,20.4485 -0.3916,27.245 3.1576,6.9524 6.9135,9.3236 14.7675,9.3236 6.0369,0 6.9282,-0.3239 10.3754,-3.7711 2.0742,-2.0742 4.0795,-5.3125 4.4562,-7.1964 l 0.6851,-3.4252 h 8.7186 c 8.3067,0 8.7182,0.1177 8.7079,2.4911 -0.017,3.935 -4.8993,13.2261 -8.9875,17.1038 -2.0535,1.9478 -6.116,4.5937 -9.0278,5.8798 -6.0486,2.6717 -18.1017,3.7491 -24.3389,2.1756 z"
     id="path2539"
     transform="scale(0.0771024)" />
  <path
     style="fill:#f4f0e8;fill-rule:evenodd;stroke:#f4f0e8;stroke-width:1.10713"
     d="m 2322.4878,1516.5623 c -1.5918,-0.416 -1.9375,-1.7761 -1.9375,-7.6215 v -7.1152 h 7.0033 c 8.4306,0 11.8179,-2.5904 11.8179,-9.0375 0,-2.2112 -4.1426,-14.9387 -9.5263,-29.2677 -5.2394,-13.9452 -10.9563,-29.2161 -12.7041,-33.9352 l -3.1779,-8.5803 h 9.8443 9.8442 l 7.9803,24.0801 c 4.3891,13.2441 8.3155,24.4527 8.7252,24.908 0.4097,0.4554 4.3465,-10.3807 8.7485,-24.0801 l 8.0035,-24.908 h 9.4994 c 7.1415,0 9.369,0.3435 8.9742,1.3839 -0.2888,0.7612 -6.8847,18.5722 -14.6575,39.58 -15.7262,42.5039 -17.9564,47.5544 -22.3893,50.7053 -5.5198,3.9233 -18.4997,5.8608 -26.0482,3.8882 z"
     id="path2578"
     transform="scale(0.0771024)" />
</svg>
